<svg width="32" height="32" viewBox="0 0 32 32" fill="none" xmlns="http://www.w3.org/2000/svg">
<path d="M28 16C29.1046 16 30 16.8954 30 18V21C30 22.1046 29.1046 23 28 23V16Z" fill="#333333"/>
<path d="M4 16C2.89543 16 2 16.8954 2 18V21C2 22.1046 2.89543 23 4 23V16Z" fill="#333333"/>
<path d="M6.05249 14.3147C6.84369 9.59666 10.9964 6 16 6C21.0036 6 25.1563 9.59666 25.9475 14.3147C26.5695 14.6041 27 15.2286 27 15.9524V23.1905C27 24.1898 26.1792 25 25.1667 25H24.25C23.2375 25 22.4167 24.1898 22.4167 23.1905V15.9524C22.4167 15.0204 23.1306 14.2529 24.0481 14.1537C23.2186 10.5215 19.9301 7.80952 16 7.80952C12.0699 7.80952 8.78142 10.5215 7.95189 14.1537C8.86942 14.2529 9.58333 15.0204 9.58333 15.9524V23.1905C9.58333 24.1898 8.76252 25 7.75 25H6.83333C5.82081 25 5 24.1898 5 23.1905V15.9524C5 15.2286 5.43047 14.6041 6.05249 14.3147Z" fill="#333333"/>
</svg>
