<svg width="32" height="32" viewBox="0 0 32 32" fill="none" xmlns="http://www.w3.org/2000/svg">
<path d="M20.7428 16.5324C19.7401 15.5533 18.3585 15.0735 17.0277 15.2383C16.8568 14.4919 16.501 12.9215 16.4224 12.5726C16.598 12.4078 17.1802 11.8601 17.4344 11.5935C18.4094 10.566 19.0516 9.41245 19.3335 8.17168C19.7448 6.38322 19.5692 4.54629 18.7975 2.55426C18.6219 2.10351 18.4047 1.63337 18.0027 1.27956C17.6238 0.949977 17.0786 0.906356 16.6396 1.17778C16.2191 1.4395 15.8679 1.80786 15.563 2.31192C14.9345 3.34429 14.5972 4.56567 14.551 5.94216C14.4863 7.88087 14.9345 9.92136 15.027 10.3382C14.5325 10.7647 13.9041 11.3269 13.4836 11.7147C12.6195 12.5095 11.6399 13.4837 10.9145 14.7003C10.2075 15.8926 9.91177 17.0946 10.0227 18.3644C10.2398 20.9381 11.6122 22.6878 14.2183 23.7201C15.3181 24.1563 16.7597 24.1951 18.1876 23.8365C18.3123 24.3018 18.7744 26.1048 18.8807 27.0256C19.0101 28.1501 18.7282 28.9644 18.0166 29.5169C17.2311 30.1324 16.1313 30.2051 15.3966 30.0113C15.1841 29.9531 14.8837 29.8077 14.6896 29.6284C15.0362 29.6623 15.526 29.6477 15.9095 29.3812C16.4871 28.9789 16.769 28.0095 16.5148 27.3019C16.2376 26.5361 15.6923 26.0708 14.9299 25.9497C14.2645 25.843 13.6269 26.0611 13.174 26.541C12.7073 27.0353 12.4994 27.7333 12.6103 28.4554C12.7258 29.2261 13.1278 29.8319 13.8348 30.3069C14.5233 30.7674 15.3042 31 16.1683 31C16.3577 31 16.5472 30.9903 16.7413 30.9661C17.5869 30.8691 18.2661 30.5589 18.8067 30.0161C19.583 29.2406 19.8603 28.2131 19.6616 26.8802C19.523 25.9594 19.0747 24.04 18.9638 23.5796C19.4952 23.3421 20.1745 22.8913 20.6227 22.4745C21.496 21.67 21.9812 20.6085 21.9997 19.4841C22.0135 18.3838 21.57 17.3321 20.7475 16.5324H20.7428ZM13.8117 18.0446C13.576 18.8685 13.6823 19.7749 14.0982 20.5358C14.5048 21.2774 15.1794 21.8105 15.9419 21.9995L16.0481 22.0238L16.2376 21.3064L16.1359 21.2677C15.6046 21.0738 15.2534 20.6861 15.087 20.1141C14.953 19.6634 15.0131 19.2272 15.258 18.8152C15.5861 18.2772 16.2053 17.8216 16.8383 17.6471L18.0027 23.0949C15.8448 23.5166 13.8856 22.9786 12.4809 21.5682C11.7231 20.8072 11.4736 19.7942 11.7139 18.4662C11.9726 17.2158 12.6473 16.3143 12.9338 15.9265C12.9846 15.8587 13.0215 15.8054 13.04 15.7763C13.5345 15.0929 14.1398 14.5306 14.7728 13.9636C15.0131 13.7503 15.5168 13.3238 15.7617 13.1202L16.3208 15.3885C15.1332 15.7908 14.1536 16.8183 13.8071 18.0349L13.8117 18.0446ZM15.9788 5.41871C16.1775 4.93403 16.4317 4.54144 16.7597 4.2264C16.9538 4.04222 17.1479 3.91621 17.3558 3.8532C17.4621 3.81927 17.5684 3.80473 17.67 3.80473C17.8641 3.80473 18.0443 3.86289 18.1968 3.97921C18.4417 4.16339 18.5849 4.47358 18.5988 4.8274C18.6127 5.23938 18.5295 5.66589 18.3447 6.16511C17.8271 7.55129 16.8799 8.57396 15.7755 9.64994C15.4983 8.07474 15.4382 6.74188 15.9742 5.42355L15.9788 5.41871ZM20.1745 21.2144C19.9296 21.7911 19.3982 22.3776 18.7328 22.8041C18.6127 22.2903 18.2291 20.6473 18.0397 19.8573C17.9196 19.3532 17.6377 18.0009 17.5453 17.5647C18.5572 17.5163 19.3751 17.8943 19.8788 18.6407C20.387 19.392 20.5026 20.4243 20.1745 21.2144Z" fill="#333333"/>
</svg>
