<svg width="32" height="32" viewBox="0 0 32 32" fill="none" xmlns="http://www.w3.org/2000/svg">
<path d="M5.46951 27.9945L5.33092 27.2943C6.53205 27.0131 8.8708 26.0924 10.4993 25.0725C11.9603 24.1628 13.8601 22.5308 15.2692 20.3696C16.1354 19.0354 17.4751 15.744 17.4751 12.9433C17.4751 11.6973 17.3885 10.3575 16.8514 8.96819C16.4414 7.91515 15.7831 6.82904 14.5993 5.99653C13.3635 5.12544 11.7466 5.01517 10.9901 5.12544C9.63306 5.32391 8.57052 5.94691 7.63502 6.9779C6.45698 8.29557 6.78614 9.72351 6.78614 9.72351C7.84291 9.01229 8.66291 9.01781 9.22306 9.04537C10.3318 9.1005 11.1056 9.68491 11.5503 10.5395C12.0065 11.5374 11.891 12.8881 10.7071 13.6765C9.54644 14.4484 7.866 14.4318 6.58403 13.6214C5.2905 12.8109 4.97289 11.3168 5.00176 10.2142C5.07106 7.99234 6.54938 6.01307 8.56474 4.94901C10.6783 3.83533 12.8496 3.75263 15.1999 4.43628C17.4809 5.10338 19.7965 6.88417 20.6858 10.0212C21.1651 11.9233 21.3383 15.2754 19.3865 18.8259C18.7109 20.0499 16.7186 22.7789 14.1431 24.455C10.8977 26.5721 7.57727 27.7188 5.46374 28L5.46951 27.9945Z" fill="#333333"/>
<path d="M25 11C26.1046 11 27 10.1046 27 9C27 7.89543 26.1046 7 25 7C23.8954 7 23 7.89543 23 9C23 10.1046 23.8954 11 25 11Z" fill="#333333"/>
<path d="M25 17C26.1046 17 27 16.1046 27 15C27 13.8954 26.1046 13 25 13C23.8954 13 23 13.8954 23 15C23 16.1046 23.8954 17 25 17Z" fill="#333333"/>
</svg>
