<svg width="3" height="11" viewBox="0 0 3 11" fill="none" xmlns="http://www.w3.org/2000/svg">
<path d="M3 0.00474142C3 0.00474142 0.865909 0.260778 0.865909 2.29959V3.99227C0.865909 3.99227 0.906818 5.17763 0 5.50004C0 5.50004 1.90227 5.36254 1.90227 3.71253V1.92501C1.90227 1.92501 1.77955 0.573711 3 0V0.00474142Z" fill="#111111"/>
<path d="M3 10.9953C3 10.9953 0.865909 10.7393 0.865909 8.70046V7.00777C0.865909 7.00777 0.906818 5.82242 0 5.5C0 5.5 1.90227 5.6375 1.90227 7.28751V9.07503C1.90227 9.07503 1.77955 10.4263 3 11V10.9953Z" fill="#111111"/>
</svg>
