<svg width="7" height="12" viewBox="0 0 7 12" fill="none" xmlns="http://www.w3.org/2000/svg">
<path d="M4.6 5.9998L0.699999 2.0998C0.516666 1.91647 0.424999 1.68314 0.424999 1.3998C0.424999 1.11647 0.516666 0.883138 0.699999 0.699805C0.883333 0.516471 1.11667 0.424805 1.4 0.424805C1.68333 0.424805 1.91667 0.516471 2.1 0.699805L6.7 5.2998C6.8 5.3998 6.87083 5.50814 6.9125 5.6248C6.95417 5.74147 6.975 5.86647 6.975 5.9998C6.975 6.13314 6.95417 6.25814 6.9125 6.3748C6.87083 6.49147 6.8 6.5998 6.7 6.6998L2.1 11.2998C1.91667 11.4831 1.68333 11.5748 1.4 11.5748C1.11667 11.5748 0.883333 11.4831 0.699999 11.2998C0.516666 11.1165 0.424999 10.8831 0.424999 10.5998C0.424999 10.3165 0.516666 10.0831 0.699999 9.89981L4.6 5.9998Z" fill="#111111"/>
</svg>
