<svg width="58" height="66" viewBox="0 0 58 66" fill="none" xmlns="http://www.w3.org/2000/svg">
<path d="M55.8706 30.6923V28.6154V26.5385H53.8571V24.4615H51.7857V22.3846H47.6429V24.4615H45.5714V26.5385H43.5V28.6154H41.4286V30.6923H35.2143V28.6154V26.5385V24.4615H37.2857V22.3846H39.3571V20.3077H41.4286V16.1538H39.3571V14.0769H33.1429V12H31.0714V14.0769H29V16.1538H26.9286V20.3077V22.3846H29V24.4615V26.5385H26.9286V28.6154H22.7857V30.6923H20.7143V28.6154H18.6429V26.5385V24.4615V22.3846V20.2994H16.5714V18.2142H12.4286V20.2994H8.28571V22.3846H6.21429V24.4615H4.14286V26.5385H2.07143V28.6154V30.6923H0V32.7692V34.8462V36.9231V39H2.07143V36.9231H4.14286V34.8462H6.21429V32.7692H8.28571V34.8462V36.9231V39V41.0769H10.3571V39H12.4286V36.9231H14.5V34.8462H16.5714V41.0769H18.6429V36.9231H20.7143V39V41.0769V43.1538V47.3077H22.7857V49.3846H16.5714V51.4615H14.5V53.5385H12.4286V55.6154H10.3571V57.6923V61.8462H12.4286V63.9231H14.5V66H20.7143V63.9231H18.6429V61.8462H16.5714V57.6923H18.6429V55.6154H26.9286V53.5385H29V51.4615H31.0714V49.3846H33.1429V51.4615H37.2857V49.3846H39.3571V47.3077H37.2857V43.1538H39.3571V41.0769H41.4286V39H43.5V41.0769V43.1538H45.5714V41.0769H47.6429V39V36.9231V34.8462H49.6811V43.1538H51.7857V45.2308H53.8571V43.1538H55.9286V34.8462H58V32.7692V30.6923H55.8706Z" fill="#9E9E9E"/>
<path d="M49.4286 8.57143V6.85714H52.8571V5.14286H54.5714V3.42857H49.4286V5.14286H46V1.71428H47.7143V0H56.2857V1.71428H58V5.14286H56.2857V6.85714H54.5714V8.57143H49.4286ZM49.4286 12V10.2857H54.5714V12H49.4286Z" fill="#9E9E9E"/>
</svg>
