<svg width="57" height="57" viewBox="0 0 57 57" fill="none" xmlns="http://www.w3.org/2000/svg">
<path d="M25.6671 4.95731C33.9293 8.31942 34.6538 22.2022 34.6538 22.2022L35.9641 22.1218C36.6885 4.68384 26.222 1.59521 26.222 1.59521L22.985 1L18.3144 28.6529C15.8789 26.9156 12.0715 26.6743 8.43366 28.0577C3.14647 30.0685 -0.0443299 34.8463 1.31215 38.7232C2.08288 40.9109 4.133 42.3587 6.72265 42.8252C8.72654 43.1952 11.0387 42.9861 13.3355 42.1174C17.1121 40.6857 19.9329 37.8062 20.6112 34.7015L25.6517 4.95731H25.6671Z" fill="#9E9E9E" stroke="#9E9E9E" stroke-miterlimit="10"/>
<path d="M44.4392 49.1402L42.4486 37.866L53.7265 35.8743L56.1044 49.3754C56.2655 50.6593 55.5658 52.1653 54.2897 53.2601C53.5311 53.9097 52.6619 54.3376 51.8034 54.489C51.6878 54.5094 51.574 54.5233 51.4626 54.5338C50.4768 54.6222 49.6461 54.3231 49.1257 53.6884C48.6054 53.0538 48.4583 52.1702 48.7151 51.1941C48.9669 50.2402 49.5774 49.3085 50.4343 48.5745C51.664 47.5214 53.182 47.0706 54.3731 47.3855L52.9328 39.2281L44.3453 40.7423L46.1733 51.1295C46.3345 52.4135 45.6347 53.9194 44.3587 55.0143C43.5017 55.7483 42.4967 56.2002 41.5345 56.2875C40.5487 56.3758 39.718 56.0767 39.1976 55.4421C38.1382 54.1517 38.7226 51.8573 40.5061 50.3281C41.7359 49.275 43.2509 48.8247 44.4392 49.1402Z" fill="#9E9E9E" stroke="#9E9E9E" stroke-miterlimit="10"/>
</svg>
