<svg width="20" height="20" viewBox="0 0 20 20" fill="none" xmlns="http://www.w3.org/2000/svg">
<circle cx="10" cy="10" r="10" fill="#111111"/>
<mask id="mask0_562_661" style="mask-type:alpha" maskUnits="userSpaceOnUse" x="2" y="2" width="16" height="16">
<rect x="2" y="2" width="16" height="16" fill="#D9D9D9"/>
</mask>
<g mask="url(#mask0_562_661)">
<path d="M10 10.9329L6.73337 14.1995C6.61114 14.3218 6.45559 14.3829 6.2667 14.3829C6.07781 14.3829 5.92225 14.3218 5.80003 14.1995C5.67781 14.0773 5.6167 13.9218 5.6167 13.7329C5.6167 13.544 5.67781 13.3884 5.80003 13.2662L9.0667 9.99954L5.80003 6.73288C5.67781 6.61066 5.6167 6.4551 5.6167 6.26621C5.6167 6.07732 5.67781 5.92177 5.80003 5.79954C5.92225 5.67732 6.07781 5.61621 6.2667 5.61621C6.45559 5.61621 6.61114 5.67732 6.73337 5.79954L10 9.06621L13.2667 5.79954C13.3889 5.67732 13.5445 5.61621 13.7334 5.61621C13.9223 5.61621 14.0778 5.67732 14.2 5.79954C14.3223 5.92177 14.3834 6.07732 14.3834 6.26621C14.3834 6.4551 14.3223 6.61066 14.2 6.73288L10.9334 9.99954L14.2 13.2662C14.3223 13.3884 14.3834 13.544 14.3834 13.7329C14.3834 13.9218 14.3223 14.0773 14.2 14.1995C14.0778 14.3218 13.9223 14.3829 13.7334 14.3829C13.5445 14.3829 13.3889 14.3218 13.2667 14.1995L10 10.9329Z" fill="white"/>
</g>
</svg>
