<svg width="272" height="105" viewBox="0 0 272 105" fill="none" xmlns="http://www.w3.org/2000/svg">
<g clip-path="url(#clip0_1496_365)">
<path d="M43.1531 78.273C43.1531 81.8627 43.7284 84.1015 43.7284 84.8735C43.7284 85.4911 43.2681 85.7999 42.8846 85.8771C41.8873 86.0315 38.857 86.2631 37.246 86.2631C35.635 86.2631 33.0267 86.0315 32.3747 85.8771C31.9911 85.7999 31.6459 85.4911 31.6459 84.9507C31.6459 84.3331 32.2212 80.9364 32.2212 78.4274V66.5388C32.1062 66.2686 31.9527 66.1528 31.7609 66.1528C31.1089 66.1528 28.5389 69.1636 27.7334 71.5181C27.5033 72.1743 27.1964 72.4059 26.6978 72.4059C26.2759 72.4059 25.5854 71.5953 25.2402 70.8233C24.895 70.0514 24.3196 67.9284 24.3196 65.2264C24.3196 61.7525 26.6978 60.2471 27.9252 60.0155C28.9609 59.8225 32.835 59.3979 37.668 59.3979C42.501 59.3979 46.797 59.6681 47.871 60.0155C49.3669 60.5173 51.1697 61.3279 51.1697 64.9948C51.1697 67.6582 50.4409 69.7812 50.1724 70.476C49.9423 71.0935 49.3286 72.1743 48.7532 72.1743C48.1395 72.1743 47.7943 71.8269 47.6025 71.3637C46.7203 69.125 44.9942 66.1528 43.6133 66.1528C43.4216 66.1528 43.2681 66.2686 43.1531 66.5388V78.273Z" stroke="#111111" stroke-miterlimit="10"/>
<path d="M52.7424 65.2264C52.7424 63.2192 52.0519 62.0226 51.093 60.826C51.093 58.9347 53.6246 57.6609 57.0384 57.6609C59.4165 57.6609 62.4084 58.7417 63.7893 59.8611C63.0988 61.0962 62.8303 63.142 62.8303 65.6895C64.0194 64.6088 66.551 63.4122 69.1593 63.4122C72.0744 63.4122 75.6417 65.7667 75.6417 69.0863V79.4309C75.6417 82.5574 76.217 83.7154 76.217 85.2594C76.217 85.5682 75.9869 85.7612 75.68 85.8384C74.7594 86.1086 72.7649 86.263 70.5785 86.263C68.3921 86.263 66.551 86.07 65.8606 85.877C65.6304 85.7998 65.3619 85.6454 65.3619 85.4138C65.3619 84.7576 65.5921 83.368 65.5921 80.8977V72.0584C65.5921 70.3987 64.94 69.1635 63.9043 69.1635C63.4441 69.1635 63.1372 69.2793 62.8303 69.3951V82.2487C62.8303 83.6768 63.0605 84.7576 63.0605 85.2208C63.0605 85.5682 62.8687 85.7226 62.6002 85.7998C61.4495 86.1472 59.7234 86.263 57.6521 86.263C55.5808 86.263 53.5479 86.0314 52.9342 85.8384C52.6657 85.7612 52.2821 85.6068 52.2821 85.1436C52.2821 84.4874 52.7424 83.368 52.7424 82.4416V65.2264Z" stroke="#111111" stroke-miterlimit="10"/>
<path d="M99.4232 74.6833C99.4232 75.8799 97.045 76.6133 94.0915 76.6133C91.7901 76.6133 89.0667 76.3431 87.8393 76.1115C87.9927 80.3574 89.1434 83.2138 90.3708 83.2138C91.2147 83.2138 91.5216 82.3646 91.5216 81.3224C91.5216 80.6662 91.4065 80.0872 91.2531 79.5082C91.8284 79.0064 92.749 78.8134 93.5161 78.8134C95.6641 78.8134 97.7738 80.5118 98.4642 82.519C96.9299 85.1051 93.823 86.6491 88.9133 86.6491C82.2775 86.6491 77.6362 82.9436 77.6362 75.5711C77.6362 68.1986 82.3158 63.4895 89.4119 63.4895C95.3956 63.4895 99.4232 66.23 99.4232 74.6833ZM87.7242 73.7955C89.0283 73.7955 90.1023 73.6025 90.8695 73.2937C90.8695 69.3952 90.1791 67.1178 89.2585 67.1178C88.2612 67.1178 87.7242 70.0128 87.7242 73.7955Z" stroke="#111111" stroke-miterlimit="10"/>
<path d="M117.336 80.2416C119.254 80.2416 121.057 78.3116 122.054 76.8063C122.246 76.6905 122.438 76.5747 122.744 76.5747C123.512 76.5747 124.125 79.1994 124.125 81.5154C124.125 84.2559 122.514 86.2631 120.213 86.2631C117.911 86.2631 114.728 85.8771 112.963 85.8771H106.98C106.404 85.8771 105.982 85.6069 105.982 85.2209C105.982 83.9085 106.404 83.9085 106.404 82.4418V66.4231C106.404 64.8791 105.79 63.1035 105.177 62.5245C105.177 60.2086 107.478 58.9734 111.007 58.9734C114.114 58.9734 116.799 59.7454 118.026 60.9806C117.528 61.6367 117.336 62.9491 117.336 64.5317V80.2416Z" stroke="#111111" stroke-miterlimit="10"/>
<path d="M146.603 74.6833C146.603 75.8799 144.224 76.6133 141.271 76.6133C138.97 76.6133 136.246 76.3431 135.019 76.1115C135.172 80.3574 136.323 83.2138 137.55 83.2138C138.394 83.2138 138.701 82.3646 138.701 81.3224C138.701 80.6662 138.586 80.0872 138.433 79.5082C139.008 79.0064 139.928 78.8134 140.696 78.8134C142.844 78.8134 144.953 80.5118 145.644 82.519C144.109 85.1051 141.002 86.6491 136.093 86.6491C129.457 86.6491 124.816 82.9436 124.816 75.5711C124.816 68.1986 129.495 63.4895 136.591 63.4895C142.575 63.4895 146.603 66.23 146.603 74.6833ZM134.904 73.7955C136.208 73.7955 137.282 73.6025 138.049 73.2937C138.049 69.3952 137.359 67.1178 136.438 67.1178C135.441 67.1178 134.904 70.0128 134.904 73.7955Z" stroke="#111111" stroke-miterlimit="10"/>
<path d="M160.641 80.589C160.641 81.5154 161.178 82.0172 161.907 82.0172C162.866 82.0172 164.861 81.3996 165.705 80.589C166.05 80.7434 166.28 81.6312 166.28 82.0944C166.28 84.6419 162.061 86.6491 157.074 86.6491C152.088 86.6491 150.553 83.5612 150.553 80.0872V70.283C150.553 69.4724 150.247 68.8934 149.786 68.8934H146.794C146.794 67.774 147.025 63.9913 148.559 63.9913L150.553 64.6089C150.553 63.1035 150.016 60.8648 150.016 60.1314C150.016 58.5874 153.277 57.468 155.31 57.468C158.186 57.468 161.14 59.1664 161.14 60.1314C161.14 60.8262 160.641 62.3315 160.641 64.2615H166.548C166.548 66.5775 164.822 69.3952 163.25 69.3952L160.641 68.6232V80.589Z" stroke="#111111" stroke-miterlimit="10"/>
<path d="M180.395 80.589C180.395 81.5154 180.932 82.0172 181.661 82.0172C182.62 82.0172 184.615 81.3996 185.458 80.589C185.804 80.7434 186.034 81.6312 186.034 82.0944C186.034 84.6419 181.815 86.6491 176.828 86.6491C171.842 86.6491 170.307 83.5612 170.307 80.0872V70.283C170.307 69.4724 170 68.8934 169.54 68.8934H166.548C166.548 67.774 166.778 63.9913 168.313 63.9913L170.307 64.6089C170.307 63.1035 169.77 60.8648 169.77 60.1314C169.77 58.5874 173.031 57.468 175.064 57.468C177.94 57.468 180.894 59.1664 180.894 60.1314C180.894 60.8262 180.395 62.3315 180.395 64.2615H186.302C186.302 66.5775 184.576 69.3952 183.004 69.3952L180.395 68.6232V80.589Z" stroke="#111111" stroke-miterlimit="10"/>
<path d="M207.629 74.6833C207.629 75.8799 205.251 76.6133 202.297 76.6133C199.996 76.6133 197.272 76.3431 196.045 76.1115C196.198 80.3574 197.349 83.2138 198.577 83.2138C199.42 83.2138 199.727 82.3646 199.727 81.3224C199.727 80.6662 199.612 80.0872 199.459 79.5082C200.034 79.0064 200.955 78.8134 201.722 78.8134C203.87 78.8134 205.98 80.5118 206.67 82.519C205.136 85.1051 202.029 86.6491 197.119 86.6491C190.483 86.6491 185.842 82.9436 185.842 75.5711C185.842 68.1986 190.522 63.4895 197.618 63.4895C203.601 63.4895 207.629 66.23 207.629 74.6833ZM195.93 73.7955C197.234 73.7955 198.308 73.6025 199.075 73.2937C199.075 69.3952 198.385 67.1178 197.464 67.1178C196.467 67.1178 195.93 70.0128 195.93 73.7955Z" stroke="#111111" stroke-miterlimit="10"/>
<path d="M210.122 71.9428C210.122 69.9742 208.933 68.6232 208.051 68.2372C208.013 68.16 207.974 68.0442 207.974 67.9284C207.974 65.6511 210.698 64.2229 213.421 64.2229C215.569 64.2229 217.026 65.1493 217.909 67.2336C218.714 65.1493 220.977 63.4895 223.317 63.4895C225.657 63.4895 227.114 64.7633 227.114 66.8476C227.114 69.2408 225.887 70.862 224.698 71.2866C224.391 70.6304 223.432 70.09 222.358 70.09C221.207 70.09 220.21 71.3252 220.21 72.6761V81.0522C220.21 82.4418 220.709 84.4103 220.709 85.0665C220.709 85.4911 220.364 85.9543 220.095 86.0315C219.328 86.2245 217.142 86.2631 215.07 86.2631C212.73 86.2631 210.698 86.0701 210.161 85.7999C209.969 85.6841 209.777 85.4139 209.777 84.9507C209.777 84.2945 210.122 81.9786 210.122 80.1644V71.9428Z" stroke="#111111" stroke-miterlimit="10"/>
<path d="M238.379 79.4437C238.379 77.4366 238.737 73.8597 241.172 71.325C242.93 69.4336 245.206 67.1048 245.206 63.573C245.206 61.0833 243.889 58.5486 239.459 58.5486C236.467 58.5486 234.23 60.1569 234.23 61.6816C234.23 63.4894 235.15 63.3671 235.15 64.9754C235.15 66.2235 234.23 66.944 233.316 66.944C232.478 66.944 231.641 66.3007 231.641 64.8146C231.641 60.7166 234.677 57.4614 239.549 57.4614C244.74 57.4614 247.693 59.9897 247.693 64.049C247.693 68.4301 244.458 70.1992 241.428 73.493C239.951 75.1013 239.472 77.4301 239.472 79.4373H238.392L238.379 79.4437ZM241.371 85.4717C241.371 86.5975 240.61 87.6783 239.133 87.6783C237.656 87.6783 236.94 86.591 236.94 85.4717C236.94 84.4295 237.656 83.3037 239.133 83.3037C240.61 83.3037 241.371 84.4295 241.371 85.4717Z" stroke="#111111" stroke-miterlimit="10"/>
<path d="M83.0638 13.426C87.1296 13.426 89.8914 17.3246 90.7736 21.9565C91.4257 25.4304 92.4997 32.2239 92.8832 34.1539C93.5737 32.1467 94.0723 29.0588 94.0723 24.8514C94.0723 21.9951 93.0367 19.1387 91.5407 17.5948C91.3489 17.4404 91.2339 17.2474 91.2339 17.0544C91.2339 15.6648 94.2641 12.6541 97.9464 12.6541C102.549 12.6541 105.81 15.2402 105.81 20.6055C105.81 31.4905 98.7519 40.3298 91.6942 40.3298C89.1626 40.3298 86.2091 38.3998 84.5214 35.8522C82.8336 38.5542 80.0336 40.3298 76.8883 40.3298C71.2114 40.3298 68.2195 36.1996 66.1866 29.329C65.1126 25.7006 63.0413 18.0966 61.9673 16.3596C61.9673 14.4296 65.0359 13.426 68.0661 13.426C72.8991 13.426 75.6608 17.3246 76.543 21.9565C77.1951 25.4304 77.5787 31.1817 78.0773 34.1539C79.0363 32.1467 79.8418 29.0588 79.8418 24.8514C79.8418 21.3775 78.576 17.9808 76.965 16.1666C76.965 14.7384 79.6883 13.426 83.0638 13.426Z" stroke="#111111" stroke-miterlimit="10"/>
<path d="M107.772 18.9073C107.772 16.9001 107.082 15.7035 106.123 14.5069C106.123 12.6156 108.654 11.3418 112.068 11.3418C114.446 11.3418 117.438 12.4226 118.819 13.542C118.129 14.7771 117.86 16.8229 117.86 19.3705C119.049 18.2897 121.581 17.0931 124.189 17.0931C127.104 17.0931 130.672 19.4477 130.672 22.7672V33.1118C130.672 36.2384 131.247 37.3963 131.247 38.9403C131.247 39.2491 131.017 39.4421 130.71 39.5193C129.789 39.7895 127.795 39.9439 125.608 39.9439C123.422 39.9439 121.581 39.7509 120.89 39.5579C120.66 39.4807 120.392 39.3263 120.392 39.0947C120.392 38.4385 120.622 37.0489 120.622 34.5786V25.7393C120.622 24.0796 119.97 22.8444 118.934 22.8444C118.474 22.8444 118.167 22.9602 117.86 23.076V35.9296C117.86 37.3577 118.09 38.4385 118.09 38.9017C118.09 39.2491 117.899 39.4035 117.63 39.4807C116.479 39.8281 114.753 39.9439 112.682 39.9439C110.611 39.9439 108.578 39.7123 107.964 39.5193C107.696 39.4421 107.312 39.2877 107.312 38.8245C107.312 38.1683 107.772 37.0489 107.772 36.1226V18.9073Z" stroke="#111111" stroke-miterlimit="10"/>
<path d="M155.214 25.5462V33.7293C155.214 35.3504 155.789 36.6628 156.134 36.7786C156.326 36.8944 156.441 37.1646 156.441 37.4348C156.441 39.442 153.027 40.3298 151.647 40.3298C148.578 40.3298 147.389 39.4034 146.468 37.8594C145.471 39.442 142.517 40.3298 139.372 40.3298C135.536 40.3298 132.468 38.9016 132.468 35.6978C132.468 32.4941 134.769 30.9501 137.186 30.1395C139.449 29.3675 141.942 28.7886 145.126 28.7886C145.126 23.3075 144.244 20.7985 143.208 20.7985C142.249 20.7985 141.789 21.7249 141.789 23.5391C141.789 24.89 142.134 26.2024 142.479 26.7814C141.597 27.6692 139.257 28.4026 137.147 28.4026C135.038 28.4026 133.427 27.013 133.427 24.2338C133.427 19.7563 138.95 17.1702 144.857 17.1702C150.764 17.1702 155.214 19.5247 155.214 25.5462ZM143.515 36.6628C144.129 36.6628 144.896 35.6978 145.126 34.8101V31.0273C143.63 31.0273 142.211 32.6099 142.211 34.0381C142.211 35.7364 142.786 36.6628 143.515 36.6628Z" stroke="#111111" stroke-miterlimit="10"/>
<path d="M170.48 34.2697C170.48 35.1961 171.017 35.6978 171.746 35.6978C172.705 35.6978 174.699 35.0803 175.543 34.2697C175.888 34.4241 176.118 35.3119 176.118 35.775C176.118 38.3226 171.899 40.3298 166.913 40.3298C161.926 40.3298 160.392 37.2418 160.392 33.7679V23.9637C160.392 23.1531 160.085 22.5741 159.625 22.5741H156.633C156.633 21.4547 156.863 17.672 158.397 17.672L160.392 18.2896C160.392 16.7842 159.855 14.5454 159.855 13.812C159.855 12.2681 163.115 11.1487 165.148 11.1487C168.025 11.1487 170.979 12.8471 170.979 13.812C170.979 14.5068 170.48 16.0122 170.48 17.9422H176.387C176.387 20.2581 174.661 23.0759 173.088 23.0759L170.48 22.3039V34.2697Z" stroke="#111111" stroke-miterlimit="10"/>
<path d="M201.012 17.1702C206.037 17.1702 209.182 19.0615 209.182 21.7249C209.182 23.6163 207.533 25.0444 205.692 25.0444C204.618 25.0444 203.045 24.3882 202.24 23.4619C202.47 23.1917 202.662 22.4969 202.662 21.9179C202.662 21.1845 202.048 20.4511 201.281 20.4511C200.514 20.4511 199.785 21.0301 199.785 22.0337C199.785 23.3847 200.897 24.8514 201.741 25.2374C206.191 27.2832 210.026 29.4447 210.026 33.5363C210.026 38.284 205.769 40.3298 199.785 40.3298C194.53 40.3298 191.538 38.3998 191.538 35.8908C191.538 33.8065 193.494 32.6099 195.144 32.6099C196.678 32.6099 198.097 33.3819 198.826 34.2697C198.634 34.5013 198.442 35.2346 198.442 35.8136C198.442 36.3926 199.171 37.0488 199.938 37.0488C200.744 37.0488 201.434 36.3926 201.434 35.389C201.434 34.2311 200.284 32.8029 199.133 32.3011C196.831 31.2975 191.768 29.1746 191.768 23.8864C191.768 19.7177 196.141 17.1702 201.012 17.1702Z" stroke="#111111" stroke-miterlimit="10"/>
<path d="M189.716 1.96221C193.143 3.30675 193.443 8.85862 193.443 8.85862L193.987 8.82646C194.287 1.85285 189.946 0.617668 189.946 0.617668L188.604 0.379639L186.667 11.4383C185.657 10.7436 184.078 10.6471 182.569 11.2003C180.376 12.0045 179.053 13.9151 179.615 15.4655C179.935 16.3405 180.785 16.9194 181.859 17.106C182.69 17.254 183.649 17.1703 184.602 16.8229C186.168 16.2504 187.338 15.0988 187.619 13.8572L189.71 1.96221H189.716Z" fill="#111111"/>
</g>
<path d="M259.437 97.2664L257.449 85.9917L268.727 84.0001L271.101 97.5016C271.262 98.7857 270.562 100.292 269.286 101.387C268.527 102.036 267.658 102.464 266.799 102.615C266.684 102.636 266.57 102.65 266.459 102.66C265.473 102.749 264.642 102.449 264.122 101.815C263.602 101.18 263.455 100.297 263.712 99.3204C263.964 98.3664 264.575 97.4347 265.432 96.7007C266.662 95.6475 268.179 95.1968 269.371 95.5117L267.932 87.3539L259.345 88.8681L261.17 99.2558C261.331 100.54 260.631 102.046 259.355 103.141C258.498 103.875 257.493 104.327 256.53 104.414C255.545 104.502 254.714 104.203 254.194 103.568C253.135 102.278 253.72 99.9836 255.503 98.4543C256.733 97.4012 258.248 96.9509 259.437 97.2664Z" fill="#111111"/>
<path d="M7.59671 52.5312L6.59888 41.126L7.96956 41L9.15879 54.6611C9.20645 55.9546 8.36767 57.3952 6.98545 58.3762C6.14449 58.9749 5.2238 59.309 4.37566 59.3832C3.27338 59.4796 2.29078 59.1401 1.75206 58.3603C0.800742 56.9828 1.59372 54.7465 3.52555 53.3763C4.85746 52.4329 6.42572 52.1146 7.59671 52.5312Z" fill="#111111"/>
<defs>
<clipPath id="clip0_1496_365">
<rect width="224" height="88" fill="white" transform="translate(24)"/>
</clipPath>
</defs>
</svg>
