<svg width="32" height="32" viewBox="0 0 32 32" fill="none" xmlns="http://www.w3.org/2000/svg">
<path d="M26.9499 9.49227L16.6444 9.83889L17.868 6.05533C18.0937 5.48902 18.2943 5.14727 18.4598 5.02522C18.7105 4.82506 19.0064 4.70789 19.3624 4.6786L19.4076 4L15.8771 4.12205L15.817 4.82018C16.168 4.80065 16.4137 4.86412 16.5491 5.01058C16.6845 5.15704 16.6946 5.37673 16.5792 5.66965L14.5883 12.2945L13.7809 5.78682C13.6656 5.17168 13.9866 4.85924 14.7438 4.84947L14.7889 4.17087L10.08 4.32221L10.0198 5.02034C10.2054 5.01058 10.3909 5.0594 10.5815 5.17168C10.767 5.28397 10.8924 5.44996 10.9526 5.66965L11.4791 8.78438L10.0951 12.5045L8.97675 5.99675C8.93663 5.72335 8.98678 5.4939 9.13221 5.29862C9.27764 5.10822 9.49829 5.01058 9.79918 5.01058L9.85936 4.33198L5.04513 4.48332L5 5.14727C5.29086 5.15704 5.54661 5.29862 5.7773 5.57201C5.96284 5.8454 6.16344 6.42148 6.38409 7.29536L8.37497 16.6444L9.74402 16.6054C9.89948 16.6054 10.0349 16.6835 10.1452 16.8348C10.2656 17.0008 10.3157 17.2059 10.2906 17.45L9.65375 26.2571C9.64372 26.55 9.5685 26.7795 9.43811 26.9552C9.30271 27.1261 9.13722 27.2189 8.94165 27.2286L8.43013 27.2433L8.385 28L17.7075 27.6827L18.5601 24.7925L17.2562 24.4752C16.8851 25.4516 16.509 26.1204 16.1379 26.4719C15.7668 26.8234 15.17 27.0187 14.3526 27.048L13.2343 27.0773C12.9535 27.0871 12.7579 26.9845 12.6426 26.7649C12.5272 26.55 12.4871 26.2718 12.5172 25.9398L13.109 17.5574C13.139 17.2254 13.2343 16.9618 13.3948 16.7714C13.5553 16.581 13.7609 16.4784 14.0066 16.4687H14.0768L14.5131 16.454L15.7819 12.524L17.0356 12.6607C17.2111 11.8454 17.4317 11.2889 17.6975 10.9959C17.9633 10.703 18.3745 10.5468 18.9312 10.5273L19.3374 10.5126C19.6683 10.5028 19.8739 10.6103 19.9492 10.8299C20.0244 11.0496 20.0495 11.406 20.0194 11.8893L19.4778 19.5151C19.4477 19.808 19.4226 20.013 19.4076 20.1302C19.3925 20.2474 19.3524 20.3987 19.2922 20.5891C19.232 20.7795 19.1368 20.9162 19.0214 20.9992C18.9011 21.0822 18.7506 21.1261 18.5651 21.1359L18.0034 21.1505L17.9432 21.9072L23.5047 21.7266L23.5498 20.9699L22.9881 20.9845C22.7274 20.9943 22.5418 20.926 22.4265 20.7746C22.3111 20.6233 22.256 20.428 22.261 20.1937C22.266 19.9544 22.2811 19.7006 22.3011 19.4272L22.8427 11.8015C22.8728 11.2791 22.948 10.9081 23.0584 10.6981C23.1737 10.4882 23.4044 10.3759 23.7554 10.3662L24.1265 10.3515C24.6882 10.332 25.0743 10.4589 25.3 10.7372C25.5206 11.0155 25.6661 11.5574 25.7262 12.3629L27 12.153L26.9398 9.50692L26.9499 9.49227ZM10.1602 15.834L11.9004 11.0496L12.7479 15.751L10.1602 15.834Z" fill="#333333"/>
</svg>
