<svg width="146" height="87" viewBox="0 0 146 87" fill="none" xmlns="http://www.w3.org/2000/svg">
<path d="M143 43.9681C119.417 48.972 124.5 63.5 129.452 76.5579C103.4 64.3107 84.8416 66.5257 76.265 85C68.0215 66.5257 51.8514 66.3678 26.5901 79.0598C34.6184 59.5447 24 48 3.5 43.9681C28 40 40.5901 35 26.5901 14C49.0901 24 66.3682 20.4743 75.1529 2C86.4252 20.4743 97 24 126 14C112.842 28.4752 115.905 39.4646 143 43.9681Z" fill="#F1F1F1" stroke="#111111" stroke-miterlimit="10"/>
<path d="M52.3906 29.3906V27.6875H61.4062V29.3906H57.9219V39H55.8906V29.3906H52.3906ZM61.3594 36.6094C61.3594 34.7031 62.9453 34.1484 64.5156 34.0469C65.1094 34 66.3203 33.9453 66.6953 33.9297L66.6875 33.25C66.6875 32.4062 66.1484 31.9219 65.1562 31.9219C64.2656 31.9219 63.7188 32.3281 63.5625 32.9375H61.6406C61.7812 31.4922 63.0781 30.4062 65.2031 30.4062C66.8125 30.4062 68.6719 31.0703 68.6719 33.3281V39H66.7656V37.8281H66.7031C66.3281 38.5469 65.5391 39.1719 64.2031 39.1719C62.5859 39.1719 61.3594 38.2891 61.3594 36.6094ZM63.2812 36.5938C63.2812 37.3281 63.8828 37.7031 64.7188 37.7031C65.9297 37.7031 66.7031 36.9062 66.7031 35.9531L66.6953 35.2578C66.3359 35.2734 65.2266 35.3438 64.8281 35.375C63.8828 35.4531 63.2812 35.8516 63.2812 36.5938ZM70.5469 42.1875V30.5156H72.5V31.9062H72.625C72.9297 31.3047 73.5547 30.4062 75.0625 30.4062C77.0156 30.4062 78.5547 31.9375 78.5625 34.7656C78.5547 37.5547 77.0625 39.1484 75.0625 39.1562C73.6016 39.1484 72.9375 38.2812 72.625 37.6562H72.5469V42.1875H70.5469ZM72.5 34.75C72.5078 36.4062 73.2266 37.5156 74.5156 37.5156C75.8359 37.5156 76.5312 36.3516 76.5312 34.75C76.5312 33.1719 75.8516 32.0391 74.5156 32.0312C73.2109 32.0391 72.5078 33.1016 72.5 34.75ZM83.5156 29.3906V27.6875H92.5312V29.3906H89.0469V39H87.0156V29.3906H83.5156ZM96.5 39.1719C94.0234 39.1719 92.4375 37.4141 92.4375 34.7969C92.4375 32.1562 94.0234 30.4062 96.5 30.4062C98.9844 30.4062 100.57 32.1562 100.562 34.7969C100.57 37.4141 98.9844 39.1719 96.5 39.1719ZM94.4531 34.7812C94.4531 36.3359 95.1328 37.5781 96.5156 37.5781C97.875 37.5781 98.5547 36.3359 98.5469 34.7812C98.5547 33.2266 97.875 31.9766 96.5156 31.9844C95.1328 31.9766 94.4531 33.2266 94.4531 34.7812ZM36.6719 47.6875L39.6094 56.6094H39.7344L42.6875 47.6875H44.9219L40.9219 59H38.4219L34.4375 47.6875H36.6719ZM46.1719 59V50.5156H48.1719V59H46.1719ZM46.0312 48.2188C46.0312 47.625 46.5547 47.1406 47.1875 47.1406C47.8203 47.1406 48.3438 47.625 48.3438 48.2188C48.3438 48.8203 47.8203 49.3047 47.1875 49.3125C46.5547 49.3047 46.0312 48.8203 46.0312 48.2188ZM53.8438 59.1719C51.2891 59.1719 49.7188 57.4688 49.7188 54.8125C49.7188 52.1875 51.3125 50.4062 53.7344 50.4062C55.8125 50.4062 57.6094 51.7109 57.6094 54.6875V55.3125H51.6875C51.7188 56.7578 52.5703 57.6172 53.8594 57.6094C54.7344 57.6172 55.3203 57.2422 55.5781 56.7344H57.5312C57.1719 58.2031 55.8125 59.1719 53.8438 59.1719ZM51.6953 53.9531H55.7031C55.6953 52.7969 54.9141 51.9531 53.7656 51.9531C52.5703 51.9531 51.7656 52.875 51.6953 53.9531ZM60.875 59L58.4688 50.5156H60.5L62 56.4844H62.0781L63.5938 50.5156H65.6094L67.1406 56.4531H67.2188L68.7031 50.5156H70.7344L68.3281 59H66.25L64.6562 53.25H64.5469L62.9531 59H60.875ZM83.5156 51.5C83.2734 50.1406 82.1875 49.3594 80.8125 49.3594C78.9609 49.3594 77.6484 50.7812 77.6562 53.3438C77.6484 55.9453 78.9688 57.3281 80.8125 57.3281C82.1562 57.3281 83.2422 56.5781 83.5156 55.25H85.5625C85.25 57.4219 83.4609 59.1562 80.7812 59.1562C77.7969 59.1562 75.6016 56.9922 75.6094 53.3438C75.6016 49.6875 77.8203 47.5312 80.7812 47.5312C83.2812 47.5312 85.2109 48.9844 85.5625 51.5H83.5156ZM86.8281 56.6094C86.8281 54.7031 88.4141 54.1484 89.9844 54.0469C90.5781 54 91.7891 53.9453 92.1641 53.9297L92.1562 53.25C92.1562 52.4062 91.6172 51.9219 90.625 51.9219C89.7344 51.9219 89.1875 52.3281 89.0312 52.9375H87.1094C87.25 51.4922 88.5469 50.4062 90.6719 50.4062C92.2812 50.4062 94.1406 51.0703 94.1406 53.3281V59H92.2344V57.8281H92.1719C91.7969 58.5469 91.0078 59.1719 89.6719 59.1719C88.0547 59.1719 86.8281 58.2891 86.8281 56.6094ZM88.75 56.5938C88.75 57.3281 89.3516 57.7031 90.1875 57.7031C91.3984 57.7031 92.1719 56.9062 92.1719 55.9531L92.1641 55.2578C91.8047 55.2734 90.6953 55.3438 90.2969 55.375C89.3516 55.4531 88.75 55.8516 88.75 56.5938ZM96.0156 59V50.5156H97.9531V51.9219H98.0469C98.3516 50.9453 99.1641 50.3906 100.141 50.3906C100.359 50.3906 100.672 50.4141 100.859 50.4375V52.2812C100.68 52.2188 100.266 52.1641 99.9375 52.1562C98.8281 52.1641 98.0156 52.9297 98.0156 54V59H96.0156ZM104.922 59.1562C102.93 59.1484 101.422 57.5547 101.422 54.7656C101.422 51.9375 102.969 50.4062 104.938 50.4062C106.43 50.4062 107.055 51.3047 107.359 51.9062H107.438V47.6875H109.422V59H107.469V57.6562H107.359C107.039 58.2812 106.391 59.1484 104.922 59.1562ZM103.453 54.75C103.453 56.3516 104.156 57.5156 105.469 57.5156C106.758 57.5156 107.484 56.4062 107.484 54.75C107.484 53.1016 106.766 52.0391 105.469 52.0312C104.141 52.0391 103.453 53.1719 103.453 54.75ZM116.25 52.9375C116.125 52.2969 115.594 51.8828 114.75 51.8906C113.898 51.8828 113.273 52.3125 113.281 52.8906C113.273 53.3281 113.625 53.6562 114.484 53.8594L115.922 54.1562C117.523 54.5078 118.305 55.25 118.312 56.4688C118.305 58.0625 116.906 59.1719 114.688 59.1719C112.531 59.1719 111.258 58.2031 111.047 56.5781H113.078C113.195 57.3047 113.758 57.6641 114.688 57.6562C115.648 57.6641 116.273 57.2734 116.281 56.6406C116.273 56.1484 115.891 55.8359 115.047 55.6562L113.688 55.3594C112.109 55.0391 111.289 54.2109 111.297 53C111.289 51.4297 112.648 50.4062 114.719 50.4062C116.742 50.4062 117.992 51.3984 118.141 52.9375H116.25Z" fill="#111111"/>
</svg>
