<svg width="121" height="63" viewBox="0 0 121 63" fill="none" xmlns="http://www.w3.org/2000/svg">
<path d="M114.38 31.6318C126.409 41.1444 118.396 49.7286 97.3267 51.3756C93.7301 61.3372 77.7956 64.751 60.2625 58.732C45.1272 64.751 31.1907 62.2057 27.3544 53.1523C4.28671 51.8746 -5.87345 42.3422 6.15491 31.6318C-5.87345 21.1112 4.03696 12.0179 26.6551 10.3909C32.6892 0.00996304 46.316 -1.48729 60.2625 4.53165C75.9673 -1.48729 90.3834 1.24769 94.1897 10.5206C116.778 11.8981 126.399 21.201 114.38 31.6318Z" fill="#F1F1F1" stroke="#111111" stroke-miterlimit="10"/>
<path d="M36.3906 15.3906V13.6875H45.4062V15.3906H41.9219V25H39.8906V15.3906H36.3906ZM45.3594 22.6094C45.3594 20.7031 46.9453 20.1484 48.5156 20.0469C49.1094 20 50.3203 19.9453 50.6953 19.9297L50.6875 19.25C50.6875 18.4062 50.1484 17.9219 49.1562 17.9219C48.2656 17.9219 47.7188 18.3281 47.5625 18.9375H45.6406C45.7812 17.4922 47.0781 16.4062 49.2031 16.4062C50.8125 16.4062 52.6719 17.0703 52.6719 19.3281V25H50.7656V23.8281H50.7031C50.3281 24.5469 49.5391 25.1719 48.2031 25.1719C46.5859 25.1719 45.3594 24.2891 45.3594 22.6094ZM47.2812 22.5938C47.2812 23.3281 47.8828 23.7031 48.7188 23.7031C49.9297 23.7031 50.7031 22.9062 50.7031 21.9531L50.6953 21.2578C50.3359 21.2734 49.2266 21.3438 48.8281 21.375C47.8828 21.4531 47.2812 21.8516 47.2812 22.5938ZM54.5469 28.1875V16.5156H56.5V17.9062H56.625C56.9297 17.3047 57.5547 16.4062 59.0625 16.4062C61.0156 16.4062 62.5547 17.9375 62.5625 20.7656C62.5547 23.5547 61.0625 25.1484 59.0625 25.1562C57.6016 25.1484 56.9375 24.2812 56.625 23.6562H56.5469V28.1875H54.5469ZM56.5 20.75C56.5078 22.4062 57.2266 23.5156 58.5156 23.5156C59.8359 23.5156 60.5312 22.3516 60.5312 20.75C60.5312 19.1719 59.8516 18.0391 58.5156 18.0312C57.2109 18.0391 56.5078 19.1016 56.5 20.75ZM67.5156 15.3906V13.6875H76.5312V15.3906H73.0469V25H71.0156V15.3906H67.5156ZM80.5 25.1719C78.0234 25.1719 76.4375 23.4141 76.4375 20.7969C76.4375 18.1562 78.0234 16.4062 80.5 16.4062C82.9844 16.4062 84.5703 18.1562 84.5625 20.7969C84.5703 23.4141 82.9844 25.1719 80.5 25.1719ZM78.4531 20.7812C78.4531 22.3359 79.1328 23.5781 80.5156 23.5781C81.875 23.5781 82.5547 22.3359 82.5469 20.7812C82.5547 19.2266 81.875 17.9766 80.5156 17.9844C79.1328 17.9766 78.4531 19.2266 78.4531 20.7812ZM20.6719 33.6875L23.6094 42.6094H23.7344L26.6875 33.6875H28.9219L24.9219 45H22.4219L18.4375 33.6875H20.6719ZM30.1719 45V36.5156H32.1719V45H30.1719ZM30.0312 34.2188C30.0312 33.625 30.5547 33.1406 31.1875 33.1406C31.8203 33.1406 32.3438 33.625 32.3438 34.2188C32.3438 34.8203 31.8203 35.3047 31.1875 35.3125C30.5547 35.3047 30.0312 34.8203 30.0312 34.2188ZM37.8438 45.1719C35.2891 45.1719 33.7188 43.4688 33.7188 40.8125C33.7188 38.1875 35.3125 36.4062 37.7344 36.4062C39.8125 36.4062 41.6094 37.7109 41.6094 40.6875V41.3125H35.6875C35.7188 42.7578 36.5703 43.6172 37.8594 43.6094C38.7344 43.6172 39.3203 43.2422 39.5781 42.7344H41.5312C41.1719 44.2031 39.8125 45.1719 37.8438 45.1719ZM35.6953 39.9531H39.7031C39.6953 38.7969 38.9141 37.9531 37.7656 37.9531C36.5703 37.9531 35.7656 38.875 35.6953 39.9531ZM44.875 45L42.4688 36.5156H44.5L46 42.4844H46.0781L47.5938 36.5156H49.6094L51.1406 42.4531H51.2188L52.7031 36.5156H54.7344L52.3281 45H50.25L48.6562 39.25H48.5469L46.9531 45H44.875ZM67.5156 37.5C67.2734 36.1406 66.1875 35.3594 64.8125 35.3594C62.9609 35.3594 61.6484 36.7812 61.6562 39.3438C61.6484 41.9453 62.9688 43.3281 64.8125 43.3281C66.1562 43.3281 67.2422 42.5781 67.5156 41.25H69.5625C69.25 43.4219 67.4609 45.1562 64.7812 45.1562C61.7969 45.1562 59.6016 42.9922 59.6094 39.3438C59.6016 35.6875 61.8203 33.5312 64.7812 33.5312C67.2812 33.5312 69.2109 34.9844 69.5625 37.5H67.5156ZM70.8281 42.6094C70.8281 40.7031 72.4141 40.1484 73.9844 40.0469C74.5781 40 75.7891 39.9453 76.1641 39.9297L76.1562 39.25C76.1562 38.4062 75.6172 37.9219 74.625 37.9219C73.7344 37.9219 73.1875 38.3281 73.0312 38.9375H71.1094C71.25 37.4922 72.5469 36.4062 74.6719 36.4062C76.2812 36.4062 78.1406 37.0703 78.1406 39.3281V45H76.2344V43.8281H76.1719C75.7969 44.5469 75.0078 45.1719 73.6719 45.1719C72.0547 45.1719 70.8281 44.2891 70.8281 42.6094ZM72.75 42.5938C72.75 43.3281 73.3516 43.7031 74.1875 43.7031C75.3984 43.7031 76.1719 42.9062 76.1719 41.9531L76.1641 41.2578C75.8047 41.2734 74.6953 41.3438 74.2969 41.375C73.3516 41.4531 72.75 41.8516 72.75 42.5938ZM80.0156 45V36.5156H81.9531V37.9219H82.0469C82.3516 36.9453 83.1641 36.3906 84.1406 36.3906C84.3594 36.3906 84.6719 36.4141 84.8594 36.4375V38.2812C84.6797 38.2188 84.2656 38.1641 83.9375 38.1562C82.8281 38.1641 82.0156 38.9297 82.0156 40V45H80.0156ZM88.9219 45.1562C86.9297 45.1484 85.4219 43.5547 85.4219 40.7656C85.4219 37.9375 86.9688 36.4062 88.9375 36.4062C90.4297 36.4062 91.0547 37.3047 91.3594 37.9062H91.4375V33.6875H93.4219V45H91.4688V43.6562H91.3594C91.0391 44.2812 90.3906 45.1484 88.9219 45.1562ZM87.4531 40.75C87.4531 42.3516 88.1562 43.5156 89.4688 43.5156C90.7578 43.5156 91.4844 42.4062 91.4844 40.75C91.4844 39.1016 90.7656 38.0391 89.4688 38.0312C88.1406 38.0391 87.4531 39.1719 87.4531 40.75ZM100.25 38.9375C100.125 38.2969 99.5938 37.8828 98.75 37.8906C97.8984 37.8828 97.2734 38.3125 97.2812 38.8906C97.2734 39.3281 97.625 39.6562 98.4844 39.8594L99.9219 40.1562C101.523 40.5078 102.305 41.25 102.312 42.4688C102.305 44.0625 100.906 45.1719 98.6875 45.1719C96.5312 45.1719 95.2578 44.2031 95.0469 42.5781H97.0781C97.1953 43.3047 97.7578 43.6641 98.6875 43.6562C99.6484 43.6641 100.273 43.2734 100.281 42.6406C100.273 42.1484 99.8906 41.8359 99.0469 41.6562L97.6875 41.3594C96.1094 41.0391 95.2891 40.2109 95.2969 39C95.2891 37.4297 96.6484 36.4062 98.7188 36.4062C100.742 36.4062 101.992 37.3984 102.141 38.9375H100.25Z" fill="#111111"/>
</svg>
