<svg width="121" height="63" viewBox="0 0 121 63" fill="none" xmlns="http://www.w3.org/2000/svg">
<path d="M89.4708 1C84.2261 1 79.291 2.31741 74.9854 4.64283C70.6797 2.31741 65.7447 1 60.5 1C55.2553 1 50.3203 2.31741 46.0146 4.64283C41.709 2.31741 36.7739 1 31.5292 1C14.6662 1 1 14.6531 1 31.5C1 48.3469 14.6662 62 31.5292 62C36.7739 62 41.709 60.6826 46.0146 58.3572C50.3203 60.6826 55.2553 62 60.5 62C65.7447 62 70.6797 60.6826 74.9854 58.3572C79.291 60.6826 84.2261 62 89.4708 62C106.334 62 120 48.3469 120 31.5C120 14.6531 106.324 1 89.4708 1Z" fill="#F1F1F1" stroke="#111111" stroke-miterlimit="10"/>
<path d="M36.3906 16.3906V14.6875H45.4062V16.3906H41.9219V26H39.8906V16.3906H36.3906ZM45.3594 23.6094C45.3594 21.7031 46.9453 21.1484 48.5156 21.0469C49.1094 21 50.3203 20.9453 50.6953 20.9297L50.6875 20.25C50.6875 19.4062 50.1484 18.9219 49.1562 18.9219C48.2656 18.9219 47.7188 19.3281 47.5625 19.9375H45.6406C45.7812 18.4922 47.0781 17.4062 49.2031 17.4062C50.8125 17.4062 52.6719 18.0703 52.6719 20.3281V26H50.7656V24.8281H50.7031C50.3281 25.5469 49.5391 26.1719 48.2031 26.1719C46.5859 26.1719 45.3594 25.2891 45.3594 23.6094ZM47.2812 23.5938C47.2812 24.3281 47.8828 24.7031 48.7188 24.7031C49.9297 24.7031 50.7031 23.9062 50.7031 22.9531L50.6953 22.2578C50.3359 22.2734 49.2266 22.3438 48.8281 22.375C47.8828 22.4531 47.2812 22.8516 47.2812 23.5938ZM54.5469 29.1875V17.5156H56.5V18.9062H56.625C56.9297 18.3047 57.5547 17.4062 59.0625 17.4062C61.0156 17.4062 62.5547 18.9375 62.5625 21.7656C62.5547 24.5547 61.0625 26.1484 59.0625 26.1562C57.6016 26.1484 56.9375 25.2812 56.625 24.6562H56.5469V29.1875H54.5469ZM56.5 21.75C56.5078 23.4062 57.2266 24.5156 58.5156 24.5156C59.8359 24.5156 60.5312 23.3516 60.5312 21.75C60.5312 20.1719 59.8516 19.0391 58.5156 19.0312C57.2109 19.0391 56.5078 20.1016 56.5 21.75ZM67.5156 16.3906V14.6875H76.5312V16.3906H73.0469V26H71.0156V16.3906H67.5156ZM80.5 26.1719C78.0234 26.1719 76.4375 24.4141 76.4375 21.7969C76.4375 19.1562 78.0234 17.4062 80.5 17.4062C82.9844 17.4062 84.5703 19.1562 84.5625 21.7969C84.5703 24.4141 82.9844 26.1719 80.5 26.1719ZM78.4531 21.7812C78.4531 23.3359 79.1328 24.5781 80.5156 24.5781C81.875 24.5781 82.5547 23.3359 82.5469 21.7812C82.5547 20.2266 81.875 18.9766 80.5156 18.9844C79.1328 18.9766 78.4531 20.2266 78.4531 21.7812ZM20.6719 34.6875L23.6094 43.6094H23.7344L26.6875 34.6875H28.9219L24.9219 46H22.4219L18.4375 34.6875H20.6719ZM30.1719 46V37.5156H32.1719V46H30.1719ZM30.0312 35.2188C30.0312 34.625 30.5547 34.1406 31.1875 34.1406C31.8203 34.1406 32.3438 34.625 32.3438 35.2188C32.3438 35.8203 31.8203 36.3047 31.1875 36.3125C30.5547 36.3047 30.0312 35.8203 30.0312 35.2188ZM37.8438 46.1719C35.2891 46.1719 33.7188 44.4688 33.7188 41.8125C33.7188 39.1875 35.3125 37.4062 37.7344 37.4062C39.8125 37.4062 41.6094 38.7109 41.6094 41.6875V42.3125H35.6875C35.7188 43.7578 36.5703 44.6172 37.8594 44.6094C38.7344 44.6172 39.3203 44.2422 39.5781 43.7344H41.5312C41.1719 45.2031 39.8125 46.1719 37.8438 46.1719ZM35.6953 40.9531H39.7031C39.6953 39.7969 38.9141 38.9531 37.7656 38.9531C36.5703 38.9531 35.7656 39.875 35.6953 40.9531ZM44.875 46L42.4688 37.5156H44.5L46 43.4844H46.0781L47.5938 37.5156H49.6094L51.1406 43.4531H51.2188L52.7031 37.5156H54.7344L52.3281 46H50.25L48.6562 40.25H48.5469L46.9531 46H44.875ZM67.5156 38.5C67.2734 37.1406 66.1875 36.3594 64.8125 36.3594C62.9609 36.3594 61.6484 37.7812 61.6562 40.3438C61.6484 42.9453 62.9688 44.3281 64.8125 44.3281C66.1562 44.3281 67.2422 43.5781 67.5156 42.25H69.5625C69.25 44.4219 67.4609 46.1562 64.7812 46.1562C61.7969 46.1562 59.6016 43.9922 59.6094 40.3438C59.6016 36.6875 61.8203 34.5312 64.7812 34.5312C67.2812 34.5312 69.2109 35.9844 69.5625 38.5H67.5156ZM70.8281 43.6094C70.8281 41.7031 72.4141 41.1484 73.9844 41.0469C74.5781 41 75.7891 40.9453 76.1641 40.9297L76.1562 40.25C76.1562 39.4062 75.6172 38.9219 74.625 38.9219C73.7344 38.9219 73.1875 39.3281 73.0312 39.9375H71.1094C71.25 38.4922 72.5469 37.4062 74.6719 37.4062C76.2812 37.4062 78.1406 38.0703 78.1406 40.3281V46H76.2344V44.8281H76.1719C75.7969 45.5469 75.0078 46.1719 73.6719 46.1719C72.0547 46.1719 70.8281 45.2891 70.8281 43.6094ZM72.75 43.5938C72.75 44.3281 73.3516 44.7031 74.1875 44.7031C75.3984 44.7031 76.1719 43.9062 76.1719 42.9531L76.1641 42.2578C75.8047 42.2734 74.6953 42.3438 74.2969 42.375C73.3516 42.4531 72.75 42.8516 72.75 43.5938ZM80.0156 46V37.5156H81.9531V38.9219H82.0469C82.3516 37.9453 83.1641 37.3906 84.1406 37.3906C84.3594 37.3906 84.6719 37.4141 84.8594 37.4375V39.2812C84.6797 39.2188 84.2656 39.1641 83.9375 39.1562C82.8281 39.1641 82.0156 39.9297 82.0156 41V46H80.0156ZM88.9219 46.1562C86.9297 46.1484 85.4219 44.5547 85.4219 41.7656C85.4219 38.9375 86.9688 37.4062 88.9375 37.4062C90.4297 37.4062 91.0547 38.3047 91.3594 38.9062H91.4375V34.6875H93.4219V46H91.4688V44.6562H91.3594C91.0391 45.2812 90.3906 46.1484 88.9219 46.1562ZM87.4531 41.75C87.4531 43.3516 88.1562 44.5156 89.4688 44.5156C90.7578 44.5156 91.4844 43.4062 91.4844 41.75C91.4844 40.1016 90.7656 39.0391 89.4688 39.0312C88.1406 39.0391 87.4531 40.1719 87.4531 41.75ZM100.25 39.9375C100.125 39.2969 99.5938 38.8828 98.75 38.8906C97.8984 38.8828 97.2734 39.3125 97.2812 39.8906C97.2734 40.3281 97.625 40.6562 98.4844 40.8594L99.9219 41.1562C101.523 41.5078 102.305 42.25 102.312 43.4688C102.305 45.0625 100.906 46.1719 98.6875 46.1719C96.5312 46.1719 95.2578 45.2031 95.0469 43.5781H97.0781C97.1953 44.3047 97.7578 44.6641 98.6875 44.6562C99.6484 44.6641 100.273 44.2734 100.281 43.6406C100.273 43.1484 99.8906 42.8359 99.0469 42.6562L97.6875 42.3594C96.1094 42.0391 95.2891 41.2109 95.2969 40C95.2891 38.4297 96.6484 37.4062 98.7188 37.4062C100.742 37.4062 101.992 38.3984 102.141 39.9375H100.25Z" fill="#111111"/>
</svg>
