<svg width="320" height="320" viewBox="0 0 320 320" fill="none" xmlns="http://www.w3.org/2000/svg">
<g filter="url(#filter0_d_621_555)">
<g clip-path="url(#clip0_621_555)">
<rect x="16" y="16" width="288" height="288" rx="4" fill="white"/>
<rect x="16" y="184" width="288" height="120" fill="url(#paint0_linear_621_555)"/>
<rect x="304" y="184" width="288" height="168" transform="rotate(-180 304 184)" fill="url(#paint1_linear_621_555)"/>
<path fill-rule="evenodd" clip-rule="evenodd" d="M64 64C90.5097 64 112 42.5097 112 16C112 42.5097 133.49 64 160 64C133.49 64 112 85.4903 112 112C112 85.4903 90.5097 64 64 64ZM208 112C208 85.4903 186.51 64 160 64C186.51 64 208 42.5097 208 16C208 42.5097 229.49 64 256 64C229.49 64 208 85.4903 208 112ZM208 112C208 138.51 229.49 160 256 160C282.51 160 304 138.51 304 112C304 85.4903 282.51 64 256 64C282.51 64 304 42.5097 304 16C304 -10.5097 282.51 -32 256 -32C229.49 -32 208 -10.5097 208 16C208 -10.5097 186.51 -32 160 -32C133.49 -32 112 -10.5097 112 16C112 -10.5097 90.5097 -32 64 -32C37.4903 -32 16 -10.5097 16 16C16 42.5097 37.4903 64 64 64C37.4903 64 16 85.4903 16 112C16 138.51 37.4903 160 64 160C90.5097 160 112 138.51 112 112C112 138.51 133.49 160 160 160C186.51 160 208 138.51 208 112Z" fill="url(#paint2_linear_621_555)" fill-opacity="0.5"/>
</g>
</g>
<defs>
<filter id="filter0_d_621_555" x="0" y="0" width="320" height="320" filterUnits="userSpaceOnUse" color-interpolation-filters="sRGB">
<feFlood flood-opacity="0" result="BackgroundImageFix"/>
<feColorMatrix in="SourceAlpha" type="matrix" values="0 0 0 0 0 0 0 0 0 0 0 0 0 0 0 0 0 0 127 0" result="hardAlpha"/>
<feOffset/>
<feGaussianBlur stdDeviation="8"/>
<feComposite in2="hardAlpha" operator="out"/>
<feColorMatrix type="matrix" values="0 0 0 0 0.0666667 0 0 0 0 0.0666667 0 0 0 0 0.0666667 0 0 0 0.05 0"/>
<feBlend mode="normal" in2="BackgroundImageFix" result="effect1_dropShadow_621_555"/>
<feBlend mode="normal" in="SourceGraphic" in2="effect1_dropShadow_621_555" result="shape"/>
</filter>
<linearGradient id="paint0_linear_621_555" x1="160" y1="184" x2="160" y2="304" gradientUnits="userSpaceOnUse">
<stop stop-color="white" stop-opacity="0"/>
<stop offset="1" stop-color="#E2C098" stop-opacity="0.5"/>
<stop offset="1" stop-color="#E2C098" stop-opacity="0.5"/>
</linearGradient>
<linearGradient id="paint1_linear_621_555" x1="448" y1="184" x2="448" y2="352" gradientUnits="userSpaceOnUse">
<stop stop-color="white" stop-opacity="0"/>
<stop offset="1" stop-color="#E2C098" stop-opacity="0.5"/>
<stop offset="1" stop-color="#E2C098" stop-opacity="0.5"/>
</linearGradient>
<linearGradient id="paint2_linear_621_555" x1="160" y1="16" x2="160" y2="160" gradientUnits="userSpaceOnUse">
<stop stop-color="#FF86E7"/>
<stop offset="1" stop-color="white" stop-opacity="0"/>
<stop offset="1" stop-color="white" stop-opacity="0"/>
</linearGradient>
<clipPath id="clip0_621_555">
<rect x="16" y="16" width="288" height="288" rx="4" fill="white"/>
</clipPath>
</defs>
</svg>
