<svg width="320" height="320" viewBox="0 0 320 320" fill="none" xmlns="http://www.w3.org/2000/svg">
<g filter="url(#filter0_d_621_533)">
<g clip-path="url(#clip0_621_533)">
<rect x="16" y="16" width="288" height="288" rx="4" fill="white"/>
<rect x="16" y="184" width="288" height="120" fill="url(#paint0_linear_621_533)"/>
<rect x="304" y="184" width="288" height="168" transform="rotate(-180 304 184)" fill="url(#paint1_linear_621_533)"/>
<rect x="16" y="184" width="288" height="120" fill="url(#paint2_linear_621_533)"/>
<rect x="304" y="184" width="288" height="168" transform="rotate(-180 304 184)" fill="url(#paint3_linear_621_533)"/>
<path fill-rule="evenodd" clip-rule="evenodd" d="M42.5877 60C58.8651 60 63.9797 47.0943 63.9797 47.0943C63.9797 47.0943 69.0943 60 85.3717 60C101.649 60 112 47.486 112 28.9314C112 10.3769 93.6321 -17.3519 64 -29C34.3679 -17.3519 16 10.3769 16 28.9314C16 47.486 26.3104 60 42.5877 60ZM159.98 47.0943C159.98 47.0943 154.865 60 138.588 60C122.31 60 112 47.486 112 28.9314C112 10.3769 130.368 -17.3519 160 -29C189.632 -17.3519 208 10.3769 208 28.9314C208 47.486 197.649 60 181.372 60C165.094 60 159.98 47.0943 159.98 47.0943ZM255.98 47.0943C255.98 47.0943 250.865 60 234.588 60C218.31 60 208 47.486 208 28.9314C208 10.3769 226.368 -17.3519 256 -29C285.632 -17.3519 304 10.3769 304 28.9314C304 47.486 293.649 60 277.372 60C261.094 60 255.98 47.0943 255.98 47.0943ZM64.0203 72.9057C64.0203 72.9057 69.1349 60 85.4123 60C101.69 60 112 72.514 112 91.0686C112 109.623 93.6321 137.352 64 149C34.3679 137.352 16 109.623 16 91.0686C16 72.514 26.351 60 42.6283 60C58.9057 60 64.0203 72.9057 64.0203 72.9057ZM181.412 60C165.135 60 160.02 72.9057 160.02 72.9057C160.02 72.9057 154.906 60 138.628 60C122.351 60 112 72.514 112 91.0686C112 109.623 130.368 137.352 160 149C189.632 137.352 208 109.623 208 91.0686C208 109.623 226.368 137.352 256 149C285.632 137.352 304 109.623 304 91.0686C304 72.514 293.69 60 277.412 60C261.135 60 256.02 72.9057 256.02 72.9057C256.02 72.9057 250.906 60 234.628 60C218.351 60 208 72.514 208 91.0686C208 72.514 197.69 60 181.412 60Z" fill="url(#paint4_linear_621_533)" fill-opacity="0.5"/>
</g>
</g>
<defs>
<filter id="filter0_d_621_533" x="0" y="0" width="320" height="320" filterUnits="userSpaceOnUse" color-interpolation-filters="sRGB">
<feFlood flood-opacity="0" result="BackgroundImageFix"/>
<feColorMatrix in="SourceAlpha" type="matrix" values="0 0 0 0 0 0 0 0 0 0 0 0 0 0 0 0 0 0 127 0" result="hardAlpha"/>
<feOffset/>
<feGaussianBlur stdDeviation="8"/>
<feComposite in2="hardAlpha" operator="out"/>
<feColorMatrix type="matrix" values="0 0 0 0 0.0666667 0 0 0 0 0.0666667 0 0 0 0 0.0666667 0 0 0 0.05 0"/>
<feBlend mode="normal" in2="BackgroundImageFix" result="effect1_dropShadow_621_533"/>
<feBlend mode="normal" in="SourceGraphic" in2="effect1_dropShadow_621_533" result="shape"/>
</filter>
<linearGradient id="paint0_linear_621_533" x1="160" y1="184" x2="160" y2="304" gradientUnits="userSpaceOnUse">
<stop stop-color="white" stop-opacity="0"/>
<stop offset="1" stop-color="#C8EF9D" stop-opacity="0.5"/>
</linearGradient>
<linearGradient id="paint1_linear_621_533" x1="448" y1="184" x2="448" y2="352" gradientUnits="userSpaceOnUse">
<stop stop-color="white" stop-opacity="0"/>
<stop offset="1" stop-color="#C8EF9D" stop-opacity="0.5"/>
</linearGradient>
<linearGradient id="paint2_linear_621_533" x1="160" y1="184" x2="160" y2="304" gradientUnits="userSpaceOnUse">
<stop stop-color="white" stop-opacity="0"/>
<stop offset="1" stop-color="#C8EF9D" stop-opacity="0.5"/>
</linearGradient>
<linearGradient id="paint3_linear_621_533" x1="448" y1="184" x2="448" y2="352" gradientUnits="userSpaceOnUse">
<stop stop-color="white" stop-opacity="0"/>
<stop offset="1" stop-color="#C8EF9D" stop-opacity="0.5"/>
</linearGradient>
<linearGradient id="paint4_linear_621_533" x1="160" y1="16" x2="160" y2="154.5" gradientUnits="userSpaceOnUse">
<stop stop-color="#FE6CBB"/>
<stop offset="1" stop-color="white" stop-opacity="0"/>
</linearGradient>
<clipPath id="clip0_621_533">
<rect x="16" y="16" width="288" height="288" rx="4" fill="white"/>
</clipPath>
</defs>
</svg>
