<svg width="320" height="320" viewBox="0 0 320 320" fill="none" xmlns="http://www.w3.org/2000/svg">
<g filter="url(#filter0_d_621_575)">
<g clip-path="url(#clip0_621_575)">
<rect x="16" y="16" width="288" height="288" rx="4" fill="white"/>
<rect x="16" y="184" width="288" height="120" fill="url(#paint0_linear_621_575)"/>
<rect x="304" y="184" width="288" height="168" transform="rotate(-180 304 184)" fill="url(#paint1_linear_621_575)"/>
<path fill-rule="evenodd" clip-rule="evenodd" d="M64 63L16 15L-32 63L16 111L64 63ZM160 63L112 15L64 63L112 111L160 63ZM256 63L208 111L160 63L208 15L256 63ZM256 63L304 15L352 63L304 111L256 63Z" fill="url(#paint2_linear_621_575)" fill-opacity="0.5"/>
<path fill-rule="evenodd" clip-rule="evenodd" d="M112 15L64 -33L16 15L64 63L16 111L64 159L112 111L160 159L208 111L256 159L304 111L256 63L304 15L256 -33L208 15L160 -33L112 15ZM160 63L208 15L256 63L208 111L160 63ZM160 63L112 15L64 63L112 111L160 63Z" fill="url(#paint3_linear_621_575)" fill-opacity="0.5"/>
</g>
</g>
<defs>
<filter id="filter0_d_621_575" x="0" y="0" width="320" height="320" filterUnits="userSpaceOnUse" color-interpolation-filters="sRGB">
<feFlood flood-opacity="0" result="BackgroundImageFix"/>
<feColorMatrix in="SourceAlpha" type="matrix" values="0 0 0 0 0 0 0 0 0 0 0 0 0 0 0 0 0 0 127 0" result="hardAlpha"/>
<feOffset/>
<feGaussianBlur stdDeviation="8"/>
<feComposite in2="hardAlpha" operator="out"/>
<feColorMatrix type="matrix" values="0 0 0 0 0.0666667 0 0 0 0 0.0666667 0 0 0 0 0.0666667 0 0 0 0.05 0"/>
<feBlend mode="normal" in2="BackgroundImageFix" result="effect1_dropShadow_621_575"/>
<feBlend mode="normal" in="SourceGraphic" in2="effect1_dropShadow_621_575" result="shape"/>
</filter>
<linearGradient id="paint0_linear_621_575" x1="160" y1="184" x2="160" y2="304" gradientUnits="userSpaceOnUse">
<stop stop-color="white" stop-opacity="0"/>
<stop offset="1" stop-color="#B4DEF5" stop-opacity="0.5"/>
</linearGradient>
<linearGradient id="paint1_linear_621_575" x1="448" y1="184" x2="448" y2="352" gradientUnits="userSpaceOnUse">
<stop stop-color="white" stop-opacity="0"/>
<stop offset="1" stop-color="#B4DEF5" stop-opacity="0.5"/>
</linearGradient>
<linearGradient id="paint2_linear_621_575" x1="160" y1="15" x2="160" y2="111" gradientUnits="userSpaceOnUse">
<stop stop-color="#B4DEF5"/>
<stop offset="0.9999" stop-color="#FFF3F6"/>
</linearGradient>
<linearGradient id="paint3_linear_621_575" x1="160" y1="16" x2="160" y2="159" gradientUnits="userSpaceOnUse">
<stop stop-color="#FF86A5"/>
<stop offset="1" stop-color="white" stop-opacity="0"/>
</linearGradient>
<clipPath id="clip0_621_575">
<rect x="16" y="16" width="288" height="288" rx="4" fill="white"/>
</clipPath>
</defs>
</svg>
