<svg width="320" height="320" viewBox="0 0 320 320" fill="none" xmlns="http://www.w3.org/2000/svg">
<g filter="url(#filter0_d_382_515)">
<g clip-path="url(#clip0_382_515)">
<rect x="16" y="16" width="288" height="288" rx="4" fill="white"/>
<rect x="16" y="184" width="288" height="120" fill="url(#paint0_linear_382_515)"/>
<rect x="304" y="184" width="288" height="168" transform="rotate(-180 304 184)" fill="url(#paint1_linear_382_515)"/>
<path fill-rule="evenodd" clip-rule="evenodd" d="M286.565 -34.9269C274.166 -26.8129 256 -9.17186 256 15.4081C256 39.839 273.595 57.2971 286.187 65.5436C286.757 65.9172 287.357 66.1919 287.968 66.3718C287.487 66.5443 287.016 66.7776 286.565 67.0731C274.166 75.1871 256 92.8281 256 117.408C256 141.839 273.595 159.297 286.187 167.544C289.441 169.675 293.655 168.587 295.277 165.052C299.279 156.331 304 140.216 304 117.408C304 94.2255 299.415 77.8603 295.273 69.2762C294.531 67.7383 293.276 66.7192 291.836 66.2672C293.292 65.7379 294.547 64.6427 295.277 63.0519C299.279 54.3305 304 38.2162 304 15.4081C304 -7.7745 299.415 -24.1397 295.273 -32.7238C293.666 -36.0532 289.658 -36.9513 286.565 -34.9269ZM225.435 66.7431C237.834 58.6292 256 40.9881 256 16.4081C256 -8.02275 238.405 -25.4809 225.813 -33.7274C222.559 -35.8584 218.345 -34.7709 216.723 -31.2357C212.721 -22.5143 208 -6.39996 208 16.4081C208 39.5907 212.585 55.9559 216.727 64.54C217.469 66.0779 218.724 67.097 220.164 67.549C218.708 68.0783 217.453 69.1735 216.723 70.7643C212.721 79.4857 208 95.6 208 118.408C208 141.591 212.585 157.956 216.727 166.54C218.334 169.869 222.342 170.768 225.435 168.743C237.834 160.629 256 142.988 256 118.408C256 93.9772 238.405 76.5191 225.813 68.2726C225.243 67.899 224.643 67.6243 224.032 67.4444C224.513 67.2719 224.984 67.0387 225.435 66.7431ZM64 16.4081C64 -8.17186 82.1664 -25.8129 94.5648 -33.9269C97.6582 -35.9513 101.666 -35.0532 103.273 -31.7238C107.415 -23.1397 112 -6.7745 112 16.4081C112 39.2162 107.279 55.3305 103.277 64.0519C102.547 65.6427 101.292 66.7379 99.8361 67.2672C101.276 67.7192 102.531 68.7383 103.273 70.2762C107.415 78.8603 112 95.2255 112 118.408C112 141.216 107.279 157.331 103.277 166.052C101.655 169.587 97.4407 170.675 94.1868 168.544C81.5948 160.297 64 142.839 64 118.408C64 93.8281 82.1664 76.1871 94.5648 68.0731C95.0164 67.7776 95.4874 67.5443 95.9677 67.3718C95.3573 67.1919 94.7573 66.9172 94.1868 66.5436C81.5948 58.2971 64 40.839 64 16.4081ZM33.8132 68.2726C46.4052 76.5191 64 93.9772 64 118.408C64 142.988 45.8336 160.629 33.4352 168.743C30.3418 170.768 26.334 169.869 24.7273 166.54C20.5848 157.956 16 141.591 16 118.408C16 95.6 20.7211 79.4857 24.7232 70.7643C25.4531 69.1735 26.7079 68.0783 28.1639 67.549C26.7239 67.097 25.4694 66.0779 24.7273 64.54C20.5848 55.9559 16 39.5907 16 16.4081C16 -6.39996 20.7211 -22.5143 24.7232 -31.2357C26.3454 -34.7709 30.5593 -35.8584 33.8132 -33.7274C46.4052 -25.4809 64 -8.02275 64 16.4081C64 40.9881 45.8336 58.6292 33.4352 66.7431C32.9836 67.0387 32.5126 67.2719 32.0324 67.4444C32.6427 67.6243 33.2427 67.899 33.8132 68.2726ZM160 15.4081C160 -9.17186 178.166 -26.8129 190.565 -34.9269C193.658 -36.9513 197.666 -36.0532 199.273 -32.7238C203.415 -24.1397 208 -7.7745 208 15.4081C208 38.2162 203.279 54.3305 199.277 63.0519C198.547 64.6427 197.292 65.7379 195.836 66.2672C197.276 66.7192 198.531 67.7383 199.273 69.2762C203.415 77.8603 208 94.2255 208 117.408C208 140.216 203.279 156.331 199.277 165.052C197.655 168.587 193.441 169.675 190.187 167.544C177.595 159.297 160 141.839 160 117.408C160 92.8281 178.166 75.1871 190.565 67.0731C191.016 66.7776 191.487 66.5443 191.968 66.3718C191.357 66.1919 190.757 65.9172 190.187 65.5436C177.595 57.2971 160 39.839 160 15.4081ZM124.164 66.549C122.724 66.097 121.469 65.0779 120.727 63.54C116.585 54.9559 112 38.5907 112 15.4081C112 -7.39996 116.721 -23.5143 120.723 -32.2357C122.345 -35.7709 126.559 -36.8584 129.813 -34.7274C142.405 -26.4809 160 -9.02275 160 15.4081C160 39.9881 141.834 57.6292 129.435 65.7431C128.984 66.0387 128.513 66.2719 128.032 66.4444C128.643 66.6243 129.243 66.899 129.813 67.2726C142.405 75.5191 160 92.9772 160 117.408C160 141.988 141.834 159.629 129.435 167.743C126.342 169.768 122.334 168.869 120.727 165.54C116.585 156.956 112 140.591 112 117.408C112 94.6 116.721 78.4857 120.723 69.7643C121.453 68.1735 122.708 67.0783 124.164 66.549Z" fill="url(#paint2_linear_382_515)"/>
<path d="M225.333 279V283.667H220.667V288.333H216V293H220.667H225.333H230V288.333V283.667V279H225.333Z" fill="#111111"/>
<path d="M256.572 287.435L258 287.058L262 286L258 284.942L256.572 284.565L256.623 284.471L258.152 281.848L255.529 283.377L255.435 283.435L255.058 282L254 278L252.942 282L252.565 283.435L252.471 283.377L249.848 281.848L251.377 284.471L251.435 284.565L250 284.942L246 286L250 287.058L251.435 287.435L251.377 287.529L249.848 290.152L252.471 288.623L252.565 288.572L252.942 290L254 294L255.058 290L255.435 288.572L255.529 288.623L258.152 290.152L256.623 287.529L256.572 287.435Z" fill="#111111"/>
<path d="M288 283.325V279H278V283.325H281.603V288.675H278V293H288V288.675H284.404V283.325H288Z" fill="#111111"/>
</g>
</g>
<defs>
<filter id="filter0_d_382_515" x="0" y="0" width="320" height="320" filterUnits="userSpaceOnUse" color-interpolation-filters="sRGB">
<feFlood flood-opacity="0" result="BackgroundImageFix"/>
<feColorMatrix in="SourceAlpha" type="matrix" values="0 0 0 0 0 0 0 0 0 0 0 0 0 0 0 0 0 0 127 0" result="hardAlpha"/>
<feOffset/>
<feGaussianBlur stdDeviation="8"/>
<feComposite in2="hardAlpha" operator="out"/>
<feColorMatrix type="matrix" values="0 0 0 0 0.0666667 0 0 0 0 0.0666667 0 0 0 0 0.0666667 0 0 0 0.05 0"/>
<feBlend mode="normal" in2="BackgroundImageFix" result="effect1_dropShadow_382_515"/>
<feBlend mode="normal" in="SourceGraphic" in2="effect1_dropShadow_382_515" result="shape"/>
</filter>
<linearGradient id="paint0_linear_382_515" x1="160" y1="184" x2="160" y2="304" gradientUnits="userSpaceOnUse">
<stop stop-color="white" stop-opacity="0"/>
<stop offset="1" stop-color="#D2D2D2"/>
</linearGradient>
<linearGradient id="paint1_linear_382_515" x1="448" y1="184" x2="448" y2="352" gradientUnits="userSpaceOnUse">
<stop stop-color="white" stop-opacity="0"/>
<stop offset="1" stop-color="#34F2FF"/>
</linearGradient>
<linearGradient id="paint2_linear_382_515" x1="160" y1="16" x2="160" y2="170" gradientUnits="userSpaceOnUse">
<stop stop-color="#D2D2D2"/>
<stop offset="1" stop-color="white" stop-opacity="0"/>
</linearGradient>
<clipPath id="clip0_382_515">
<rect x="16" y="16" width="288" height="288" rx="4" fill="white"/>
</clipPath>
</defs>
</svg>
