<svg width="164" height="19" viewBox="0 0 164 19" fill="none" xmlns="http://www.w3.org/2000/svg">
<path d="M11.92 0.671999V0.527999H16.192V0.671999C15.184 1.152 14.296 2.4 12.904 5.64L10.744 10.632V14.88C10.744 16.656 10.84 17.856 12.472 17.856V18H4.408V17.856C6.04 17.856 6.136 16.656 6.136 14.88V11.16L3.16 3.6C2.416 1.704 1.864 0.767999 0.88 0.671999V0.527999H9.112V0.671999C7.624 0.767999 7.312 1.68 7.792 2.952L10.504 10.056L12.472 5.496C13.84 2.304 13.648 1.104 11.92 0.671999ZM19.9778 18.288C16.1378 18.288 13.7378 15.792 13.7378 11.76C13.7378 7.776 16.2338 5.136 20.0258 5.136C23.8658 5.136 26.2658 7.632 26.2658 11.664C26.2658 15.648 23.7698 18.288 19.9778 18.288ZM20.0258 17.952C21.5138 17.952 21.6578 15.024 21.6578 11.712C21.6578 8.544 21.4658 5.472 19.9778 5.472C18.4898 5.472 18.3458 8.4 18.3458 11.712C18.3458 14.88 18.5378 17.952 20.0258 17.952ZM39.9846 5.184V14.832C39.9846 16.368 40.3926 17.04 41.2086 17.328V17.472L36.2166 18.288H36.1206L35.5926 16.008C34.4646 17.184 32.9526 18.288 31.2486 18.288C28.9686 18.288 28.0326 16.944 28.0326 14.544V8.064C28.0326 6.528 27.5766 5.952 26.7606 5.664V5.52L32.3526 5.184H32.4486V13.488C32.4486 15.12 32.6406 16.128 33.9846 16.128C34.4166 16.128 35.0406 15.984 35.5686 15.768V8.064C35.5686 6.528 35.1126 5.952 34.2966 5.664V5.52L39.8886 5.184H39.9846ZM51.985 9.024H56.617V9.504H51.985V14.304H51.457V9.504H46.825V9.024H51.457V4.224H51.985V9.024ZM80.7273 3.648L81.3513 14.88C81.4473 16.656 81.5433 17.856 83.1753 17.856V18H75.1833V17.856C76.8153 17.856 76.9113 16.656 76.8153 14.88L76.1432 2.64L71.1033 18H70.9113L65.0073 2.664L64.4793 12.48C64.3113 15.72 65.1273 17.76 66.7593 17.856V18H61.9592V17.856C63.4953 17.712 63.8793 15.696 64.0473 12.48L64.5273 3.312C64.6233 1.608 63.7593 0.863999 62.6073 0.671999V0.527999H69.0872L72.9513 10.968L76.3833 0.527999H82.4553V0.671999C80.8233 0.816 80.6313 1.872 80.7273 3.648ZM89.5894 5.136C92.8054 5.136 94.4854 7.248 94.3414 10.368H87.6694C87.7414 14.064 88.6294 16.224 91.1014 16.224C92.3014 16.224 93.4534 15.72 94.1974 14.664L94.3414 14.76C93.2854 16.68 91.7974 18.288 88.9894 18.288C85.1014 18.288 83.2534 15.264 83.2534 11.952C83.2534 8.208 85.7014 5.136 89.5894 5.136ZM89.4934 5.472C87.9334 5.472 87.6694 7.848 87.6694 9.984H90.6934C90.9094 7.224 90.8374 5.472 89.4934 5.472ZM109.89 7.776H100.098V7.296H109.89V7.776ZM109.89 11.232H100.098V10.752H109.89V11.232ZM127.905 18H115.641V17.856C117.273 17.856 117.369 16.656 117.369 14.88V3.648C117.369 1.872 117.273 0.671999 115.641 0.671999V0.527999H123.705V0.671999C122.073 0.671999 121.977 1.872 121.977 3.648V16.704C121.977 17.232 122.193 17.616 122.721 17.616H123.153C124.761 17.616 126.633 15.984 128.529 12.192H128.673L127.905 18ZM135.618 18.288C131.778 18.288 129.378 15.792 129.378 11.76C129.378 7.776 131.874 5.136 135.666 5.136C139.506 5.136 141.906 7.632 141.906 11.664C141.906 15.648 139.41 18.288 135.618 18.288ZM135.666 17.952C137.154 17.952 137.298 15.024 137.298 11.712C137.298 8.544 137.106 5.472 135.618 5.472C134.13 5.472 133.986 8.4 133.986 11.712C133.986 14.88 134.178 17.952 135.666 17.952ZM149.861 5.568V5.424H153.557V5.568C152.789 5.712 151.997 6.984 151.085 9.312L147.485 18.576H147.293L143.141 8.28C142.517 6.72 142.157 5.712 141.341 5.568V5.424H148.133V5.568C147.053 5.664 147.053 6.576 147.461 7.632L149.357 12.624L150.677 9.168C151.589 6.792 150.917 5.76 149.861 5.568ZM159.082 5.136C162.298 5.136 163.978 7.248 163.834 10.368H157.162C157.234 14.064 158.122 16.224 160.594 16.224C161.794 16.224 162.946 15.72 163.69 14.664L163.834 14.76C162.778 16.68 161.29 18.288 158.482 18.288C154.594 18.288 152.746 15.264 152.746 11.952C152.746 8.208 155.194 5.136 159.082 5.136ZM158.986 5.472C157.426 5.472 157.162 7.848 157.162 9.984H160.186C160.402 7.224 160.33 5.472 158.986 5.472Z" fill="#111111"/>
</svg>
