<svg width="174" height="20" viewBox="0 0 174 20" fill="none" xmlns="http://www.w3.org/2000/svg">
<path d="M19.168 1.672V1.528H23.44V1.672C22.432 2.152 21.352 3.832 20.488 6.784L16.72 19.576H16.528L12.256 6.304L7.84 19.576H7.648L2.824 4.6C2.224 2.704 1.624 1.768 0.64 1.672V1.528H8.584V1.672C7.336 1.768 6.928 2.68 7.336 3.952L9.88 12.064L12.016 5.56L11.704 4.6C11.104 2.704 10.504 1.768 9.664 1.672V1.528H17.656V1.672C16.168 1.768 15.808 2.632 16.216 3.952L18.592 11.56L20.032 6.64C20.872 3.736 20.896 2.104 19.168 1.672ZM26.5129 4.84C25.2169 4.84 24.1849 3.808 24.1849 2.512C24.1849 1.264 25.2169 0.231998 26.5129 0.231998C27.7609 0.231998 28.7929 1.264 28.7929 2.512C28.7929 3.808 27.7609 4.84 26.5129 4.84ZM29.8489 19H23.3209V18.856C24.3049 18.856 24.3769 18.04 24.3769 16.504V9.64C24.3769 8.104 23.9689 7.672 23.1529 7.384V7.24L28.6969 6.184H28.7929V16.504C28.7929 18.04 28.8649 18.856 29.8489 18.856V19ZM34.5483 19.288C33.4443 19.288 31.8603 19.096 30.9003 18.712L30.6843 14.872H30.8283C31.8843 16.792 32.9643 18.952 35.1003 18.952C36.2523 18.952 37.2122 18.352 37.2122 17.2C37.2122 16 36.1803 15.52 34.6203 14.704L33.6603 14.2C32.7963 13.744 30.9003 12.808 30.9003 10.312C30.9003 7.624 33.0843 6.136 35.7243 6.136C36.6843 6.136 38.2923 6.328 39.3003 6.664V9.88H39.1563C38.2443 8.176 37.0683 6.472 35.3643 6.472C34.1883 6.472 33.6123 7.168 33.6123 8.032C33.6123 9.28 34.7643 9.784 35.5803 10.216L36.5403 10.72C38.1723 11.584 39.9243 12.448 39.9243 14.896C39.9243 17.632 37.7643 19.288 34.5483 19.288ZM53.7184 9.88V16.504C53.7184 18.04 53.7904 18.856 54.7744 18.856V19H48.2464V18.856C49.2304 18.856 49.3024 18.04 49.3024 16.504V10.936C49.3024 9.304 49.1104 8.296 47.7664 8.296C47.3344 8.296 46.7104 8.44 46.1824 8.656V16.504C46.1824 18.04 46.2544 18.856 47.2384 18.856V19H40.7104V18.856C41.6944 18.856 41.7664 18.04 41.7664 16.504V3.496C41.7664 1.96 41.3584 1.528 40.5424 1.24V1.096L46.0864 0.231998H46.1824V8.368C47.3104 7.216 48.8224 6.136 50.5024 6.136C52.7824 6.136 53.7184 7.48 53.7184 9.88ZM69.6934 1.672V1.528H73.9654V1.672C72.9574 2.152 72.0694 3.4 70.6774 6.64L68.5174 11.632V15.88C68.5174 17.656 68.6134 18.856 70.2454 18.856V19H62.1814V18.856C63.8134 18.856 63.9094 17.656 63.9094 15.88V12.16L60.9334 4.6C60.1894 2.704 59.6374 1.768 58.6534 1.672V1.528H66.8854V1.672C65.3974 1.768 65.0854 2.68 65.5654 3.952L68.2774 11.056L70.2454 6.496C71.6134 3.304 71.4214 2.104 69.6934 1.672ZM77.7513 19.288C73.9113 19.288 71.5113 16.792 71.5113 12.76C71.5113 8.776 74.0073 6.136 77.7993 6.136C81.6393 6.136 84.0393 8.632 84.0393 12.664C84.0393 16.648 81.5433 19.288 77.7513 19.288ZM77.7993 18.952C79.2873 18.952 79.4313 16.024 79.4313 12.712C79.4313 9.544 79.2393 6.472 77.7513 6.472C76.2633 6.472 76.1193 9.4 76.1193 12.712C76.1193 15.88 76.3113 18.952 77.7993 18.952ZM97.7581 6.184V15.832C97.7581 17.368 98.1661 18.04 98.9821 18.328V18.472L93.9901 19.288H93.8941L93.3661 17.008C92.2381 18.184 90.7261 19.288 89.0221 19.288C86.7421 19.288 85.8061 17.944 85.8061 15.544V9.064C85.8061 7.528 85.3501 6.952 84.5341 6.664V6.52L90.1261 6.184H90.2221V14.488C90.2221 16.12 90.4141 17.128 91.7581 17.128C92.1901 17.128 92.8141 16.984 93.3421 16.768V9.064C93.3421 7.528 92.8861 6.952 92.0701 6.664V6.52L97.6621 6.184H97.7581ZM115.686 17.008L115.83 17.104C115.446 17.872 114.342 19.288 112.326 19.288C110.502 19.288 110.07 18.232 109.974 17.344C109.206 18.448 107.814 19.288 106.398 19.288C104.694 19.288 103.566 18.28 103.566 16.648C103.566 14.824 104.862 13.6 107.646 12.832L109.758 12.256V11.032C109.758 10.36 109.758 7.96 107.526 7.96C106.038 7.96 104.814 9.016 104.19 10.216L104.046 10.144C104.838 7.648 106.974 6.136 109.662 6.136C112.398 6.136 114.03 7.768 114.03 10.6V15.832C114.03 16.816 114.03 17.512 114.774 17.512C115.254 17.512 115.542 17.176 115.686 17.008ZM108.87 17.56C109.158 17.56 109.47 17.44 109.758 17.176V12.592L109.326 12.784C107.886 13.408 107.55 14.032 107.55 15.472C107.55 16.816 108.198 17.56 108.87 17.56ZM132.452 19H120.188V18.856C121.82 18.856 121.916 17.656 121.916 15.88V4.648C121.916 2.872 121.82 1.672 120.188 1.672V1.528H128.252V1.672C126.62 1.672 126.524 2.872 126.524 4.648V17.704C126.524 18.232 126.74 18.616 127.268 18.616H127.7C129.308 18.616 131.18 16.984 133.076 13.192H133.22L132.452 19ZM146.555 6.184V15.832C146.555 17.368 146.963 18.04 147.779 18.328V18.472L142.787 19.288H142.691L142.163 17.008C141.035 18.184 139.523 19.288 137.819 19.288C135.539 19.288 134.603 17.944 134.603 15.544V9.064C134.603 7.528 134.147 6.952 133.331 6.664V6.52L138.923 6.184H139.019V14.488C139.019 16.12 139.211 17.128 140.555 17.128C140.987 17.128 141.611 16.984 142.139 16.768V9.064C142.139 7.528 141.683 6.952 140.867 6.664V6.52L146.459 6.184H146.555ZM154.145 19.288C150.305 19.288 148.457 16.264 148.457 12.952C148.457 9.184 150.905 6.136 154.793 6.136C156.569 6.136 158.057 7 159.065 8.056L157.361 10.528H157.217C156.881 8.56 156.281 6.472 154.793 6.472C153.257 6.472 152.873 8.608 152.873 11.248C152.873 14.848 153.929 17.128 156.089 17.128C157.457 17.128 158.561 16.408 159.161 15.472L159.305 15.568C158.273 17.56 156.929 19.288 154.145 19.288ZM165.104 0.231998V16.504C165.104 18.04 165.176 18.856 166.16 18.856V19H159.632V18.856C160.616 18.856 160.688 18.04 160.688 16.504V3.496C160.688 1.96 160.28 1.528 159.464 1.24V1.096L165.008 0.231998H165.104ZM168.632 9.832C171.8 16.264 173.264 18.664 173.648 18.856V19C172.808 19.096 171.44 19.096 170.816 19.096C168.32 19.096 167.96 18.136 165.464 12.28L167.384 10.432C168.416 9.448 168.944 8.56 168.944 7.6C168.944 7.024 168.56 6.616 167.96 6.568V6.424H173.264V6.568C172.472 6.688 170.648 8.032 168.632 9.832Z" fill="#111111"/>
</svg>
