<svg width="179" height="148" viewBox="0 0 179 148" fill="none" xmlns="http://www.w3.org/2000/svg">
<path d="M23.8485 47.4286V56.5714C21.0121 50.4762 7.43434 29.6508 1 20C5.41212 31.2762 28.8384 78.0317 40 100C35.2727 73.7905 27.2626 54.0317 23.8485 47.4286Z" fill="white" stroke="#111111" stroke-width="0.5"/>
<path d="M152.095 120.649C157.057 107.586 171.432 84.7732 178 75C175.373 84.501 163.77 108.897 158.297 119.907L166.689 129.186C160.826 136.521 157.378 140.403 151 147C154.795 138.39 159.392 132.278 161.216 130.299C158.005 127.033 153.797 122.505 152.095 120.649Z" fill="white" stroke="#111111" stroke-width="0.5"/>
<path d="M149.463 12.3548C146.82 15.9333 146.82 27.6093 147.15 33C153.758 23.3656 161.137 7.65233 164 1C160.3 4.02796 154.088 12.8136 151.445 16.828C151.181 16.0022 150.013 13.5018 149.463 12.3548Z" fill="white" stroke="#111111" stroke-width="0.5"/>
</svg>
