<svg width="202" height="20" viewBox="0 0 202 20" fill="none" xmlns="http://www.w3.org/2000/svg">
<path d="M9.456 19.288C3.936 19.288 0.576 15.832 0.576 10.312C0.576 4.96 4.368 1.24 9.456 1.24C11.568 1.24 13.536 1.912 14.688 2.488L14.832 7.168H14.688C13.464 4.24 11.856 1.576 9.36 1.576C6.384 1.576 5.472 5.248 5.472 10.24C5.472 15.328 6.624 18.952 9.36 18.952C11.856 18.952 13.536 16.216 15.072 12.856H15.216L14.64 18.184C13.488 18.664 11.568 19.288 9.456 19.288ZM27.9208 17.008L28.0648 17.104C27.6808 17.872 26.5768 19.288 24.5608 19.288C22.7368 19.288 22.3048 18.232 22.2088 17.344C21.4408 18.448 20.0488 19.288 18.6328 19.288C16.9288 19.288 15.8008 18.28 15.8008 16.648C15.8008 14.824 17.0968 13.6 19.8808 12.832L21.9928 12.256V11.032C21.9928 10.36 21.9928 7.96 19.7608 7.96C18.2728 7.96 17.0488 9.016 16.4248 10.216L16.2808 10.144C17.0728 7.648 19.2088 6.136 21.8968 6.136C24.6328 6.136 26.2648 7.768 26.2648 10.6V15.832C26.2648 16.816 26.2648 17.512 27.0088 17.512C27.4888 17.512 27.7768 17.176 27.9208 17.008ZM21.1048 17.56C21.3928 17.56 21.7048 17.44 21.9928 17.176V12.592L21.5608 12.784C20.1208 13.408 19.7848 14.032 19.7848 15.472C19.7848 16.816 20.4328 17.56 21.1048 17.56ZM32.2592 19.288C31.1552 19.288 29.5712 19.096 28.6112 18.712L28.3952 14.872H28.5392C29.5952 16.792 30.6752 18.952 32.8112 18.952C33.9632 18.952 34.9232 18.352 34.9232 17.2C34.9232 16 33.8912 15.52 32.3312 14.704L31.3712 14.2C30.5072 13.744 28.6112 12.808 28.6112 10.312C28.6112 7.624 30.7952 6.136 33.4352 6.136C34.3952 6.136 36.0032 6.328 37.0112 6.664V9.88H36.8672C35.9552 8.176 34.7792 6.472 33.0752 6.472C31.8992 6.472 31.3232 7.168 31.3232 8.032C31.3232 9.28 32.4752 9.784 33.2912 10.216L34.2512 10.72C35.8832 11.584 37.6352 12.448 37.6352 14.896C37.6352 17.632 35.4752 19.288 32.2592 19.288ZM51.4294 9.88V16.504C51.4294 18.04 51.5014 18.856 52.4854 18.856V19H45.9574V18.856C46.9414 18.856 47.0134 18.04 47.0134 16.504V10.936C47.0134 9.304 46.8214 8.296 45.4774 8.296C45.0454 8.296 44.4214 8.44 43.8934 8.656V16.504C43.8934 18.04 43.9654 18.856 44.9494 18.856V19H38.4214V18.856C39.4054 18.856 39.4774 18.04 39.4774 16.504V3.496C39.4774 1.96 39.0694 1.528 38.2534 1.24V1.096L43.7974 0.231998H43.8934V8.368C45.0214 7.216 46.5334 6.136 48.2134 6.136C50.4934 6.136 51.4294 7.48 51.4294 9.88ZM75.6257 4.648L76.2497 15.88C76.3457 17.656 76.4417 18.856 78.0737 18.856V19H70.0817V18.856C71.7137 18.856 71.8097 17.656 71.7137 15.88L71.0417 3.64L66.0017 19H65.8097L59.9057 3.664L59.3777 13.48C59.2097 16.72 60.0257 18.76 61.6577 18.856V19H56.8577V18.856C58.3937 18.712 58.7777 16.696 58.9457 13.48L59.4257 4.312C59.5217 2.608 58.6577 1.864 57.5057 1.672V1.528H63.9857L67.8497 11.968L71.2817 1.528H77.3537V1.672C75.7217 1.816 75.5297 2.872 75.6257 4.648ZM84.4879 6.136C87.7039 6.136 89.3839 8.248 89.2399 11.368H82.5679C82.6399 15.064 83.5279 17.224 85.9999 17.224C87.1999 17.224 88.3519 16.72 89.0959 15.664L89.2399 15.76C88.1839 17.68 86.6959 19.288 83.8879 19.288C79.9999 19.288 78.1519 16.264 78.1519 12.952C78.1519 9.208 80.5999 6.136 84.4879 6.136ZM84.3919 6.472C82.8319 6.472 82.5679 8.848 82.5679 10.984H85.5919C85.8079 8.224 85.7359 6.472 84.3919 6.472ZM102.197 19H94.1329V18.856C95.7649 18.856 95.8609 17.656 95.8609 15.88V4.648C95.8609 2.872 95.7649 1.672 94.1329 1.672V1.528H102.197V1.672C100.565 1.672 100.469 2.872 100.469 4.648V15.88C100.469 17.656 100.565 18.856 102.197 18.856V19ZM110.387 0.183999C110.843 0.183999 112.187 0.231998 112.619 0.279999L112.235 3.688H112.091C111.035 1.96 110.099 0.688 109.259 0.688C108.419 0.688 108.395 2.056 108.395 3.832V6.424H111.107L110.651 7.624H108.395V16.504C108.395 18.04 108.467 18.856 109.451 18.856V19H102.923V18.856C103.907 18.856 103.979 18.04 103.979 16.504V7.624H102.731V7.24L103.979 6.424C103.979 3.04 106.883 0.183999 110.387 0.183999ZM125.881 1.672V1.528H130.153V1.672C129.145 2.152 128.257 3.4 126.865 6.64L124.705 11.632V15.88C124.705 17.656 124.801 18.856 126.433 18.856V19H118.369V18.856C120.001 18.856 120.097 17.656 120.097 15.88V12.16L117.121 4.6C116.377 2.704 115.825 1.768 114.841 1.672V1.528H123.073V1.672C121.585 1.768 121.273 2.68 121.753 3.952L124.465 11.056L126.433 6.496C127.801 3.304 127.609 2.104 125.881 1.672ZM133.939 19.288C130.099 19.288 127.699 16.792 127.699 12.76C127.699 8.776 130.195 6.136 133.987 6.136C137.827 6.136 140.227 8.632 140.227 12.664C140.227 16.648 137.731 19.288 133.939 19.288ZM133.987 18.952C135.475 18.952 135.619 16.024 135.619 12.712C135.619 9.544 135.427 6.472 133.939 6.472C132.451 6.472 132.307 9.4 132.307 12.712C132.307 15.88 132.499 18.952 133.987 18.952ZM153.946 6.184V15.832C153.946 17.368 154.354 18.04 155.17 18.328V18.472L150.178 19.288H150.082L149.554 17.008C148.426 18.184 146.914 19.288 145.21 19.288C142.93 19.288 141.994 17.944 141.994 15.544V9.064C141.994 7.528 141.538 6.952 140.722 6.664V6.52L146.314 6.184H146.41V14.488C146.41 16.12 146.602 17.128 147.946 17.128C148.378 17.128 149.002 16.984 149.53 16.768V9.064C149.53 7.528 149.074 6.952 148.258 6.664V6.52L153.85 6.184H153.946ZM169.042 19.288C163.522 19.288 160.162 15.832 160.162 10.312C160.162 4.96 163.954 1.24 169.042 1.24C171.154 1.24 173.122 1.912 174.274 2.488L174.418 7.168H174.274C173.05 4.24 171.442 1.576 168.946 1.576C165.97 1.576 165.058 5.248 165.058 10.24C165.058 15.328 166.21 18.952 168.946 18.952C171.442 18.952 173.122 16.216 174.658 12.856H174.802L174.226 18.184C173.074 18.664 171.154 19.288 169.042 19.288ZM187.507 17.008L187.651 17.104C187.267 17.872 186.163 19.288 184.147 19.288C182.323 19.288 181.891 18.232 181.795 17.344C181.027 18.448 179.635 19.288 178.219 19.288C176.515 19.288 175.387 18.28 175.387 16.648C175.387 14.824 176.683 13.6 179.467 12.832L181.579 12.256V11.032C181.579 10.36 181.579 7.96 179.347 7.96C177.859 7.96 176.635 9.016 176.011 10.216L175.867 10.144C176.659 7.648 178.795 6.136 181.483 6.136C184.219 6.136 185.851 7.768 185.851 10.6V15.832C185.851 16.816 185.851 17.512 186.595 17.512C187.075 17.512 187.363 17.176 187.507 17.008ZM180.691 17.56C180.979 17.56 181.291 17.44 181.579 17.176V12.592L181.147 12.784C179.707 13.408 179.371 14.032 179.371 15.472C179.371 16.816 180.019 17.56 180.691 17.56ZM200.821 9.88V16.504C200.821 18.04 200.893 18.856 201.877 18.856V19H195.349V18.856C196.333 18.856 196.405 18.04 196.405 16.504V10.936C196.405 9.304 196.213 8.296 194.869 8.296C194.437 8.296 193.813 8.44 193.285 8.656V16.504C193.285 18.04 193.357 18.856 194.341 18.856V19H187.813V18.856C188.797 18.856 188.869 18.04 188.869 16.504V9.64C188.869 8.104 188.461 7.672 187.645 7.384V7.24L193.189 6.184H193.285V8.368C194.413 7.216 195.925 6.136 197.605 6.136C199.885 6.136 200.821 7.48 200.821 9.88Z" fill="#111111"/>
</svg>
