<svg width="182" height="71" viewBox="0 0 182 71" fill="none" xmlns="http://www.w3.org/2000/svg">
<g filter="url(#filter0_d_383_485)">
<path d="M64.4307 30.072H61.5867L60.9747 27.84L60.9027 27.516L60.5787 26.4L60.5427 26.184L60.2907 25.32L60.2547 25.212L60.1107 24.6L59.8227 23.664L59.6427 22.944L55.2867 7.032C54.8907 5.556 53.6667 5.592 52.5147 5.592V4.8H60.6507V5.592C59.5707 5.592 58.4907 5.664 58.8867 6.996L64.3947 27.228L68.7507 11.208L70.5147 4.8H70.5867L71.1987 6.996L71.2347 7.212L71.2707 7.32L71.3787 7.752L71.4147 7.86L71.5227 8.22L71.9907 9.984L72.0987 10.308L76.7067 27.228L82.3587 6.492C82.5747 5.7 81.1707 5.628 80.5227 5.592V4.8H85.7787V5.592C85.0227 5.592 83.4027 5.592 83.1507 6.456L77.1387 28.488L76.7427 30.072H73.8987L73.2867 27.84L73.2507 27.732L73.1787 27.444L73.1427 27.264L73.1067 27.12L73.0347 26.94L72.9987 26.796L72.9267 26.436L72.8547 26.256L72.8187 26.076L72.7467 25.896L72.7107 25.68L72.6387 25.5L72.6027 25.32L72.5307 25.104L72.4947 24.888L72.4227 24.708L72.3867 24.492L72.3147 24.276L72.2787 24.06L69.1467 12.684L64.4307 30.072ZM89.86 4.728C91.048 4.728 91.984 5.664 91.984 6.816C91.984 7.968 91.048 8.904 89.86 8.904C88.708 8.904 87.772 7.968 87.772 6.816C87.772 5.664 88.708 4.728 89.86 4.728ZM88.096 27.768V15.708C88.096 14.628 87.412 14.376 86.584 14.304V13.476C87.664 13.476 90.508 13.548 91.084 12.612H91.66V27.768C91.66 29.244 92.92 29.172 94.072 29.172V30H85.684V29.172C86.836 29.172 88.096 29.244 88.096 27.768ZM107.965 17.976C106.705 14.664 105.121 13.512 102.493 13.512C100.693 13.512 98.3174 14.412 98.3174 16.176C98.3174 19.596 108.865 18.912 109.225 24.672C109.477 28.704 105.409 30.108 101.773 30C100.189 30.036 98.2094 29.64 96.7694 29.172C96.5894 29.244 96.5174 29.388 96.5534 29.676L95.8694 29.64L94.9694 24.564L95.6534 24.6C96.5894 27.948 99.6494 29.1 102.133 29.028C105.409 28.92 106.633 27.588 106.453 26.076C105.949 21.972 96.0494 22.944 95.4374 17.94C94.9694 13.908 99.2894 12.504 102.565 12.612C104.113 12.54 105.733 12.936 107.209 13.44C107.353 13.332 107.461 13.188 107.389 12.9L108.073 12.936L108.613 18.012L107.965 17.976ZM112.245 27.768V7.824C112.245 6.744 111.561 6.456 110.733 6.42V5.592C111.813 5.592 114.657 5.664 115.233 4.728H115.809V15.852C117.177 13.836 119.337 12.612 121.677 12.612C124.665 12.612 126.501 14.484 126.501 17.256V27.768C126.465 29.244 127.725 29.172 128.877 29.172V30H120.489V29.172C121.677 29.172 122.901 29.244 122.901 27.768V16.032C122.901 12.468 117.069 13.332 115.809 18.48V27.768C115.809 29.244 117.069 29.208 118.221 29.208V30H109.833V29.208C110.985 29.208 112.245 29.244 112.245 27.768ZM18.0357 63.876C18.0357 65.316 19.2957 65.28 20.4477 65.28V66.072H12.0597V65.28C13.2117 65.28 14.4717 65.316 14.4717 63.84V55.596L14.4357 55.488L7.27173 43.032C6.44373 41.556 5.21973 41.592 4.06773 41.592V40.8H11.9877V41.592C10.9797 41.628 10.1157 41.736 10.8357 42.996L17.6037 54.804L24.1917 42.6C24.6597 41.7 23.1837 41.628 22.4637 41.592V40.8H27.7197V41.592C26.8917 41.592 25.5597 41.556 25.0917 42.384L18.4677 54.696C17.9637 55.596 18.0357 55.272 18.0357 56.1V63.876ZM33.9356 48.612C39.1916 48.612 42.6116 52.032 42.6116 57.288C42.6116 62.58 39.1916 66 33.9356 66C28.6436 66 25.2236 62.58 25.2236 57.288C25.2236 52.032 28.6436 48.612 33.9356 48.612ZM39.0836 57.288C39.0836 52.5 37.0316 49.404 33.9356 49.404C30.8036 49.404 28.7516 52.5 28.7516 57.288C28.7516 62.112 30.8036 65.208 33.9356 65.208C37.0316 65.208 39.0836 62.112 39.0836 57.288ZM55.5154 51.708C55.5154 50.628 54.8314 50.376 54.0034 50.304V49.476C55.0834 49.476 57.9274 49.548 58.5034 48.612H59.0794V63.768C59.0794 65.244 60.3034 65.208 61.4914 65.208V66H55.5154V64.164C53.8234 65.28 52.1674 66.036 49.6474 66C47.3074 65.964 45.4354 64.92 45.4354 62.616V51.708C45.4354 50.628 44.7514 50.376 43.9234 50.304V49.476C45.0034 49.476 47.8474 49.548 48.4234 48.612H48.9994V51.708C48.9994 55.128 48.9994 58.548 48.9994 61.968V62.688C48.9994 66 52.7434 64.992 55.5154 62.76V52.284V51.708ZM80.224 51.564C80.296 52.608 79.36 53.184 78.46 53.04C77.524 52.86 76.912 51.816 77.416 50.88C78.28 49.296 82.132 48.612 83.68 48.612C87.676 48.612 91.564 49.332 91.276 55.668V63.768C91.276 65.244 92.428 65.172 93.508 65.172V66H87.892V63.264C86.812 64.956 84.868 66 81.808 66C78.172 66 74.86 63.444 74.86 60.276C74.86 57.108 77.668 54.552 82.132 54.552C84.868 54.552 86.704 55.308 87.892 57.072C88 47.388 80.008 48.864 80.224 51.564ZM87.892 59.52C87.532 57.072 85.516 55.344 83.068 55.38C80.008 55.38 78.172 57.396 78.172 60.276C78.172 63.156 80.008 65.172 83.068 65.172C85.516 65.208 87.532 63.48 87.892 61.032V59.52ZM109.227 43.032C109.227 41.556 107.967 41.592 106.815 41.592V40.8H115.203V41.592C114.051 41.592 112.791 41.556 112.791 42.996V63.876C112.791 65.064 113.619 65.244 114.627 65.28C119.199 65.28 120.063 66.036 123.627 62.256H124.023C123.663 63.552 123.303 64.812 122.871 66.072H106.815V65.28C107.967 65.28 109.227 65.316 109.227 63.84V43.032ZM136.164 51.708C136.164 50.628 135.48 50.376 134.652 50.304V49.476C135.732 49.476 138.576 49.548 139.152 48.612H139.728V63.768C139.728 65.244 140.952 65.208 142.14 65.208V66H136.164V64.164C134.472 65.28 132.816 66.036 130.296 66C127.956 65.964 126.084 64.92 126.084 62.616V51.708C126.084 50.628 125.4 50.376 124.572 50.304V49.476C125.652 49.476 128.496 49.548 129.072 48.612H129.648V51.708C129.648 55.128 129.648 58.548 129.648 61.968V62.688C129.648 66 133.392 64.992 136.164 62.76V52.284V51.708ZM157.336 50.916C157.876 51.852 157.192 52.896 156.22 53.04C155.284 53.184 154.24 52.608 154.384 51.564C154.708 49.044 146.068 47.46 146.068 57.324C146.068 66.504 154.636 66.828 157.516 61.716H157.876V64.02C157.84 64.092 155.104 64.848 154.312 65.172C153.304 65.64 151.792 66.072 150.64 66C146.284 66.108 142.54 61.572 142.54 57.324C142.54 52.5 146.428 48.612 151.252 48.612C152.476 48.612 156.472 49.332 157.336 50.916ZM172.629 49.764C172.197 49.404 171.513 49.404 170.793 49.404V48.612H176.229V49.404C175.077 49.404 174.393 49.62 173.493 50.376L167.013 55.812L173.817 63.768C175.041 65.244 176.265 65.208 177.381 65.172V66H169.713V65.172C170.613 65.136 171.225 64.956 170.217 63.768L164.817 57.432V63.768C164.817 65.244 166.077 65.172 167.229 65.172V66H158.841V65.172C159.993 65.172 161.253 65.244 161.253 63.768V43.824C161.253 42.744 160.569 42.456 159.741 42.42V41.592C160.821 41.592 163.665 41.664 164.241 40.728H164.817V56.28L172.629 49.764Z" fill="#111111"/>
</g>
<defs>
<filter id="filter0_d_383_485" x="0.067749" y="0.727539" width="181.313" height="70.1006" filterUnits="userSpaceOnUse" color-interpolation-filters="sRGB">
<feFlood flood-opacity="0" result="BackgroundImageFix"/>
<feColorMatrix in="SourceAlpha" type="matrix" values="0 0 0 0 0 0 0 0 0 0 0 0 0 0 0 0 0 0 127 0" result="hardAlpha"/>
<feOffset/>
<feGaussianBlur stdDeviation="2"/>
<feComposite in2="hardAlpha" operator="out"/>
<feColorMatrix type="matrix" values="0 0 0 0 1 0 0 0 0 1 0 0 0 0 1 0 0 0 1 0"/>
<feBlend mode="normal" in2="BackgroundImageFix" result="effect1_dropShadow_383_485"/>
<feBlend mode="normal" in="SourceGraphic" in2="effect1_dropShadow_383_485" result="shape"/>
</filter>
</defs>
</svg>
