<svg width="288" height="288" viewBox="0 0 288 288" fill="none" xmlns="http://www.w3.org/2000/svg">
<g clip-path="url(#clip0_1249_1717)">
<rect width="288" height="288" rx="4" fill="#F1F1F1"/>
<path fill-rule="evenodd" clip-rule="evenodd" d="M48 48C74.5097 48 96 26.5097 96 0C96 26.5097 117.49 48 144 48C117.49 48 96 69.4903 96 96C96 69.4903 74.5097 48 48 48ZM192 96C192 69.4903 170.51 48 144 48C170.51 48 192 26.5097 192 0C192 26.5097 213.49 48 240 48C213.49 48 192 69.4903 192 96ZM192 96C192 122.51 213.49 144 240 144C266.51 144 288 122.51 288 96C288 69.4903 266.51 48 240 48C266.51 48 288 26.5097 288 0C288 -26.5097 266.51 -48 240 -48C213.49 -48 192 -26.5097 192 0C192 -26.5097 170.51 -48 144 -48C117.49 -48 96 -26.5097 96 0C96 -26.5097 74.5097 -48 48 -48C21.4903 -48 0 -26.5097 0 0C0 26.5097 21.4903 48 48 48C21.4903 48 0 69.4903 0 96C0 122.51 21.4903 144 48 144C74.5097 144 96 122.51 96 96C96 122.51 117.49 144 144 144C170.51 144 192 122.51 192 96Z" fill="url(#paint0_linear_1249_1717)"/>
<rect y="180" width="288" height="108" fill="url(#paint1_linear_1249_1717)"/>
<rect x="0.5" y="0.5" width="287" height="287" rx="3.5" stroke="#111111"/>
<path d="M31.6765 29.1C31.4626 28.7515 31.1337 28.4527 30.695 28.2087C30.2563 27.9647 29.6916 27.7755 29.0117 27.641L28.7539 27.5912V25.9977C28.7539 25.9977 28.7978 26.0077 28.8197 26.0127C29.0117 26.0874 29.1597 26.1919 29.2639 26.3264C29.3681 26.4658 29.4284 26.6351 29.4448 26.8343H31.8684C31.8684 26.2716 31.7094 25.7836 31.4023 25.3554C31.0953 24.9321 30.6566 24.5985 30.0918 24.3644C29.6916 24.2001 29.2474 24.0955 28.7485 24.0457V23H27.5531V24.0358C27.0212 24.0806 26.5332 24.1852 26.0946 24.3594C25.5079 24.5935 25.0528 24.9172 24.7293 25.3354C24.4058 25.7537 24.2467 26.2318 24.2467 26.7795C24.2467 27.4368 24.477 27.9647 24.9486 28.3631C25.4202 28.7614 26.0946 29.0502 26.9719 29.2245L27.5586 29.344V31.0371C27.4325 31.0122 27.3119 30.9873 27.2077 30.9475C26.9609 30.8529 26.769 30.7134 26.6374 30.5292C26.5003 30.345 26.4291 30.1159 26.4126 29.852H24C24.0055 30.5541 24.1755 31.1367 24.5099 31.6048C24.8444 32.0729 25.316 32.4215 25.9301 32.6455C26.4016 32.8198 26.95 32.9244 27.5586 32.9642V34H28.7539V32.9593C29.2968 32.9194 29.7793 32.8248 30.196 32.6704C30.7772 32.4613 31.2214 32.1575 31.5284 31.7592C31.841 31.3608 31.9945 30.8778 32 30.3151C32 29.8619 31.8903 29.4586 31.6765 29.11V29.1ZM27.1912 27.1431C26.9774 27.0086 26.8732 26.8293 26.8842 26.6102C26.8842 26.4708 26.9335 26.3463 27.0212 26.2417C27.109 26.1372 27.2461 26.0525 27.427 25.9928C27.4654 25.9778 27.5147 25.9728 27.5586 25.9629V27.3074C27.4106 27.2576 27.2899 27.2028 27.1912 27.1381V27.1431ZM29.2584 30.7134C29.1542 30.828 29.0062 30.9226 28.8033 30.9873C28.7868 30.9923 28.7704 30.9923 28.7539 30.9973V29.6329C28.7539 29.6329 28.7923 29.6428 28.8033 29.6478C29.0171 29.7325 29.1707 29.8221 29.2694 29.9316C29.3626 30.0362 29.4119 30.1607 29.4174 30.3051C29.4174 30.4595 29.3626 30.5989 29.2584 30.7134Z" fill="#111111"/>
<path d="M40.6765 29.1C40.4626 28.7515 40.1337 28.4527 39.695 28.2087C39.2563 27.9647 38.6916 27.7755 38.0117 27.641L37.7539 27.5912V25.9977C37.7539 25.9977 37.7978 26.0077 37.8197 26.0127C38.0117 26.0874 38.1597 26.1919 38.2639 26.3264C38.3681 26.4658 38.4284 26.6351 38.4448 26.8343H40.8684C40.8684 26.2716 40.7094 25.7836 40.4023 25.3554C40.0953 24.9321 39.6566 24.5985 39.0918 24.3644C38.6916 24.2001 38.2474 24.0955 37.7485 24.0457V23H36.5531V24.0358C36.0212 24.0806 35.5332 24.1852 35.0946 24.3594C34.5079 24.5935 34.0528 24.9172 33.7293 25.3354C33.4058 25.7537 33.2467 26.2318 33.2467 26.7795C33.2467 27.4368 33.477 27.9647 33.9486 28.3631C34.4202 28.7614 35.0946 29.0502 35.9719 29.2245L36.5586 29.344V31.0371C36.4325 31.0122 36.3119 30.9873 36.2077 30.9475C35.9609 30.8529 35.769 30.7134 35.6374 30.5292C35.5003 30.345 35.4291 30.1159 35.4126 29.852H33C33.0055 30.5541 33.1755 31.1367 33.5099 31.6048C33.8444 32.0729 34.316 32.4215 34.9301 32.6455C35.4016 32.8198 35.95 32.9244 36.5586 32.9642V34H37.7539V32.9593C38.2968 32.9194 38.7793 32.8248 39.196 32.6704C39.7772 32.4613 40.2214 32.1575 40.5284 31.7592C40.841 31.3608 40.9945 30.8778 41 30.3151C41 29.8619 40.8903 29.4586 40.6765 29.11V29.1ZM36.1912 27.1431C35.9774 27.0086 35.8732 26.8293 35.8842 26.6102C35.8842 26.4708 35.9335 26.3463 36.0212 26.2417C36.109 26.1372 36.2461 26.0525 36.427 25.9928C36.4654 25.9778 36.5147 25.9728 36.5586 25.9629V27.3074C36.4106 27.2576 36.2899 27.2028 36.1912 27.1381V27.1431ZM38.2584 30.7134C38.1542 30.828 38.0062 30.9226 37.8033 30.9873C37.7868 30.9923 37.7704 30.9923 37.7539 30.9973V29.6329C37.7539 29.6329 37.7923 29.6428 37.8033 29.6478C38.0171 29.7325 38.1707 29.8221 38.2694 29.9316C38.3626 30.0362 38.4119 30.1607 38.4174 30.3051C38.4174 30.4595 38.3626 30.5989 38.2584 30.7134Z" fill="#111111"/>
<path d="M49.6765 29.1C49.4626 28.7515 49.1337 28.4527 48.695 28.2087C48.2563 27.9647 47.6916 27.7755 47.0117 27.641L46.7539 27.5912V25.9977C46.7539 25.9977 46.7978 26.0077 46.8197 26.0127C47.0117 26.0874 47.1597 26.1919 47.2639 26.3264C47.3681 26.4658 47.4284 26.6351 47.4448 26.8343H49.8684C49.8684 26.2716 49.7094 25.7836 49.4023 25.3554C49.0953 24.9321 48.6566 24.5985 48.0918 24.3644C47.6916 24.2001 47.2474 24.0955 46.7485 24.0457V23H45.5531V24.0358C45.0212 24.0806 44.5332 24.1852 44.0946 24.3594C43.5079 24.5935 43.0528 24.9172 42.7293 25.3354C42.4058 25.7537 42.2467 26.2318 42.2467 26.7795C42.2467 27.4368 42.477 27.9647 42.9486 28.3631C43.4202 28.7614 44.0946 29.0502 44.9719 29.2245L45.5586 29.344V31.0371C45.4325 31.0122 45.3119 30.9873 45.2077 30.9475C44.9609 30.8529 44.769 30.7134 44.6374 30.5292C44.5003 30.345 44.4291 30.1159 44.4126 29.852H42C42.0055 30.5541 42.1755 31.1367 42.5099 31.6048C42.8444 32.0729 43.316 32.4215 43.9301 32.6455C44.4016 32.8198 44.95 32.9244 45.5586 32.9642V34H46.7539V32.9593C47.2968 32.9194 47.7793 32.8248 48.196 32.6704C48.7772 32.4613 49.2214 32.1575 49.5284 31.7592C49.841 31.3608 49.9945 30.8778 50 30.3151C50 29.8619 49.8903 29.4586 49.6765 29.11V29.1ZM45.1912 27.1431C44.9774 27.0086 44.8732 26.8293 44.8842 26.6102C44.8842 26.4708 44.9335 26.3463 45.0212 26.2417C45.109 26.1372 45.2461 26.0525 45.427 25.9928C45.4654 25.9778 45.5147 25.9728 45.5586 25.9629V27.3074C45.4106 27.2576 45.2899 27.2028 45.1912 27.1381V27.1431ZM47.2584 30.7134C47.1542 30.828 47.0062 30.9226 46.8033 30.9873C46.7868 30.9923 46.7704 30.9923 46.7539 30.9973V29.6329C46.7539 29.6329 46.7923 29.6428 46.8033 29.6478C47.0171 29.7325 47.1707 29.8221 47.2694 29.9316C47.3626 30.0362 47.4119 30.1607 47.4174 30.3051C47.4174 30.4595 47.3626 30.5989 47.2584 30.7134Z" fill="#111111"/>
<line x1="58" y1="28.5" x2="253" y2="28.5" stroke="#111111"/>
<path d="M268.084 25.6857L272 25.25L269.671 28.5L272 31.75L268.084 31.3143L266.497 35L264.91 31.3143L261 31.75L263.323 28.5L261 25.25L264.91 25.6857L266.497 22L268.084 25.6857Z" fill="#111111"/>
<g clip-path="url(#clip1_1249_1717)">
<path d="M27.7742 258.158C24.6976 259.926 23.1988 263.079 24.4305 265.202C25.6621 267.325 29.1493 267.606 32.226 265.838C35.3027 264.069 36.7965 260.916 35.5698 258.798C34.3431 256.68 30.8509 256.394 27.7742 258.158ZM30.6184 263.064C29.7924 263.542 28.8427 263.448 28.5014 262.857C28.1601 262.266 28.5558 261.404 29.3818 260.926C30.2079 260.448 31.1576 260.542 31.4989 261.133C31.8402 261.724 31.4445 262.586 30.6184 263.064Z" fill="#111111"/>
</g>
<path d="M45.2003 258.928H46.4641V266H45.3349L41.9855 261.169H41.9268V266H40.6595V258.928H41.8025L45.1381 263.762H45.2003V258.928ZM50.0335 266.104C49.5225 266.104 49.0747 265.991 48.6903 265.765C48.3081 265.537 48.0123 265.217 47.8028 264.805C47.5957 264.391 47.4921 263.912 47.4921 263.369C47.4921 262.826 47.5957 262.347 47.8028 261.932C48.0123 261.518 48.3081 261.197 48.6903 260.969C49.0747 260.741 49.5225 260.627 50.0335 260.627C50.5446 260.627 50.9911 260.741 51.3733 260.969C51.7577 261.197 52.0535 261.518 52.2607 261.932C52.4679 262.347 52.5715 262.826 52.5715 263.369C52.5715 263.912 52.4679 264.391 52.2607 264.805C52.0535 265.217 51.7577 265.537 51.3733 265.765C50.9911 265.991 50.5446 266.104 50.0335 266.104ZM50.037 265.109C50.3109 265.109 50.5434 265.033 50.7345 264.881C50.9255 264.727 51.0694 264.519 51.1661 264.256C51.2628 263.994 51.3111 263.697 51.3111 263.365C51.3111 263.034 51.2628 262.736 51.1661 262.471C51.0694 262.206 50.9255 261.997 50.7345 261.843C50.5434 261.688 50.3109 261.611 50.037 261.611C49.7584 261.611 49.5225 261.688 49.3291 261.843C49.1357 261.997 48.9907 262.206 48.894 262.471C48.7973 262.736 48.749 263.034 48.749 263.365C48.749 263.697 48.7973 263.994 48.894 264.256C48.9907 264.519 49.1357 264.727 49.3291 264.881C49.5225 265.033 49.7584 265.109 50.037 265.109ZM55.7965 266H54.5016L52.9996 260.696H54.2668L55.2026 264.432H55.2509L56.204 260.696H57.4609L58.4174 264.412H58.4657L59.3911 260.696H60.6584L59.1563 266H57.8649L56.8635 262.405H56.7944L55.7965 266ZM66.537 258.928C67.0664 258.928 67.5176 259.028 67.8906 259.229C68.2658 259.427 68.549 259.703 68.74 260.057C68.9334 260.41 69.0301 260.814 69.0301 261.269C69.0301 261.727 68.9334 262.133 68.74 262.485C68.5466 262.837 68.2612 263.112 67.8837 263.31C67.5061 263.508 67.0515 263.607 66.5197 263.607H65.1592V266H63.892V258.928H66.537ZM66.3505 262.561C66.659 262.561 66.9157 262.507 67.1205 262.398C67.3277 262.29 67.4808 262.14 67.5798 261.946C67.6811 261.753 67.7317 261.527 67.7317 261.269C67.7317 260.876 67.6155 260.565 67.383 260.337C67.1528 260.107 66.8063 259.992 66.3436 259.992H65.1592V262.561H66.3505ZM70.0051 258.928H71.2482V266H70.0051V258.928ZM74.6012 260.627C74.9719 260.627 75.3195 260.685 75.644 260.8C75.9709 260.915 76.2391 261.109 76.4486 261.383C76.6604 261.655 76.7663 262.012 76.7663 262.454V266H75.575V265.271H75.5335C75.4069 265.515 75.2124 265.716 74.95 265.872C74.6899 266.029 74.3653 266.107 73.9762 266.107C73.6332 266.107 73.3271 266.046 73.0577 265.924C72.7907 265.8 72.58 265.618 72.4258 265.378C72.2739 265.139 72.1979 264.85 72.1979 264.512C72.1979 263.964 72.3821 263.568 72.7504 263.324C73.121 263.08 73.5952 262.938 74.1731 262.899C74.4401 262.881 74.8924 262.858 75.5301 262.83L75.5266 262.402C75.5266 262.14 75.4438 261.937 75.278 261.794C75.1146 261.649 74.8775 261.577 74.5667 261.577C74.2951 261.577 74.0741 261.633 73.9037 261.746C73.7357 261.859 73.6275 262.013 73.5791 262.209H72.374C72.4039 261.907 72.5121 261.637 72.6986 261.397C72.8851 261.158 73.1406 260.97 73.4652 260.834C73.7898 260.696 74.1684 260.627 74.6012 260.627ZM74.2939 265.192C74.5379 265.192 74.7543 265.142 74.9431 265.044C75.1318 264.945 75.2769 264.812 75.3782 264.646C75.4818 264.478 75.5335 264.295 75.5335 264.097L75.5301 263.659C75.369 263.668 75.1641 263.681 74.9155 263.697C74.6668 263.713 74.4838 263.727 74.3664 263.738C74.0626 263.761 73.8254 263.837 73.6551 263.966C73.4847 264.093 73.3996 264.269 73.3996 264.494C73.3996 264.718 73.4813 264.89 73.6447 265.012C73.8082 265.132 74.0246 265.192 74.2939 265.192ZM78.4951 267.989C78.2166 267.989 78.0013 267.981 77.8494 267.965L77.8529 266.967C77.9795 266.978 78.1544 266.984 78.3777 266.984C78.502 266.984 78.6056 266.973 78.6885 266.95C78.7714 266.929 78.8508 266.875 78.9268 266.787C79.005 266.702 79.0775 266.571 79.1443 266.394L79.2548 266.11L77.328 260.696H78.6471L79.8729 264.705H79.9281L81.1609 260.696H82.4834L80.3563 266.646C80.1975 267.085 79.9684 267.419 79.6692 267.647C79.3699 267.875 78.9785 267.989 78.4951 267.989ZM84.5099 266H83.2668V260.696H84.5099V266ZM83.8918 259.94C83.7606 259.94 83.6386 259.91 83.5258 259.85C83.4153 259.79 83.3278 259.709 83.2634 259.605C83.1989 259.501 83.1667 259.389 83.1667 259.267C83.1667 259.142 83.1989 259.028 83.2634 258.925C83.3278 258.821 83.4153 258.739 83.5258 258.68C83.6386 258.62 83.7606 258.59 83.8918 258.59C84.0208 258.59 84.1393 258.621 84.2475 258.683C84.358 258.743 84.4455 258.825 84.5099 258.928C84.5767 259.032 84.6101 259.145 84.6101 259.267C84.6101 259.389 84.5767 259.501 84.5099 259.605C84.4455 259.709 84.358 259.79 84.2475 259.85C84.1393 259.91 84.0208 259.94 83.8918 259.94ZM86.9513 266H85.7083V260.696H86.8961V261.597H86.9617C87.086 261.294 87.2828 261.056 87.5522 260.886C87.8215 260.713 88.1507 260.627 88.5397 260.627C88.9058 260.627 89.2246 260.705 89.4962 260.862C89.7702 261.018 89.982 261.247 90.1316 261.549C90.2812 261.848 90.356 262.206 90.356 262.623V266H89.1129V262.813C89.1129 262.578 89.0715 262.375 88.9886 262.205C88.9058 262.035 88.7861 261.905 88.6295 261.815C88.4753 261.725 88.2911 261.68 88.077 261.68C87.856 261.68 87.6604 261.729 87.49 261.825C87.322 261.92 87.1896 262.059 87.0929 262.243C86.9985 262.425 86.9513 262.641 86.9513 262.892V266ZM93.8513 268.099C93.3886 268.099 92.9834 268.034 92.6358 267.903C92.2882 267.771 92.0143 267.583 91.814 267.336C91.6137 267.092 91.4998 266.805 91.4721 266.473H92.7152C92.759 266.703 92.881 266.875 93.0812 266.988C93.2838 267.103 93.5474 267.16 93.872 267.16C94.2633 267.16 94.5672 267.07 94.7836 266.891C95 266.711 95.1082 266.433 95.1082 266.055V265.047H95.046C94.9263 265.289 94.7445 265.496 94.5004 265.669C94.2564 265.839 93.9295 265.924 93.5198 265.924C93.1031 265.924 92.729 265.824 92.3975 265.624C92.0661 265.423 91.8048 265.128 91.6137 264.736C91.4249 264.343 91.3306 263.866 91.3306 263.307C91.3306 262.743 91.4261 262.259 91.6172 261.856C91.8082 261.451 92.0695 261.145 92.401 260.938C92.7325 260.731 93.1066 260.627 93.5232 260.627C93.9376 260.627 94.261 260.719 94.4935 260.903C94.7283 261.087 94.9137 261.31 95.0495 261.57H95.1116V260.696H96.3375V266.086C96.3375 266.526 96.2316 266.897 96.0198 267.198C95.8103 267.5 95.5191 267.725 95.1462 267.875C94.7732 268.025 94.3416 268.099 93.8513 268.099ZM93.8616 264.947C94.1264 264.947 94.3531 264.882 94.5419 264.753C94.7306 264.625 94.8734 264.439 94.9701 264.198C95.069 263.953 95.1185 263.662 95.1185 263.324C95.1185 262.985 95.069 262.691 94.9701 262.44C94.8734 262.189 94.7306 261.994 94.5419 261.856C94.3531 261.718 94.1264 261.649 93.8616 261.649C93.59 261.649 93.3586 261.721 93.1676 261.863C92.9788 262.006 92.8361 262.204 92.7394 262.457C92.645 262.708 92.5978 262.997 92.5978 263.324C92.5978 263.653 92.6462 263.94 92.7428 264.184C92.8395 264.428 92.9823 264.616 93.171 264.75C93.3621 264.881 93.5923 264.947 93.8616 264.947ZM100.671 266.076C100.532 266.076 100.405 266.043 100.287 265.976C100.172 265.907 100.08 265.815 100.011 265.7C99.9443 265.582 99.9121 265.456 99.9144 265.32C99.9121 265.184 99.9443 265.058 100.011 264.943C100.08 264.828 100.172 264.737 100.287 264.671C100.405 264.604 100.532 264.57 100.671 264.57C100.804 264.57 100.928 264.604 101.044 264.671C101.161 264.737 101.254 264.828 101.323 264.943C101.392 265.058 101.427 265.184 101.427 265.32C101.427 265.456 101.392 265.582 101.323 265.7C101.254 265.815 101.161 265.907 101.044 265.976C100.928 266.043 100.804 266.076 100.671 266.076ZM103.395 266.076C103.257 266.076 103.129 266.043 103.012 265.976C102.897 265.907 102.805 265.815 102.736 265.7C102.669 265.582 102.637 265.456 102.639 265.32C102.637 265.184 102.669 265.058 102.736 264.943C102.805 264.828 102.897 264.737 103.012 264.671C103.129 264.604 103.257 264.57 103.395 264.57C103.529 264.57 103.653 264.604 103.768 264.671C103.886 264.737 103.979 264.828 104.048 264.943C104.117 265.058 104.151 265.184 104.151 265.32C104.151 265.456 104.117 265.582 104.048 265.7C103.979 265.815 103.886 265.907 103.768 265.976C103.653 266.043 103.529 266.076 103.395 266.076ZM106.12 266.076C105.982 266.076 105.854 266.043 105.737 265.976C105.621 265.907 105.529 265.815 105.46 265.7C105.394 265.582 105.361 265.456 105.364 265.32C105.361 265.184 105.394 265.058 105.46 264.943C105.529 264.828 105.621 264.737 105.737 264.671C105.854 264.604 105.982 264.57 106.12 264.57C106.253 264.57 106.378 264.604 106.493 264.671C106.61 264.737 106.703 264.828 106.772 264.943C106.841 265.058 106.876 265.184 106.876 265.32C106.876 265.456 106.841 265.582 106.772 265.7C106.703 265.815 106.61 265.907 106.493 265.976C106.378 266.043 106.253 266.076 106.12 266.076Z" fill="#111111"/>
</g>
<defs>
<linearGradient id="paint0_linear_1249_1717" x1="144" y1="1.58942e-07" x2="144" y2="144" gradientUnits="userSpaceOnUse">
<stop stop-color="#E5B06A" stop-opacity="0.8"/>
<stop offset="1" stop-color="white" stop-opacity="0"/>
<stop offset="1" stop-color="white" stop-opacity="0"/>
</linearGradient>
<linearGradient id="paint1_linear_1249_1717" x1="144" y1="180" x2="144" y2="288" gradientUnits="userSpaceOnUse">
<stop stop-color="white" stop-opacity="0"/>
<stop offset="1" stop-color="#E5B06A" stop-opacity="0.3"/>
</linearGradient>
<clipPath id="clip0_1249_1717">
<rect width="288" height="288" rx="4" fill="white"/>
</clipPath>
<clipPath id="clip1_1249_1717">
<rect width="12" height="10" fill="white" transform="translate(24 257)"/>
</clipPath>
</defs>
</svg>
