<svg width="173" height="20" viewBox="0 0 173 20" fill="none" xmlns="http://www.w3.org/2000/svg">
<path d="M17.52 1.528V1.672C15.888 1.672 15.792 2.872 15.792 4.648V15.88C15.792 17.656 15.888 18.856 17.52 18.856V19H9.456V18.856C11.088 18.856 11.184 17.656 11.184 15.88V10.168H6.672V15.88C6.672 17.656 6.768 18.856 8.4 18.856V19H0.336V18.856C1.968 18.856 2.064 17.656 2.064 15.88V4.648C2.064 2.872 1.968 1.672 0.336 1.672V1.528H8.4V1.672C6.768 1.672 6.672 2.872 6.672 4.648V9.736H11.184V4.648C11.184 2.872 11.088 1.672 9.456 1.672V1.528H17.52ZM24.2769 6.136C27.4929 6.136 29.1729 8.248 29.0289 11.368H22.3569C22.4289 15.064 23.3169 17.224 25.7889 17.224C26.9889 17.224 28.1409 16.72 28.8849 15.664L29.0289 15.76C27.9729 17.68 26.4849 19.288 23.6769 19.288C19.7889 19.288 17.9409 16.264 17.9409 12.952C17.9409 9.208 20.3889 6.136 24.2769 6.136ZM24.1809 6.472C22.6209 6.472 22.3569 8.848 22.3569 10.984H25.3809C25.5969 8.224 25.5249 6.472 24.1809 6.472ZM41.6552 17.008L41.7992 17.104C41.4152 17.872 40.3112 19.288 38.2952 19.288C36.4712 19.288 36.0392 18.232 35.9432 17.344C35.1752 18.448 33.7832 19.288 32.3672 19.288C30.6632 19.288 29.5352 18.28 29.5352 16.648C29.5352 14.824 30.8312 13.6 33.6152 12.832L35.7272 12.256V11.032C35.7272 10.36 35.7272 7.96 33.4952 7.96C32.0072 7.96 30.7832 9.016 30.1592 10.216L30.0152 10.144C30.8072 7.648 32.9432 6.136 35.6312 6.136C38.3672 6.136 39.9992 7.768 39.9992 10.6V15.832C39.9992 16.816 39.9992 17.512 40.7432 17.512C41.2232 17.512 41.5112 17.176 41.6552 17.008ZM34.8392 17.56C35.1272 17.56 35.4392 17.44 35.7272 17.176V12.592L35.2952 12.784C33.8552 13.408 33.5192 14.032 33.5192 15.472C33.5192 16.816 34.1672 17.56 34.8392 17.56ZM48.4416 19H41.9136V18.856C42.8976 18.856 42.9696 18.04 42.9696 16.504V3.496C42.9696 1.96 42.5616 1.528 41.7456 1.24V1.096L47.2896 0.231998H47.3856V16.504C47.3856 18.04 47.4576 18.856 48.4416 18.856V19ZM57.966 16.6L58.11 16.696C56.958 18.232 55.206 19.288 53.574 19.288C51.486 19.288 50.238 18.328 50.238 15.64V7.624H48.99V7.24L49.326 7.072C51.39 6.04 52.974 5.032 54.51 2.536H54.654V6.424H57.918L57.462 7.624H54.654V15.688C54.654 16.84 55.206 17.368 56.142 17.368C56.718 17.368 57.438 17.032 57.966 16.6ZM71.07 9.88V16.504C71.07 18.04 71.142 18.856 72.126 18.856V19H65.598V18.856C66.582 18.856 66.654 18.04 66.654 16.504V10.936C66.654 9.304 66.462 8.296 65.118 8.296C64.686 8.296 64.062 8.44 63.534 8.656V16.504C63.534 18.04 63.606 18.856 64.59 18.856V19H58.062V18.856C59.046 18.856 59.118 18.04 59.118 16.504V3.496C59.118 1.96 58.71 1.528 57.894 1.24V1.096L63.438 0.231998H63.534V8.368C64.662 7.216 66.174 6.136 67.854 6.136C70.134 6.136 71.07 7.48 71.07 9.88ZM80.1223 4.84C78.8263 4.84 77.7943 3.808 77.7943 2.512C77.7943 1.264 78.8263 0.231998 80.1223 0.231998C81.3703 0.231998 82.4023 1.264 82.4023 2.512C82.4023 3.808 81.3703 4.84 80.1223 4.84ZM83.4583 19H76.9303V18.856C77.9143 18.856 77.9863 18.04 77.9863 16.504V9.64C77.9863 8.104 77.5783 7.672 76.7623 7.384V7.24L82.3063 6.184H82.4023V16.504C82.4023 18.04 82.4743 18.856 83.4583 18.856V19ZM88.1576 19.288C87.0536 19.288 85.4696 19.096 84.5096 18.712L84.2936 14.872H84.4376C85.4936 16.792 86.5736 18.952 88.7096 18.952C89.8616 18.952 90.8216 18.352 90.8216 17.2C90.8216 16 89.7896 15.52 88.2296 14.704L87.2696 14.2C86.4056 13.744 84.5096 12.808 84.5096 10.312C84.5096 7.624 86.6936 6.136 89.3336 6.136C90.2936 6.136 91.9016 6.328 92.9096 6.664V9.88H92.7656C91.8536 8.176 90.6776 6.472 88.9736 6.472C87.7976 6.472 87.2216 7.168 87.2216 8.032C87.2216 9.28 88.3736 9.784 89.1896 10.216L90.1496 10.72C91.7816 11.584 93.5336 12.448 93.5336 14.896C93.5336 17.632 91.3736 19.288 88.1576 19.288ZM115.856 1.672V1.528H120.128V1.672C119.12 2.152 118.04 3.832 117.176 6.784L113.408 19.576H113.216L108.944 6.304L104.528 19.576H104.336L99.5115 4.6C98.9115 2.704 98.3115 1.768 97.3275 1.672V1.528H105.272V1.672C104.023 1.768 103.616 2.68 104.023 3.952L106.568 12.064L108.704 5.56L108.392 4.6C107.792 2.704 107.192 1.768 106.352 1.672V1.528H114.344V1.672C112.856 1.768 112.496 2.632 112.904 3.952L115.28 11.56L116.72 6.64C117.56 3.736 117.584 2.104 115.856 1.672ZM124.613 6.136C127.829 6.136 129.509 8.248 129.365 11.368H122.693C122.765 15.064 123.653 17.224 126.125 17.224C127.325 17.224 128.477 16.72 129.221 15.664L129.365 15.76C128.309 17.68 126.821 19.288 124.013 19.288C120.125 19.288 118.277 16.264 118.277 12.952C118.277 9.208 120.725 6.136 124.613 6.136ZM124.517 6.472C122.957 6.472 122.693 8.848 122.693 10.984H125.717C125.933 8.224 125.861 6.472 124.517 6.472ZM141.991 17.008L142.135 17.104C141.751 17.872 140.647 19.288 138.631 19.288C136.807 19.288 136.375 18.232 136.279 17.344C135.511 18.448 134.119 19.288 132.703 19.288C130.999 19.288 129.871 18.28 129.871 16.648C129.871 14.824 131.167 13.6 133.951 12.832L136.063 12.256V11.032C136.063 10.36 136.063 7.96 133.831 7.96C132.343 7.96 131.119 9.016 130.495 10.216L130.351 10.144C131.143 7.648 133.279 6.136 135.967 6.136C138.703 6.136 140.335 7.768 140.335 10.6V15.832C140.335 16.816 140.335 17.512 141.079 17.512C141.559 17.512 141.847 17.176 141.991 17.008ZM135.175 17.56C135.463 17.56 135.775 17.44 136.063 17.176V12.592L135.631 12.784C134.191 13.408 133.855 14.032 133.855 15.472C133.855 16.816 134.503 17.56 135.175 17.56ZM148.778 19H142.25V18.856C143.234 18.856 143.306 18.04 143.306 16.504V3.496C143.306 1.96 142.898 1.528 142.082 1.24V1.096L147.626 0.231998H147.722V16.504C147.722 18.04 147.794 18.856 148.778 18.856V19ZM158.302 16.6L158.446 16.696C157.294 18.232 155.542 19.288 153.91 19.288C151.822 19.288 150.574 18.328 150.574 15.64V7.624H149.326V7.24L149.662 7.072C151.726 6.04 153.31 5.032 154.846 2.536H154.99V6.424H158.254L157.798 7.624H154.99V15.688C154.99 16.84 155.542 17.368 156.478 17.368C157.054 17.368 157.774 17.032 158.302 16.6ZM171.406 9.88V16.504C171.406 18.04 171.478 18.856 172.462 18.856V19H165.934V18.856C166.918 18.856 166.99 18.04 166.99 16.504V10.936C166.99 9.304 166.798 8.296 165.454 8.296C165.022 8.296 164.398 8.44 163.87 8.656V16.504C163.87 18.04 163.942 18.856 164.926 18.856V19H158.398V18.856C159.382 18.856 159.454 18.04 159.454 16.504V3.496C159.454 1.96 159.046 1.528 158.23 1.24V1.096L163.774 0.231998H163.87V8.368C164.998 7.216 166.51 6.136 168.19 6.136C170.47 6.136 171.406 7.48 171.406 9.88Z" fill="#111111"/>
</svg>
