<svg width="288" height="288" viewBox="0 0 288 288" fill="none" xmlns="http://www.w3.org/2000/svg">
<g clip-path="url(#clip0_1249_1741)">
<rect width="288" height="288" rx="4" fill="#F1F1F1"/>
<path fill-rule="evenodd" clip-rule="evenodd" d="M48 -39.5959C42.918 -44.7821 35.8347 -48 28 -48C12.536 -48 0 -35.464 0 -20C0 -12.1653 3.2179 -5.08203 8.40405 0C3.2179 5.08203 0 12.1653 0 20C0 35.464 12.536 48 28 48C12.536 48 0 60.536 0 76C0 83.8347 3.2179 90.918 8.40405 96C3.2179 101.082 0 108.165 0 116C0 131.464 12.536 144 28 144C35.8347 144 42.918 140.782 48 135.596C53.082 140.782 60.1653 144 68 144C83.464 144 96 131.464 96 116C96 131.464 108.536 144 124 144C131.835 144 138.918 140.782 144 135.596C149.082 140.782 156.165 144 164 144C179.464 144 192 131.464 192 116C192 131.464 204.536 144 220 144C227.835 144 234.918 140.782 240 135.596C245.082 140.782 252.165 144 260 144C275.464 144 288 131.464 288 116C288 108.165 284.782 101.082 279.596 96C284.782 90.918 288 83.8347 288 76C288 60.536 275.464 48 260 48C275.464 48 288 35.464 288 20C288 12.1653 284.782 5.08203 279.596 0C284.782 -5.08203 288 -12.1653 288 -20C288 -35.464 275.464 -48 260 -48C252.165 -48 245.082 -44.7821 240 -39.5959C234.918 -44.7821 227.835 -48 220 -48C204.536 -48 192 -35.464 192 -20C192 -35.464 179.464 -48 164 -48C156.165 -48 149.082 -44.7821 144 -39.5959C138.918 -44.7821 131.835 -48 124 -48C108.536 -48 96 -35.464 96 -20C96 -35.464 83.464 -48 68 -48C60.1653 -48 53.082 -44.7821 48 -39.5959ZM96 20C96 12.1653 92.7822 5.08203 87.5959 0C92.7822 -5.08203 96 -12.1653 96 -20C96 -12.1653 99.2179 -5.08203 104.404 0C99.2179 5.08203 96 12.1653 96 20ZM124 48C108.536 48 96 35.464 96 20C96 35.464 83.464 48 68 48C60.1653 48 53.082 44.7821 48 39.5959C42.918 44.7821 35.8347 48 28 48C35.8347 48 42.918 51.2179 48 56.4041C53.082 51.2179 60.1653 48 68 48C83.464 48 96 60.536 96 76C96 83.8347 92.7822 90.918 87.5959 96C92.7822 101.082 96 108.165 96 116C96 108.165 99.2179 101.082 104.404 96C99.2179 90.918 96 83.8347 96 76C96 60.536 108.536 48 124 48ZM164 48C156.165 48 149.082 44.7821 144 39.5959C138.918 44.7821 131.835 48 124 48C131.835 48 138.918 51.2179 144 56.4041C149.082 51.2179 156.165 48 164 48ZM192 20C192 12.1653 188.782 5.08203 183.596 0C188.782 -5.08203 192 -12.1653 192 -20C192 -12.1653 195.218 -5.08203 200.404 0C195.218 5.08203 192 12.1653 192 20ZM220 48C227.835 48 234.918 51.2179 240 56.4041C245.082 51.2179 252.165 48 260 48C252.165 48 245.082 44.7821 240 39.5959C234.918 44.7821 227.835 48 220 48ZM192 76C192 60.536 179.464 48 164 48C179.464 48 192 35.464 192 20C192 35.464 204.536 48 220 48C204.536 48 192 60.536 192 76ZM192 76C192 83.8347 188.782 90.918 183.596 96C188.782 101.082 192 108.165 192 116C192 108.165 195.218 101.082 200.404 96C195.218 90.918 192 83.8347 192 76Z" fill="url(#paint0_linear_1249_1741)"/>
<rect y="180" width="288" height="108" fill="url(#paint1_linear_1249_1741)"/>
<rect x="0.5" y="0.5" width="287" height="287" rx="3.5" stroke="#111111"/>
<path d="M31.4612 27.4259L30.5388 29.4584L29 24L27.4612 29.4584L26.5388 27.4259L24 33H26.4612H28.9223H29.0728H31.534H34L31.4612 27.4259Z" fill="#111111"/>
<path d="M41.4612 27.4259L40.5388 29.4584L39 24L37.4612 29.4584L36.5388 27.4259L34 33H36.4612H38.9223H39.0728H41.534H44L41.4612 27.4259Z" fill="#111111"/>
<path d="M51.4612 27.4259L50.5388 29.4584L49 24L47.4612 29.4584L46.5388 27.4259L44 33H46.4612H48.9223H49.0728H51.534H54L51.4612 27.4259Z" fill="#111111"/>
<line x1="62" y1="28.5" x2="250" y2="28.5" stroke="#111111"/>
<path d="M265 23.9471L267.164 22L267.743 24.8146L270.664 24.4805L269.441 27.0959L272 28.5032L269.441 29.9105L270.664 32.5195L267.743 32.1854L267.164 35L265 33.0593L262.836 35L262.257 32.1854L259.342 32.5195L260.566 29.9105L258 28.5032L260.566 27.0959L259.342 24.4805L262.257 24.8146L262.836 22L265 23.9471Z" fill="#111111"/>
<g clip-path="url(#clip1_1249_1741)">
<path d="M27.7742 258.158C24.6976 259.926 23.1988 263.079 24.4305 265.202C25.6621 267.325 29.1493 267.606 32.226 265.838C35.3027 264.069 36.7965 260.916 35.5698 258.798C34.3431 256.68 30.8509 256.394 27.7742 258.158ZM30.6184 263.064C29.7924 263.542 28.8427 263.448 28.5014 262.857C28.1601 262.266 28.5558 261.404 29.3818 260.926C30.2079 260.448 31.1576 260.542 31.4989 261.133C31.8402 261.724 31.4445 262.586 30.6184 263.064Z" fill="#111111"/>
</g>
<path d="M45.2003 258.928H46.4641V266H45.3349L41.9855 261.169H41.9268V266H40.6595V258.928H41.8025L45.1381 263.762H45.2003V258.928ZM50.0335 266.104C49.5225 266.104 49.0747 265.991 48.6903 265.765C48.3081 265.537 48.0123 265.217 47.8028 264.805C47.5957 264.391 47.4921 263.912 47.4921 263.369C47.4921 262.826 47.5957 262.347 47.8028 261.932C48.0123 261.518 48.3081 261.197 48.6903 260.969C49.0747 260.741 49.5225 260.627 50.0335 260.627C50.5446 260.627 50.9911 260.741 51.3733 260.969C51.7577 261.197 52.0535 261.518 52.2607 261.932C52.4679 262.347 52.5715 262.826 52.5715 263.369C52.5715 263.912 52.4679 264.391 52.2607 264.805C52.0535 265.217 51.7577 265.537 51.3733 265.765C50.9911 265.991 50.5446 266.104 50.0335 266.104ZM50.037 265.109C50.3109 265.109 50.5434 265.033 50.7345 264.881C50.9255 264.727 51.0694 264.519 51.1661 264.256C51.2628 263.994 51.3111 263.697 51.3111 263.365C51.3111 263.034 51.2628 262.736 51.1661 262.471C51.0694 262.206 50.9255 261.997 50.7345 261.843C50.5434 261.688 50.3109 261.611 50.037 261.611C49.7584 261.611 49.5225 261.688 49.3291 261.843C49.1357 261.997 48.9907 262.206 48.894 262.471C48.7973 262.736 48.749 263.034 48.749 263.365C48.749 263.697 48.7973 263.994 48.894 264.256C48.9907 264.519 49.1357 264.727 49.3291 264.881C49.5225 265.033 49.7584 265.109 50.037 265.109ZM55.7965 266H54.5016L52.9996 260.696H54.2668L55.2026 264.432H55.2509L56.204 260.696H57.4609L58.4174 264.412H58.4657L59.3911 260.696H60.6584L59.1563 266H57.8649L56.8635 262.405H56.7944L55.7965 266ZM66.537 258.928C67.0664 258.928 67.5176 259.028 67.8906 259.229C68.2658 259.427 68.549 259.703 68.74 260.057C68.9334 260.41 69.0301 260.814 69.0301 261.269C69.0301 261.727 68.9334 262.133 68.74 262.485C68.5466 262.837 68.2612 263.112 67.8837 263.31C67.5061 263.508 67.0515 263.607 66.5197 263.607H65.1592V266H63.892V258.928H66.537ZM66.3505 262.561C66.659 262.561 66.9157 262.507 67.1205 262.398C67.3277 262.29 67.4808 262.14 67.5798 261.946C67.6811 261.753 67.7317 261.527 67.7317 261.269C67.7317 260.876 67.6155 260.565 67.383 260.337C67.1528 260.107 66.8063 259.992 66.3436 259.992H65.1592V262.561H66.3505ZM70.0051 258.928H71.2482V266H70.0051V258.928ZM74.6012 260.627C74.9719 260.627 75.3195 260.685 75.644 260.8C75.9709 260.915 76.2391 261.109 76.4486 261.383C76.6604 261.655 76.7663 262.012 76.7663 262.454V266H75.575V265.271H75.5335C75.4069 265.515 75.2124 265.716 74.95 265.872C74.6899 266.029 74.3653 266.107 73.9762 266.107C73.6332 266.107 73.3271 266.046 73.0577 265.924C72.7907 265.8 72.58 265.618 72.4258 265.378C72.2739 265.139 72.1979 264.85 72.1979 264.512C72.1979 263.964 72.3821 263.568 72.7504 263.324C73.121 263.08 73.5952 262.938 74.1731 262.899C74.4401 262.881 74.8924 262.858 75.5301 262.83L75.5266 262.402C75.5266 262.14 75.4438 261.937 75.278 261.794C75.1146 261.649 74.8775 261.577 74.5667 261.577C74.2951 261.577 74.0741 261.633 73.9037 261.746C73.7357 261.859 73.6275 262.013 73.5791 262.209H72.374C72.4039 261.907 72.5121 261.637 72.6986 261.397C72.8851 261.158 73.1406 260.97 73.4652 260.834C73.7898 260.696 74.1684 260.627 74.6012 260.627ZM74.2939 265.192C74.5379 265.192 74.7543 265.142 74.9431 265.044C75.1318 264.945 75.2769 264.812 75.3782 264.646C75.4818 264.478 75.5335 264.295 75.5335 264.097L75.5301 263.659C75.369 263.668 75.1641 263.681 74.9155 263.697C74.6668 263.713 74.4838 263.727 74.3664 263.738C74.0626 263.761 73.8254 263.837 73.6551 263.966C73.4847 264.093 73.3996 264.269 73.3996 264.494C73.3996 264.718 73.4813 264.89 73.6447 265.012C73.8082 265.132 74.0246 265.192 74.2939 265.192ZM78.4951 267.989C78.2166 267.989 78.0013 267.981 77.8494 267.965L77.8529 266.967C77.9795 266.978 78.1544 266.984 78.3777 266.984C78.502 266.984 78.6056 266.973 78.6885 266.95C78.7714 266.929 78.8508 266.875 78.9268 266.787C79.005 266.702 79.0775 266.571 79.1443 266.394L79.2548 266.11L77.328 260.696H78.6471L79.8729 264.705H79.9281L81.1609 260.696H82.4834L80.3563 266.646C80.1975 267.085 79.9684 267.419 79.6692 267.647C79.3699 267.875 78.9785 267.989 78.4951 267.989ZM84.5099 266H83.2668V260.696H84.5099V266ZM83.8918 259.94C83.7606 259.94 83.6386 259.91 83.5258 259.85C83.4153 259.79 83.3278 259.709 83.2634 259.605C83.1989 259.501 83.1667 259.389 83.1667 259.267C83.1667 259.142 83.1989 259.028 83.2634 258.925C83.3278 258.821 83.4153 258.739 83.5258 258.68C83.6386 258.62 83.7606 258.59 83.8918 258.59C84.0208 258.59 84.1393 258.621 84.2475 258.683C84.358 258.743 84.4455 258.825 84.5099 258.928C84.5767 259.032 84.6101 259.145 84.6101 259.267C84.6101 259.389 84.5767 259.501 84.5099 259.605C84.4455 259.709 84.358 259.79 84.2475 259.85C84.1393 259.91 84.0208 259.94 83.8918 259.94ZM86.9513 266H85.7083V260.696H86.8961V261.597H86.9617C87.086 261.294 87.2828 261.056 87.5522 260.886C87.8215 260.713 88.1507 260.627 88.5397 260.627C88.9058 260.627 89.2246 260.705 89.4962 260.862C89.7702 261.018 89.982 261.247 90.1316 261.549C90.2812 261.848 90.356 262.206 90.356 262.623V266H89.1129V262.813C89.1129 262.578 89.0715 262.375 88.9886 262.205C88.9058 262.035 88.7861 261.905 88.6295 261.815C88.4753 261.725 88.2911 261.68 88.077 261.68C87.856 261.68 87.6604 261.729 87.49 261.825C87.322 261.92 87.1896 262.059 87.0929 262.243C86.9985 262.425 86.9513 262.641 86.9513 262.892V266ZM93.8513 268.099C93.3886 268.099 92.9834 268.034 92.6358 267.903C92.2882 267.771 92.0143 267.583 91.814 267.336C91.6137 267.092 91.4998 266.805 91.4721 266.473H92.7152C92.759 266.703 92.881 266.875 93.0812 266.988C93.2838 267.103 93.5474 267.16 93.872 267.16C94.2633 267.16 94.5672 267.07 94.7836 266.891C95 266.711 95.1082 266.433 95.1082 266.055V265.047H95.046C94.9263 265.289 94.7445 265.496 94.5004 265.669C94.2564 265.839 93.9295 265.924 93.5198 265.924C93.1031 265.924 92.729 265.824 92.3975 265.624C92.0661 265.423 91.8048 265.128 91.6137 264.736C91.4249 264.343 91.3306 263.866 91.3306 263.307C91.3306 262.743 91.4261 262.259 91.6172 261.856C91.8082 261.451 92.0695 261.145 92.401 260.938C92.7325 260.731 93.1066 260.627 93.5232 260.627C93.9376 260.627 94.261 260.719 94.4935 260.903C94.7283 261.087 94.9137 261.31 95.0495 261.57H95.1116V260.696H96.3375V266.086C96.3375 266.526 96.2316 266.897 96.0198 267.198C95.8103 267.5 95.5191 267.725 95.1462 267.875C94.7732 268.025 94.3416 268.099 93.8513 268.099ZM93.8616 264.947C94.1264 264.947 94.3531 264.882 94.5419 264.753C94.7306 264.625 94.8734 264.439 94.9701 264.198C95.069 263.953 95.1185 263.662 95.1185 263.324C95.1185 262.985 95.069 262.691 94.9701 262.44C94.8734 262.189 94.7306 261.994 94.5419 261.856C94.3531 261.718 94.1264 261.649 93.8616 261.649C93.59 261.649 93.3586 261.721 93.1676 261.863C92.9788 262.006 92.8361 262.204 92.7394 262.457C92.645 262.708 92.5978 262.997 92.5978 263.324C92.5978 263.653 92.6462 263.94 92.7428 264.184C92.8395 264.428 92.9823 264.616 93.171 264.75C93.3621 264.881 93.5923 264.947 93.8616 264.947ZM100.671 266.076C100.532 266.076 100.405 266.043 100.287 265.976C100.172 265.907 100.08 265.815 100.011 265.7C99.9443 265.582 99.9121 265.456 99.9144 265.32C99.9121 265.184 99.9443 265.058 100.011 264.943C100.08 264.828 100.172 264.737 100.287 264.671C100.405 264.604 100.532 264.57 100.671 264.57C100.804 264.57 100.928 264.604 101.044 264.671C101.161 264.737 101.254 264.828 101.323 264.943C101.392 265.058 101.427 265.184 101.427 265.32C101.427 265.456 101.392 265.582 101.323 265.7C101.254 265.815 101.161 265.907 101.044 265.976C100.928 266.043 100.804 266.076 100.671 266.076ZM103.395 266.076C103.257 266.076 103.129 266.043 103.012 265.976C102.897 265.907 102.805 265.815 102.736 265.7C102.669 265.582 102.637 265.456 102.639 265.32C102.637 265.184 102.669 265.058 102.736 264.943C102.805 264.828 102.897 264.737 103.012 264.671C103.129 264.604 103.257 264.57 103.395 264.57C103.529 264.57 103.653 264.604 103.768 264.671C103.886 264.737 103.979 264.828 104.048 264.943C104.117 265.058 104.151 265.184 104.151 265.32C104.151 265.456 104.117 265.582 104.048 265.7C103.979 265.815 103.886 265.907 103.768 265.976C103.653 266.043 103.529 266.076 103.395 266.076ZM106.12 266.076C105.982 266.076 105.854 266.043 105.737 265.976C105.621 265.907 105.529 265.815 105.46 265.7C105.394 265.582 105.361 265.456 105.364 265.32C105.361 265.184 105.394 265.058 105.46 264.943C105.529 264.828 105.621 264.737 105.737 264.671C105.854 264.604 105.982 264.57 106.12 264.57C106.253 264.57 106.378 264.604 106.493 264.671C106.61 264.737 106.703 264.828 106.772 264.943C106.841 265.058 106.876 265.184 106.876 265.32C106.876 265.456 106.841 265.582 106.772 265.7C106.703 265.815 106.61 265.907 106.493 265.976C106.378 266.043 106.253 266.076 106.12 266.076Z" fill="#111111"/>
</g>
<defs>
<linearGradient id="paint0_linear_1249_1741" x1="144" y1="0" x2="144" y2="144" gradientUnits="userSpaceOnUse">
<stop stop-color="#C5C5C5" stop-opacity="0.8"/>
<stop offset="1" stop-color="white" stop-opacity="0"/>
</linearGradient>
<linearGradient id="paint1_linear_1249_1741" x1="144" y1="180" x2="144" y2="288" gradientUnits="userSpaceOnUse">
<stop stop-color="white" stop-opacity="0"/>
<stop offset="1" stop-color="#C5C5C5" stop-opacity="0.3"/>
</linearGradient>
<clipPath id="clip0_1249_1741">
<rect width="288" height="288" rx="4" fill="white"/>
</clipPath>
<clipPath id="clip1_1249_1741">
<rect width="12" height="10" fill="white" transform="translate(24 257)"/>
</clipPath>
</defs>
</svg>
