<svg width="162" height="112" viewBox="0 0 162 112" fill="none" xmlns="http://www.w3.org/2000/svg">
<path d="M160.423 24.7613H141.523C140.649 24.7613 139.766 24.5889 138.985 24.1837C137.108 23.218 135.606 21.692 134.655 19.7866C134.256 18.9934 134.086 18.0968 134.086 17.2087V1.58627C134.086 1.25865 133.823 1 133.508 1C133.194 1 132.931 1.26727 132.931 1.58627V17.2087C132.931 18.0968 132.761 18.9934 132.362 19.7866C131.411 21.692 129.909 23.218 128.032 24.1837C127.251 24.5889 126.368 24.7613 125.494 24.7613H106.577C106.255 24.7613 106 25.0286 106 25.3476C106 25.6666 106.263 25.9339 106.577 25.9339H125.494C126.368 25.9339 127.251 26.1063 128.032 26.5115C129.909 27.4771 131.411 29.0032 132.362 30.9086C132.761 31.7018 132.931 32.5984 132.931 33.4864V76.4137C132.931 76.7414 133.194 77 133.508 77C133.823 77 134.086 76.7327 134.086 76.4137V33.4864C134.086 32.5984 134.256 31.7018 134.655 30.9086C135.606 29.0032 137.108 27.4771 138.985 26.5115C139.766 26.1063 140.649 25.9339 141.523 25.9339H160.423C160.745 25.9339 161 25.6666 161 25.3476C161 25.0286 160.737 24.7613 160.423 24.7613Z" fill="white" stroke="#111111" stroke-width="0.5" stroke-miterlimit="10"/>
<path d="M36.6221 76.6324H24.2516C23.6792 76.6324 23.1013 76.519 22.59 76.2524C21.3618 75.6171 20.3782 74.6132 19.7558 73.3596C19.4946 72.8378 19.3835 72.2479 19.3835 71.6636V61.3857C19.3835 61.1702 19.2112 61 19.0056 61C18.7999 61 18.6277 61.1758 18.6277 61.3857V71.6636C18.6277 72.2479 18.5165 72.8378 18.2553 73.3596C17.6329 74.6132 16.6493 75.6171 15.4211 76.2524C14.9098 76.519 14.3319 76.6324 13.7595 76.6324H1.37789C1.16672 76.6324 1 76.8083 1 77.0182C1 77.228 1.17228 77.4039 1.37789 77.4039H13.7595C14.3319 77.4039 14.9098 77.5173 15.4211 77.7839C16.6493 78.4192 17.6329 79.4231 18.2553 80.6767C18.5165 81.1985 18.6277 81.7884 18.6277 82.3727V110.614C18.6277 110.83 18.7999 111 19.0056 111C19.2112 111 19.3835 110.824 19.3835 110.614V82.3727C19.3835 81.7884 19.4946 81.1985 19.7558 80.6767C20.3782 79.4231 21.3618 78.4192 22.59 77.7839C23.1013 77.5173 23.6792 77.4039 24.2516 77.4039H36.6221C36.8333 77.4039 37 77.228 37 77.0182C37 76.8083 36.8277 76.6324 36.6221 76.6324Z" fill="white" stroke="#111111" stroke-width="0.5" stroke-miterlimit="10"/>
</svg>
