<svg width="141" height="78" viewBox="0 0 141 78" fill="none" xmlns="http://www.w3.org/2000/svg">
<g filter="url(#filter0_d_1202_338)">
<path d="M38.9807 7.032C38.9807 5.556 37.7567 5.592 36.5687 5.592V4.8H44.9567V5.592C43.8047 5.592 42.5447 5.556 42.5447 6.996V27.876C42.5447 29.316 43.8047 29.28 44.9567 29.28V30.072H36.5687V29.28C37.7567 29.28 38.9807 29.316 38.9807 27.84V17.832H27.5327V27.876C27.5327 29.316 28.7927 29.28 29.9447 29.28V30.072H21.5567V29.28C22.7087 29.28 23.9687 29.316 23.9687 27.84V7.032C23.9687 5.556 22.7087 5.592 21.5567 5.592V4.8H29.9447V5.592C28.7927 5.592 27.5327 5.556 27.5327 6.996V17.04H38.9807V7.032ZM50.8295 15.564C50.9015 16.608 49.9655 17.184 49.0655 17.04C48.1295 16.86 47.5175 15.816 48.0215 14.88C48.8855 13.296 52.7375 12.612 54.2855 12.612C58.2815 12.612 62.1695 13.332 61.8815 19.668V27.768C61.8815 29.244 63.0335 29.172 64.1135 29.172V30H58.4975V27.264C57.4175 28.956 55.4735 30 52.4135 30C48.7775 30 45.4655 27.444 45.4655 24.276C45.4655 21.108 48.2735 18.552 52.7375 18.552C55.4735 18.552 57.3095 19.308 58.4975 21.072C58.6055 11.388 50.6135 12.864 50.8295 15.564ZM58.4975 23.52C58.1375 21.072 56.1215 19.344 53.6735 19.38C50.6135 19.38 48.7775 21.396 48.7775 24.276C48.7775 27.156 50.6135 29.172 53.6735 29.172C56.1215 29.208 58.1375 27.48 58.4975 25.032V23.52ZM66.2097 15.708C66.2097 14.628 65.5257 14.376 64.6977 14.304V13.476C65.7777 13.476 68.6217 13.548 69.1977 12.612H69.7737V13.44C70.8897 12.9 72.1497 12.612 73.4817 12.612C78.3057 12.612 82.1937 16.5 82.1937 21.288C82.1937 26.112 78.3057 30 73.4817 30C72.1497 30 70.8897 29.712 69.7737 29.172V35.688C69.7737 37.128 71.0337 37.092 72.1857 37.092V37.884H63.7977V37.092C64.9497 37.092 66.2097 37.128 66.2097 35.652V15.708ZM73.4817 13.404C72.0417 13.404 70.7097 14.304 69.7737 15.816V26.796C70.7097 28.272 72.0417 29.208 73.4817 29.208C76.3617 29.208 78.6657 25.68 78.6657 21.288C78.6657 16.932 76.3617 13.404 73.4817 13.404ZM85.0534 15.708C85.0534 14.628 84.3694 14.376 83.5414 14.304V13.476C84.6214 13.476 87.4654 13.548 88.0414 12.612H88.6174V13.44C89.7334 12.9 90.9934 12.612 92.3254 12.612C97.1494 12.612 101.037 16.5 101.037 21.288C101.037 26.112 97.1494 30 92.3254 30C90.9934 30 89.7334 29.712 88.6174 29.172V35.688C88.6174 37.128 89.8774 37.092 91.0294 37.092V37.884H82.6414V37.092C83.7934 37.092 85.0534 37.128 85.0534 35.652V15.708ZM92.3254 13.404C90.8854 13.404 89.5534 14.304 88.6174 15.816V26.796C89.5534 28.272 90.8854 29.208 92.3254 29.208C95.2054 29.208 97.5094 25.68 97.5094 21.288C97.5094 16.932 95.2054 13.404 92.3254 13.404ZM110.129 30C108.941 32.628 107.789 35.256 106.601 37.884H103.721L103.829 37.092C103.829 37.092 106.133 37.092 106.925 35.364L109.625 29.316L103.145 14.844C102.497 13.368 101.273 13.404 100.121 13.404L100.013 12.612H108.113L108.221 13.404C107.177 13.404 106.097 13.476 106.709 14.808L111.389 25.32L115.673 15.744C115.889 15.276 116.069 14.808 116.285 14.304C116.645 13.512 115.385 13.44 114.737 13.404L114.809 12.612H119.993L119.885 13.404C119.093 13.404 117.761 13.368 117.221 14.124L110.129 30ZM18.5744 52.536C20.5184 51.672 21.8504 49.656 21.8864 47.28C21.8144 42.456 18.2504 41.592 14.3984 41.592C13.5704 41.592 10.7984 41.7 10.7984 42.744V52.932H15.3344C16.3784 52.932 17.5664 52.932 18.5744 52.536ZM15.1184 65.28C18.8984 65.28 22.8944 64.2 22.9664 59.556C22.9304 56.964 21.3104 54.624 18.7184 54.012C17.5304 53.796 16.4864 53.724 15.2984 53.724H10.7984V63.876C10.7984 65.424 14.0744 65.28 15.1184 65.28ZM14.7944 40.8C19.2584 40.8 25.4864 41.196 25.4864 47.208V47.388C25.4864 50.772 22.7504 52.536 19.5464 53.292C23.1824 53.94 26.5664 55.704 26.5664 59.448V59.664C26.5664 64.128 21.8504 65.82 17.5304 66.072H4.82236V65.28C5.97436 65.28 7.23436 65.316 7.23436 63.84V43.032C7.23436 41.556 5.97436 41.592 4.82236 41.592V40.8H14.7944ZM31.3912 40.728C32.5792 40.728 33.5152 41.664 33.5152 42.816C33.5152 43.968 32.5792 44.904 31.3912 44.904C30.2392 44.904 29.3032 43.968 29.3032 42.816C29.3032 41.664 30.2392 40.728 31.3912 40.728ZM29.6272 63.768V51.708C29.6272 50.628 28.9432 50.376 28.1152 50.304V49.476C29.1952 49.476 32.0392 49.548 32.6152 48.612H33.1912V63.768C33.1912 65.244 34.4512 65.172 35.6032 65.172V66H27.2152V65.172C28.3672 65.172 29.6272 65.244 29.6272 63.768ZM48.8127 48.648C50.0007 48.864 50.9727 49.512 50.9727 50.7C50.9727 52.716 48.0927 53.148 47.4807 51.24C46.6887 48.792 42.8367 50.7 42.2967 55.56V63.768C42.2967 65.244 43.5567 65.172 44.7087 65.172V66H36.3207V65.172C37.4727 65.172 38.7327 65.244 38.7327 63.768V51.708C38.7327 50.628 38.0487 50.376 37.2207 50.304V49.476C38.3007 49.476 41.1447 49.548 41.7207 48.612H42.2967L42.3687 52.356C43.7367 49.188 46.5087 48.216 48.8127 48.648ZM57.1576 46.956H59.8216V47.784H57.1576V59.016C57.1576 60.924 55.0336 62.292 55.7536 63.948C56.1136 64.776 57.3376 65.028 57.6616 64.056C58.1296 62.58 60.3256 62.904 60.3256 64.452C60.3256 66.468 56.8696 66.612 55.5376 65.352C53.7376 63.624 53.5936 61.068 53.5936 59.016V47.784H52.0816V46.956C54.8536 46.632 56.5816 44.544 56.5816 42.924V42.816H57.1576V46.956ZM63.5496 63.768V43.824C63.5496 42.744 62.8656 42.456 62.0376 42.42V41.592C63.1176 41.592 65.9616 41.664 66.5376 40.728H67.1136V51.852C68.4816 49.836 70.6416 48.612 72.9816 48.612C75.9696 48.612 77.8056 50.484 77.8056 53.256V63.768C77.7696 65.244 79.0296 65.172 80.1816 65.172V66H71.7936V65.172C72.9816 65.172 74.2056 65.244 74.2056 63.768V52.032C74.2056 48.468 68.3736 49.332 67.1136 54.48V63.768C67.1136 65.244 68.3736 65.208 69.5256 65.208V66H61.1376V65.208C62.2896 65.208 63.5496 65.244 63.5496 63.768ZM93.3098 43.824C93.3098 42.744 92.6258 42.456 91.7978 42.42V41.592C92.8778 41.592 95.7218 41.664 96.2978 40.728H96.8738V63.768C96.8738 65.244 98.0978 65.172 99.2858 65.172V66H93.3098V62.976C91.7978 65.244 90.4658 66 87.6218 66C83.6618 66 80.1338 62.112 80.1338 57.288C80.1338 52.5 83.6618 48.612 87.6218 48.612C90.4658 48.612 92.2298 49.404 93.3098 51.024V43.824ZM93.3098 53.292C92.8778 50.952 90.7178 49.404 88.8458 49.404C85.6058 49.404 83.6618 52.932 83.6618 57.288C83.6618 61.68 85.6058 65.208 88.8458 65.208C90.7178 65.208 92.4098 63.624 93.3098 61.284V53.292ZM105.04 51.564C105.112 52.608 104.176 53.184 103.276 53.04C102.34 52.86 101.728 51.816 102.232 50.88C103.096 49.296 106.948 48.612 108.496 48.612C112.492 48.612 116.38 49.332 116.092 55.668V63.768C116.092 65.244 117.244 65.172 118.324 65.172V66H112.708V63.264C111.628 64.956 109.684 66 106.624 66C102.988 66 99.6765 63.444 99.6765 60.276C99.6765 57.108 102.484 54.552 106.948 54.552C109.684 54.552 111.52 55.308 112.708 57.072C112.816 47.388 104.824 48.864 105.04 51.564ZM112.708 59.52C112.348 57.072 110.332 55.344 107.884 55.38C104.824 55.38 102.988 57.396 102.988 60.276C102.988 63.156 104.824 65.172 107.884 65.172C110.332 65.208 112.348 63.48 112.708 61.032V59.52ZM126.863 66C125.675 68.628 124.523 71.256 123.335 73.884H120.455L120.563 73.092C120.563 73.092 122.867 73.092 123.659 71.364L126.359 65.316L119.879 50.844C119.231 49.368 118.007 49.404 116.855 49.404L116.747 48.612H124.847L124.955 49.404C123.911 49.404 122.831 49.476 123.443 50.808L128.123 61.32L132.407 51.744C132.623 51.276 132.803 50.808 133.019 50.304C133.379 49.512 132.119 49.44 131.471 49.404L131.543 48.612H136.727L136.619 49.404C135.827 49.404 134.495 49.368 133.955 50.124L126.863 66Z" fill="#111111"/>
</g>
<defs>
<filter id="filter0_d_1202_338" x="0.822388" y="0.799988" width="139.905" height="77.084" filterUnits="userSpaceOnUse" color-interpolation-filters="sRGB">
<feFlood flood-opacity="0" result="BackgroundImageFix"/>
<feColorMatrix in="SourceAlpha" type="matrix" values="0 0 0 0 0 0 0 0 0 0 0 0 0 0 0 0 0 0 127 0" result="hardAlpha"/>
<feOffset/>
<feGaussianBlur stdDeviation="2"/>
<feComposite in2="hardAlpha" operator="out"/>
<feColorMatrix type="matrix" values="0 0 0 0 1 0 0 0 0 1 0 0 0 0 1 0 0 0 0.7 0"/>
<feBlend mode="normal" in2="BackgroundImageFix" result="effect1_dropShadow_1202_338"/>
<feBlend mode="normal" in="SourceGraphic" in2="effect1_dropShadow_1202_338" result="shape"/>
</filter>
</defs>
</svg>
