<svg width="170" height="71" viewBox="0 0 170 71" fill="none" xmlns="http://www.w3.org/2000/svg">
<g filter="url(#filter0_d_340_422)">
<path d="M17.5345 17.436C17.5345 10.452 23.1865 4.8 30.1705 4.8C31.6825 4.8 33.1585 5.052 34.5625 5.592C35.6065 5.916 36.1105 5.7 36.1105 4.98L36.0745 4.8H36.9025L37.7665 9.588H36.9745C35.3185 7.14 32.8705 5.592 30.1705 5.592C25.1665 5.592 21.0985 10.92 21.0985 17.436C21.0985 23.988 25.1665 29.28 30.1705 29.28C32.8705 29.28 35.3185 27.732 36.9745 25.284H37.7665L38.6665 30.072H37.8385C37.5505 28.92 36.7585 28.524 35.4985 28.956C33.5905 29.568 32.4385 30.072 30.1705 30.072C23.1865 30.072 17.5345 24.42 17.5345 17.436ZM45.0092 15.564C45.0812 16.608 44.1452 17.184 43.2452 17.04C42.3092 16.86 41.6972 15.816 42.2012 14.88C43.0652 13.296 46.9172 12.612 48.4652 12.612C52.4612 12.612 56.3492 13.332 56.0612 19.668V27.768C56.0612 29.244 57.2132 29.172 58.2932 29.172V30H52.6772V27.264C51.5972 28.956 49.6532 30 46.5932 30C42.9572 30 39.6452 27.444 39.6452 24.276C39.6452 21.108 42.4532 18.552 46.9172 18.552C49.6532 18.552 51.4892 19.308 52.6772 21.072C52.7852 11.388 44.7932 12.864 45.0092 15.564ZM52.6772 23.52C52.3172 21.072 50.3012 19.344 47.8532 19.38C44.7932 19.38 42.9572 21.396 42.9572 24.276C42.9572 27.156 44.7932 29.172 47.8532 29.172C50.3012 29.208 52.3172 27.48 52.6772 25.032V23.52ZM72.2232 17.976C70.9632 14.664 69.3792 13.512 66.7512 13.512C64.9512 13.512 62.5752 14.412 62.5752 16.176C62.5752 19.596 73.1232 18.912 73.4832 24.672C73.7352 28.704 69.6672 30.108 66.0312 30C64.4472 30.036 62.4672 29.64 61.0272 29.172C60.8472 29.244 60.7752 29.388 60.8112 29.676L60.1272 29.64L59.2272 24.564L59.9112 24.6C60.8472 27.948 63.9072 29.1 66.3912 29.028C69.6672 28.92 70.8912 27.588 70.7112 26.076C70.2072 21.972 60.3072 22.944 59.6952 17.94C59.2272 13.908 63.5472 12.504 66.8232 12.612C68.3712 12.54 69.9912 12.936 71.4672 13.44C71.6112 13.332 71.7192 13.188 71.6472 12.9L72.3312 12.936L72.8712 18.012L72.2232 17.976ZM76.5027 27.768V7.824C76.5027 6.744 75.8187 6.456 74.9907 6.42V5.592C76.0707 5.592 78.9147 5.664 79.4907 4.728H80.0667V15.852C81.4347 13.836 83.5947 12.612 85.9347 12.612C88.9227 12.612 90.7587 14.484 90.7587 17.256V27.768C90.7227 29.244 91.9827 29.172 93.1347 29.172V30H84.7467V29.172C85.9347 29.172 87.1587 29.244 87.1587 27.768V16.032C87.1587 12.468 81.3267 13.332 80.0667 18.48V27.768C80.0667 29.244 81.3267 29.208 82.4787 29.208V30H74.0907V29.208C75.2427 29.208 76.5027 29.244 76.5027 27.768ZM132.036 27.876C132.036 29.316 133.296 29.28 134.448 29.28V30.072H126.06V29.28C127.212 29.28 128.472 29.316 128.472 27.84V7.032C128.472 6.924 128.436 6.816 128.436 6.744L120.768 25.608L119.004 30.036C115.872 22.368 112.776 14.7 109.68 7.032L109.572 6.816V27.876C109.572 29.244 110.796 29.28 111.876 29.28V30.072H106.44V29.28C107.592 29.28 108.744 29.244 108.744 27.84V5.916C108.168 5.592 107.412 5.592 106.692 5.592V4.8H114.72V5.592C113.676 5.592 112.704 5.7 113.244 6.996L120.372 24.636L127.968 5.916C127.5 5.592 126.78 5.592 126.06 5.592V4.8H134.448V5.592C133.296 5.592 132.036 5.556 132.036 6.996V27.876ZM148.888 20.496C148.996 16.14 146.98 13.404 143.74 13.404C141.04 13.404 138.844 16.5 138.556 20.496H148.888ZM138.556 21.792C138.7 30.72 147.88 31.008 150.724 24.996H151.192V28.02C151.12 28.092 148.42 28.848 147.628 29.172C146.404 29.712 145.036 30 143.74 30C139.636 30 134.92 27.156 135.064 21.072C135.172 16.068 139.204 12.612 143.74 12.612C148.528 12.612 152.776 16.176 152.416 21.324H138.556V21.792ZM10.4976 63.876C10.4976 65.316 11.7576 65.28 12.9096 65.28V66.072H4.52158V65.28C5.67358 65.28 6.93358 65.316 6.93358 63.84V43.032C6.93358 41.556 5.67358 41.592 4.52158 41.592V40.8H12.9096V41.592C11.7576 41.592 10.4976 41.556 10.4976 42.996V63.876ZM22.0083 50.304H19.7763V63.768C19.7763 65.244 21.0363 65.172 22.1883 65.172V66H13.8003V65.172C14.9523 65.172 16.2123 65.244 16.2123 63.768C16.2123 59.268 16.1763 54.804 16.2123 50.304H14.8803V49.476H16.2123V47.676C16.2123 45.66 17.0043 42.852 18.5883 41.664C20.3883 40.224 24.7803 40.26 24.7803 42.816C24.7803 44.868 21.9363 45.264 21.3243 43.356C20.8923 42.096 19.4883 42.42 18.8763 43.5C18.2643 44.616 19.7763 46.452 19.7763 47.712V49.476H22.0083V50.304ZM48.774 63.876C48.774 65.316 50.034 65.28 51.186 65.28V66.072H42.798V65.28C43.95 65.28 45.21 65.316 45.21 63.84V55.596L45.174 55.488L38.01 43.032C37.182 41.556 35.958 41.592 34.806 41.592V40.8H42.726V41.592C41.718 41.628 40.854 41.736 41.574 42.996L48.342 54.804L54.93 42.6C55.398 41.7 53.922 41.628 53.202 41.592V40.8H58.458V41.592C57.63 41.592 56.298 41.556 55.83 42.384L49.206 54.696C48.702 55.596 48.774 55.272 48.774 56.1V63.876ZM64.6739 48.612C69.9299 48.612 73.3499 52.032 73.3499 57.288C73.3499 62.58 69.9299 66 64.6739 66C59.3819 66 55.9619 62.58 55.9619 57.288C55.9619 52.032 59.3819 48.612 64.6739 48.612ZM69.8219 57.288C69.8219 52.5 67.7699 49.404 64.6739 49.404C61.5419 49.404 59.4899 52.5 59.4899 57.288C59.4899 62.112 61.5419 65.208 64.6739 65.208C67.7699 65.208 69.8219 62.112 69.8219 57.288ZM86.2537 51.708C86.2537 50.628 85.5697 50.376 84.7417 50.304V49.476C85.8217 49.476 88.6657 49.548 89.2417 48.612H89.8177V63.768C89.8177 65.244 91.0417 65.208 92.2297 65.208V66H86.2537V64.164C84.5617 65.28 82.9057 66.036 80.3857 66C78.0457 65.964 76.1737 64.92 76.1737 62.616V51.708C76.1737 50.628 75.4897 50.376 74.6617 50.304V49.476C75.7417 49.476 78.5857 49.548 79.1617 48.612H79.7377V51.708C79.7377 55.128 79.7377 58.548 79.7377 61.968V62.688C79.7377 66 83.4817 64.992 86.2537 62.76V52.284V51.708ZM105.706 53.436C105.706 46.452 111.358 40.8 118.342 40.8C119.854 40.8 121.33 41.052 122.734 41.592C123.778 41.916 124.282 41.7 124.282 40.98L124.246 40.8H125.074L125.938 45.588H125.146C123.49 43.14 121.042 41.592 118.342 41.592C113.338 41.592 109.27 46.92 109.27 53.436C109.27 59.988 113.338 65.28 118.342 65.28C121.042 65.28 123.49 63.732 125.146 61.284H125.938L126.838 66.072H126.01C125.722 64.92 124.93 64.524 123.67 64.956C121.762 65.568 120.61 66.072 118.342 66.072C111.358 66.072 105.706 60.42 105.706 53.436ZM133.181 51.564C133.253 52.608 132.317 53.184 131.417 53.04C130.481 52.86 129.869 51.816 130.373 50.88C131.237 49.296 135.089 48.612 136.637 48.612C140.633 48.612 144.521 49.332 144.233 55.668V63.768C144.233 65.244 145.385 65.172 146.465 65.172V66H140.849V63.264C139.769 64.956 137.825 66 134.765 66C131.129 66 127.817 63.444 127.817 60.276C127.817 57.108 130.625 54.552 135.089 54.552C137.825 54.552 139.661 55.308 140.849 57.072C140.957 47.388 132.965 48.864 133.181 51.564ZM140.849 59.52C140.489 57.072 138.473 55.344 136.025 55.38C132.965 55.38 131.129 57.396 131.129 60.276C131.129 63.156 132.965 65.172 136.025 65.172C138.473 65.208 140.489 63.48 140.849 61.032V59.52ZM149.631 63.768V51.708C149.631 50.628 148.947 50.376 148.119 50.304V49.476C149.199 49.476 152.043 49.548 152.619 48.612H153.195V51.204C154.815 49.476 156.183 48.612 158.667 48.612C161.403 48.612 163.275 49.692 163.275 53.184V63.768C163.275 65.244 164.535 65.208 165.687 65.208V66H157.299V65.208C158.451 65.208 159.711 65.244 159.711 63.768V52.608V51.924C159.711 48.612 154.923 48.9 153.195 53.148V63.768C153.195 65.244 154.455 65.208 155.607 65.208V66H147.219V65.208C148.371 65.208 149.631 65.244 149.631 63.768Z" fill="#111111"/>
</g>
<defs>
<filter id="filter0_d_340_422" x="0.521576" y="0.727539" width="169.166" height="69.3447" filterUnits="userSpaceOnUse" color-interpolation-filters="sRGB">
<feFlood flood-opacity="0" result="BackgroundImageFix"/>
<feColorMatrix in="SourceAlpha" type="matrix" values="0 0 0 0 0 0 0 0 0 0 0 0 0 0 0 0 0 0 127 0" result="hardAlpha"/>
<feOffset/>
<feGaussianBlur stdDeviation="2"/>
<feComposite in2="hardAlpha" operator="out"/>
<feColorMatrix type="matrix" values="0 0 0 0 1 0 0 0 0 0.52549 0 0 0 0 0.905882 0 0 0 0.7 0"/>
<feBlend mode="normal" in2="BackgroundImageFix" result="effect1_dropShadow_340_422"/>
<feBlend mode="normal" in="SourceGraphic" in2="effect1_dropShadow_340_422" result="shape"/>
</filter>
</defs>
</svg>
