<svg width="320" height="320" viewBox="0 0 320 320" fill="none" xmlns="http://www.w3.org/2000/svg">
<g filter="url(#filter0_d_382_556)">
<g clip-path="url(#clip0_382_556)">
<rect x="16" y="16" width="288" height="288" rx="4" fill="white"/>
<rect x="16" y="184" width="288" height="120" fill="url(#paint0_linear_382_556)"/>
<rect x="304" y="184" width="288" height="168" transform="rotate(-180 304 184)" fill="url(#paint1_linear_382_556)"/>
<path fill-rule="evenodd" clip-rule="evenodd" d="M112 15L64 -33L16 15L64 63L16 111L64 159L112 111L160 159L208 111L256 159L304 111L256 63L304 15L256 -33L208 15L160 -33L112 15ZM160 63L208 15L256 63L208 111L160 63ZM160 63L112 15L64 63L112 111L160 63Z" fill="url(#paint2_linear_382_556)"/>
<path fill-rule="evenodd" clip-rule="evenodd" d="M64 63L16 15L-32 63L16 111L64 63ZM160 63L112 15L64 63L112 111L160 63ZM256 63L208 111L160 63L208 15L256 63ZM256 63L304 15L352 63L304 111L256 63Z" fill="url(#paint3_linear_382_556)"/>
<path d="M227.938 285.329L226.462 288.491L224 280L221.538 288.491L220.062 285.329L216 294H219.938H223.876H224.117H228.054H232L227.938 285.329Z" fill="#111111"/>
<path d="M256.993 285.723V280H248V285.723C248 287.128 248.726 288.429 249.927 289.176L251.198 289.965V291.924L248.37 294H256.63L253.802 291.924V289.965L255.073 289.176C256.267 288.429 257 287.128 257 285.723H256.993Z" fill="#111111"/>
<path d="M280.5 282.097L282.819 280L283.439 283.031L286.569 282.671L285.258 285.488L288 287.003L285.258 288.519L286.569 291.329L283.439 290.969L282.819 294L280.5 291.91L278.181 294L277.561 290.969L274.438 291.329L275.749 288.519L273 287.003L275.749 285.488L274.438 282.671L277.561 283.031L278.181 280L280.5 282.097Z" fill="#111111"/>
</g>
</g>
<defs>
<filter id="filter0_d_382_556" x="0" y="0" width="320" height="320" filterUnits="userSpaceOnUse" color-interpolation-filters="sRGB">
<feFlood flood-opacity="0" result="BackgroundImageFix"/>
<feColorMatrix in="SourceAlpha" type="matrix" values="0 0 0 0 0 0 0 0 0 0 0 0 0 0 0 0 0 0 127 0" result="hardAlpha"/>
<feOffset/>
<feGaussianBlur stdDeviation="8"/>
<feComposite in2="hardAlpha" operator="out"/>
<feColorMatrix type="matrix" values="0 0 0 0 0.0666667 0 0 0 0 0.0666667 0 0 0 0 0.0666667 0 0 0 0.05 0"/>
<feBlend mode="normal" in2="BackgroundImageFix" result="effect1_dropShadow_382_556"/>
<feBlend mode="normal" in="SourceGraphic" in2="effect1_dropShadow_382_556" result="shape"/>
</filter>
<linearGradient id="paint0_linear_382_556" x1="160" y1="184" x2="160" y2="304" gradientUnits="userSpaceOnUse">
<stop stop-color="white" stop-opacity="0"/>
<stop offset="1" stop-color="#B4DEF5"/>
</linearGradient>
<linearGradient id="paint1_linear_382_556" x1="448" y1="184" x2="448" y2="352" gradientUnits="userSpaceOnUse">
<stop stop-color="white" stop-opacity="0"/>
<stop offset="1" stop-color="#B4DEF5"/>
</linearGradient>
<linearGradient id="paint2_linear_382_556" x1="160" y1="16" x2="160" y2="159" gradientUnits="userSpaceOnUse">
<stop stop-color="#FF86A5"/>
<stop offset="1" stop-color="white" stop-opacity="0"/>
</linearGradient>
<linearGradient id="paint3_linear_382_556" x1="160" y1="15" x2="160" y2="111" gradientUnits="userSpaceOnUse">
<stop stop-color="#B4DEF5"/>
<stop offset="0.9999" stop-color="#FFF3F6"/>
</linearGradient>
<clipPath id="clip0_382_556">
<rect x="16" y="16" width="288" height="288" rx="4" fill="white"/>
</clipPath>
</defs>
</svg>
