<svg width="320" height="320" viewBox="0 0 320 320" fill="none" xmlns="http://www.w3.org/2000/svg">
<g filter="url(#filter0_d_336_1074)">
<g clip-path="url(#clip0_336_1074)">
<rect x="16" y="16" width="288" height="288" rx="4" fill="white"/>
<circle cx="160" cy="192" r="72" fill="#EDEDED"/>
<rect x="16" y="184" width="288" height="120" fill="url(#paint0_linear_336_1074)"/>
<rect x="304" y="184" width="288" height="168" transform="rotate(-180 304 184)" fill="url(#paint1_linear_336_1074)"/>
<path fill-rule="evenodd" clip-rule="evenodd" d="M112 15L64 -33L16 15L64 63L16 111L64 159L112 111L160 159L208 111L256 159L304 111L256 63L304 15L256 -33L208 15L160 -33L112 15ZM160 63L208 15L256 63L208 111L160 63ZM160 63L112 15L64 63L112 111L160 63Z" fill="url(#paint2_linear_336_1074)"/>
<path fill-rule="evenodd" clip-rule="evenodd" d="M64 63L16 15L-32 63L16 111L64 63ZM160 63L112 15L64 63L112 111L160 63ZM256 63L208 111L160 63L208 15L256 63ZM256 63L304 15L352 63L304 111L256 63Z" fill="url(#paint3_linear_336_1074)"/>
<path d="M244.423 159.761H225.523C224.649 159.761 223.766 159.589 222.985 159.184C221.108 158.218 219.606 156.692 218.655 154.787C218.256 153.993 218.086 153.097 218.086 152.209V136.586C218.086 136.259 217.823 136 217.508 136C217.194 136 216.931 136.267 216.931 136.586V152.209C216.931 153.097 216.761 153.993 216.362 154.787C215.411 156.692 213.909 158.218 212.032 159.184C211.251 159.589 210.368 159.761 209.494 159.761H190.577C190.255 159.761 190 160.029 190 160.348C190 160.667 190.263 160.934 190.577 160.934H209.494C210.368 160.934 211.251 161.106 212.032 161.512C213.909 162.477 215.411 164.003 216.362 165.909C216.761 166.702 216.931 167.598 216.931 168.486V211.414C216.931 211.741 217.194 212 217.508 212C217.823 212 218.086 211.733 218.086 211.414V168.486C218.086 167.598 218.256 166.702 218.655 165.909C219.606 164.003 221.108 162.477 222.985 161.512C223.766 161.106 224.649 160.934 225.523 160.934H244.423C244.745 160.934 245 160.667 245 160.348C245 160.029 244.737 159.761 244.423 159.761Z" fill="white" stroke="#111111" stroke-width="0.5" stroke-miterlimit="10"/>
<path d="M120.622 211.632H108.252C107.679 211.632 107.101 211.519 106.59 211.252C105.362 210.617 104.378 209.613 103.756 208.36C103.495 207.838 103.383 207.248 103.383 206.664V196.386C103.383 196.17 103.211 196 103.006 196C102.8 196 102.628 196.176 102.628 196.386V206.664C102.628 207.248 102.517 207.838 102.255 208.36C101.633 209.613 100.649 210.617 99.4211 211.252C98.9098 211.519 98.3319 211.632 97.7595 211.632H85.3779C85.1667 211.632 85 211.808 85 212.018C85 212.228 85.1723 212.404 85.3779 212.404H97.7595C98.3319 212.404 98.9098 212.517 99.4211 212.784C100.649 213.419 101.633 214.423 102.255 215.677C102.517 216.199 102.628 216.788 102.628 217.373V245.614C102.628 245.83 102.8 246 103.006 246C103.211 246 103.383 245.824 103.383 245.614V217.373C103.383 216.788 103.495 216.199 103.756 215.677C104.378 214.423 105.362 213.419 106.59 212.784C107.101 212.517 107.679 212.404 108.252 212.404H120.622C120.833 212.404 121 212.228 121 212.018C121 211.808 120.828 211.632 120.622 211.632Z" fill="white" stroke="#111111" stroke-width="0.5" stroke-miterlimit="10"/>
<path d="M219.938 285.329L218.462 288.491L216 280L213.538 288.491L212.062 285.329L208 294H211.938H215.876H216.117H220.054H224L219.938 285.329Z" fill="#111111"/>
<path d="M256.602 286.686C255.587 286.048 253.206 285 248.501 285C243.787 285 241.416 286.048 240.401 286.686C240.002 286.933 239.888 287.448 240.116 287.857C240.97 289.4 243.986 293 248.501 293C253.016 293 256.032 289.4 256.886 287.857C257.114 287.448 256.99 286.933 256.602 286.686Z" fill="#111111"/>
<path d="M284.172 284.907V282H276.828V284.907H273V294H288V284.907H284.172Z" fill="#111111"/>
</g>
</g>
<defs>
<filter id="filter0_d_336_1074" x="0" y="0" width="320" height="320" filterUnits="userSpaceOnUse" color-interpolation-filters="sRGB">
<feFlood flood-opacity="0" result="BackgroundImageFix"/>
<feColorMatrix in="SourceAlpha" type="matrix" values="0 0 0 0 0 0 0 0 0 0 0 0 0 0 0 0 0 0 127 0" result="hardAlpha"/>
<feOffset/>
<feGaussianBlur stdDeviation="8"/>
<feComposite in2="hardAlpha" operator="out"/>
<feColorMatrix type="matrix" values="0 0 0 0 0.0666667 0 0 0 0 0.0666667 0 0 0 0 0.0666667 0 0 0 0.05 0"/>
<feBlend mode="normal" in2="BackgroundImageFix" result="effect1_dropShadow_336_1074"/>
<feBlend mode="normal" in="SourceGraphic" in2="effect1_dropShadow_336_1074" result="shape"/>
</filter>
<linearGradient id="paint0_linear_336_1074" x1="160" y1="184" x2="160" y2="304" gradientUnits="userSpaceOnUse">
<stop stop-color="white" stop-opacity="0"/>
<stop offset="1" stop-color="#B4DEF5"/>
</linearGradient>
<linearGradient id="paint1_linear_336_1074" x1="448" y1="184" x2="448" y2="352" gradientUnits="userSpaceOnUse">
<stop stop-color="white" stop-opacity="0"/>
<stop offset="1" stop-color="#B4DEF5"/>
</linearGradient>
<linearGradient id="paint2_linear_336_1074" x1="160" y1="16" x2="160" y2="159" gradientUnits="userSpaceOnUse">
<stop stop-color="#FF86A5"/>
<stop offset="1" stop-color="white" stop-opacity="0"/>
</linearGradient>
<linearGradient id="paint3_linear_336_1074" x1="160" y1="15" x2="160" y2="111" gradientUnits="userSpaceOnUse">
<stop stop-color="#B4DEF5"/>
<stop offset="0.9999" stop-color="#FFF3F6"/>
</linearGradient>
<clipPath id="clip0_336_1074">
<rect x="16" y="16" width="288" height="288" rx="4" fill="white"/>
</clipPath>
</defs>
</svg>
