<svg width="320" height="320" viewBox="0 0 320 320" fill="none" xmlns="http://www.w3.org/2000/svg">
<g filter="url(#filter0_d_336_1044)">
<g clip-path="url(#clip0_336_1044)">
<rect x="16" y="16" width="288" height="288" rx="4" fill="white"/>
<rect x="16" y="184" width="288" height="120" fill="url(#paint0_linear_336_1044)"/>
<rect x="304" y="184" width="288" height="168" transform="rotate(-180 304 184)" fill="url(#paint1_linear_336_1044)"/>
<path fill-rule="evenodd" clip-rule="evenodd" d="M64 64C90.5097 64 112 42.5097 112 16C112 42.5097 133.49 64 160 64C133.49 64 112 85.4903 112 112C112 85.4903 90.5097 64 64 64ZM208 112C208 85.4903 186.51 64 160 64C186.51 64 208 42.5097 208 16C208 42.5097 229.49 64 256 64C229.49 64 208 85.4903 208 112ZM208 112C208 138.51 229.49 160 256 160C282.51 160 304 138.51 304 112C304 85.4903 282.51 64 256 64C282.51 64 304 42.5097 304 16C304 -10.5097 282.51 -32 256 -32C229.49 -32 208 -10.5097 208 16C208 -10.5097 186.51 -32 160 -32C133.49 -32 112 -10.5097 112 16C112 -10.5097 90.5097 -32 64 -32C37.4903 -32 16 -10.5097 16 16C16 42.5097 37.4903 64 64 64C37.4903 64 16 85.4903 16 112C16 138.51 37.4903 160 64 160C90.5097 160 112 138.51 112 112C112 138.51 133.49 160 160 160C186.51 160 208 138.51 208 112Z" fill="url(#paint2_linear_336_1044)"/>
<path d="M229.016 282.536L234 282L231.036 286L234 290L229.016 289.464L226.996 294L224.976 289.464L220 290L222.957 286L220 282L224.976 282.536L226.996 278L229.016 282.536Z" fill="#111111"/>
<path d="M260.555 286.873C260.261 286.366 259.809 285.931 259.206 285.576C258.602 285.221 257.826 284.946 256.891 284.751L256.537 284.678V282.36C256.537 282.36 256.597 282.375 256.627 282.382C256.891 282.491 257.095 282.643 257.238 282.838C257.381 283.041 257.464 283.287 257.487 283.577H260.819C260.819 282.759 260.6 282.049 260.178 281.426C259.756 280.81 259.153 280.325 258.376 279.985C257.826 279.746 257.215 279.593 256.529 279.521V278H254.886V279.507C254.154 279.572 253.483 279.724 252.88 279.977C252.073 280.318 251.448 280.789 251.003 281.397C250.558 282.005 250.339 282.701 250.339 283.498C250.339 284.454 250.656 285.221 251.304 285.801C251.953 286.38 252.88 286.8 254.086 287.054L254.893 287.228V289.69C254.72 289.654 254.554 289.618 254.411 289.56C254.071 289.422 253.807 289.22 253.626 288.952C253.438 288.684 253.34 288.35 253.317 287.967H250C250.008 288.988 250.241 289.835 250.701 290.516C251.161 291.197 251.809 291.704 252.654 292.03C253.302 292.283 254.056 292.435 254.893 292.493V294H256.537V292.486C257.283 292.428 257.947 292.291 258.52 292.066C259.319 291.762 259.929 291.32 260.352 290.741C260.781 290.161 260.992 289.459 261 288.64C261 287.981 260.849 287.394 260.555 286.887V286.873ZM254.388 284.026C254.094 283.831 253.951 283.57 253.966 283.251C253.966 283.048 254.034 282.867 254.154 282.715C254.275 282.563 254.463 282.44 254.712 282.353C254.765 282.331 254.833 282.324 254.893 282.31V284.265C254.69 284.193 254.524 284.113 254.388 284.019V284.026ZM257.23 289.22C257.087 289.386 256.883 289.524 256.605 289.618C256.582 289.625 256.559 289.625 256.537 289.632V287.648C256.537 287.648 256.589 287.662 256.605 287.67C256.899 287.793 257.11 287.923 257.245 288.082C257.374 288.234 257.441 288.416 257.449 288.626C257.449 288.85 257.374 289.053 257.23 289.22Z" fill="#111111"/>
<path d="M286.603 286.003L288 280.972L284.984 280.19L284.652 279L282.5 279.554L280.355 279L280.024 280.19L277 280.972L278.404 286.003L277 291.035L280.024 291.81L280.355 293L282.5 292.446L284.652 293L284.984 291.81L288 291.035L286.603 286.003Z" fill="#111111"/>
</g>
</g>
<defs>
<filter id="filter0_d_336_1044" x="0" y="0" width="320" height="320" filterUnits="userSpaceOnUse" color-interpolation-filters="sRGB">
<feFlood flood-opacity="0" result="BackgroundImageFix"/>
<feColorMatrix in="SourceAlpha" type="matrix" values="0 0 0 0 0 0 0 0 0 0 0 0 0 0 0 0 0 0 127 0" result="hardAlpha"/>
<feOffset/>
<feGaussianBlur stdDeviation="8"/>
<feComposite in2="hardAlpha" operator="out"/>
<feColorMatrix type="matrix" values="0 0 0 0 0.0666667 0 0 0 0 0.0666667 0 0 0 0 0.0666667 0 0 0 0.05 0"/>
<feBlend mode="normal" in2="BackgroundImageFix" result="effect1_dropShadow_336_1044"/>
<feBlend mode="normal" in="SourceGraphic" in2="effect1_dropShadow_336_1044" result="shape"/>
</filter>
<linearGradient id="paint0_linear_336_1044" x1="160" y1="184" x2="160" y2="304" gradientUnits="userSpaceOnUse">
<stop stop-color="white" stop-opacity="0"/>
<stop offset="1" stop-color="#E2C098" stop-opacity="0.5"/>
<stop offset="1" stop-color="#E2C098" stop-opacity="0.6"/>
</linearGradient>
<linearGradient id="paint1_linear_336_1044" x1="448" y1="184" x2="448" y2="352" gradientUnits="userSpaceOnUse">
<stop stop-color="white" stop-opacity="0"/>
<stop offset="1" stop-color="#E2C098"/>
</linearGradient>
<linearGradient id="paint2_linear_336_1044" x1="160" y1="16" x2="160" y2="160" gradientUnits="userSpaceOnUse">
<stop stop-color="#FF86E7"/>
<stop offset="1" stop-color="white" stop-opacity="0"/>
<stop offset="1" stop-color="white" stop-opacity="0"/>
</linearGradient>
<clipPath id="clip0_336_1044">
<rect x="16" y="16" width="288" height="288" rx="4" fill="white"/>
</clipPath>
</defs>
</svg>
