<svg width="168" height="25" viewBox="0 0 168 25" fill="none" xmlns="http://www.w3.org/2000/svg">
<path d="M17.52 1.528V1.672C15.888 1.672 15.792 2.872 15.792 4.648V15.88C15.792 17.656 15.888 18.856 17.52 18.856V19H9.456V18.856C11.088 18.856 11.184 17.656 11.184 15.88V10.168H6.672V15.88C6.672 17.656 6.768 18.856 8.4 18.856V19H0.336V18.856C1.968 18.856 2.064 17.656 2.064 15.88V4.648C2.064 2.872 1.968 1.672 0.336 1.672V1.528H8.4V1.672C6.768 1.672 6.672 2.872 6.672 4.648V9.736H11.184V4.648C11.184 2.872 11.088 1.672 9.456 1.672V1.528H17.52ZM29.8193 17.008L29.9633 17.104C29.5793 17.872 28.4753 19.288 26.4593 19.288C24.6353 19.288 24.2033 18.232 24.1073 17.344C23.3393 18.448 21.9473 19.288 20.5312 19.288C18.8273 19.288 17.6993 18.28 17.6993 16.648C17.6993 14.824 18.9953 13.6 21.7793 12.832L23.8913 12.256V11.032C23.8913 10.36 23.8913 7.96 21.6593 7.96C20.1713 7.96 18.9473 9.016 18.3232 10.216L18.1793 10.144C18.9713 7.648 21.1073 6.136 23.7953 6.136C26.5313 6.136 28.1633 7.768 28.1633 10.6V15.832C28.1633 16.816 28.1633 17.512 28.9073 17.512C29.3873 17.512 29.6753 17.176 29.8193 17.008ZM23.0033 17.56C23.2913 17.56 23.6033 17.44 23.8913 17.176V12.592L23.4593 12.784C22.0193 13.408 21.6833 14.032 21.6833 15.472C21.6833 16.816 22.3313 17.56 23.0033 17.56ZM38.6959 6.136C41.1919 6.136 43.2319 8.392 43.2319 12.232C43.2319 16.6 40.6879 19.288 36.7519 19.288C36.2959 19.288 35.8639 19.24 35.4559 19.144V21.976C35.4559 23.512 35.5279 24.328 36.5119 24.328V24.472H29.9839V24.328C30.9679 24.328 31.0399 23.512 31.0399 21.976V9.64C31.0399 8.104 30.6319 7.672 29.8159 7.384V7.24L35.3599 6.184H35.4559V7.864C36.1759 6.88 37.3039 6.136 38.6959 6.136ZM36.8479 18.952C38.3599 18.952 38.6239 16.288 38.6239 13.504C38.6239 10.192 38.3119 7.912 36.7039 7.912C36.3439 7.912 35.8879 8.032 35.4559 8.296V15.256C35.4559 17.488 35.7199 18.952 36.8479 18.952ZM52.7349 6.136C55.2309 6.136 57.2709 8.392 57.2709 12.232C57.2709 16.6 54.7269 19.288 50.7909 19.288C50.3349 19.288 49.9029 19.24 49.4949 19.144V21.976C49.4949 23.512 49.5669 24.328 50.5509 24.328V24.472H44.0229V24.328C45.0069 24.328 45.0789 23.512 45.0789 21.976V9.64C45.0789 8.104 44.6709 7.672 43.8549 7.384V7.24L49.3989 6.184H49.4949V7.864C50.2149 6.88 51.3429 6.136 52.7349 6.136ZM50.8869 18.952C52.3989 18.952 52.6629 16.288 52.6629 13.504C52.6629 10.192 52.3509 7.912 50.7429 7.912C50.3829 7.912 49.9269 8.032 49.4949 8.296V15.256C49.4949 17.488 49.7589 18.952 50.8869 18.952ZM65.4692 6.568V6.424H69.1652V6.568C68.3972 6.712 67.5332 7.96 66.6932 10.312L62.8772 20.968C61.9652 23.536 60.4772 24.616 58.9412 24.616C58.4852 24.616 58.0532 24.568 57.6212 24.52L57.8612 21.112H58.0052C60.3092 23.224 61.6292 23.32 62.6132 20.536L62.9252 19.648L58.7492 9.28C58.1252 7.72 57.7652 6.712 56.9492 6.568V6.424H63.6452V6.568C62.5652 6.664 62.5892 7.672 62.9732 8.632L65.0132 13.768L66.2852 10.168C67.1252 7.816 66.5252 6.76 65.4692 6.568ZM82.9974 9.784V9.832C86.2134 10.024 88.6614 11.584 88.6614 14.536C88.6614 16.888 87.1494 19 82.0374 19H73.1094V18.856C74.7414 18.856 74.8374 17.656 74.8374 15.88V4.648C74.8374 2.872 74.7414 1.672 73.1094 1.672V1.528H81.7254C86.1894 1.528 87.7014 3.256 87.7014 5.536C87.7014 8.2 85.4694 9.448 82.9974 9.784ZM80.6454 1.912H80.3574C79.7814 1.912 79.4454 2.2 79.4454 2.776V9.712H80.7174C82.6374 9.712 83.3814 8.008 83.3814 5.992C83.3814 3.784 82.5174 1.912 80.6454 1.912ZM80.8854 18.616C82.5894 18.616 83.9574 17.056 83.9574 14.32C83.9574 11.968 82.9734 10.096 80.7894 10.096H79.4454V17.08C79.4454 17.584 79.4694 18.616 80.8854 18.616ZM92.6848 4.84C91.3888 4.84 90.3568 3.808 90.3568 2.512C90.3568 1.264 91.3888 0.231998 92.6848 0.231998C93.9328 0.231998 94.9648 1.264 94.9648 2.512C94.9648 3.808 93.9328 4.84 92.6848 4.84ZM96.0208 19H89.4928V18.856C90.4768 18.856 90.5488 18.04 90.5488 16.504V9.64C90.5488 8.104 90.1408 7.672 89.3248 7.384V7.24L94.8688 6.184H94.9648V16.504C94.9648 18.04 95.0368 18.856 96.0208 18.856V19ZM105.664 6.136C105.976 6.136 106.312 6.208 106.672 6.328L105.832 10.072H105.688C104.992 9.16 104.128 8.68 103.312 8.68C102.928 8.68 102.544 8.776 102.16 8.968V16.504C102.16 18.04 102.232 18.856 103.216 18.856V19H96.6881V18.856C97.6721 18.856 97.7441 18.04 97.7441 16.504V9.64C97.7441 8.104 97.3361 7.672 96.5201 7.384V7.24L102.064 6.184H102.16V8.656C103.216 7.144 104.32 6.136 105.664 6.136ZM115.927 16.6L116.071 16.696C114.919 18.232 113.167 19.288 111.535 19.288C109.447 19.288 108.199 18.328 108.199 15.64V7.624H106.951V7.24L107.287 7.072C109.351 6.04 110.935 5.032 112.471 2.536H112.615V6.424H115.879L115.423 7.624H112.615V15.688C112.615 16.84 113.167 17.368 114.103 17.368C114.679 17.368 115.399 17.032 115.927 16.6ZM129.031 9.88V16.504C129.031 18.04 129.103 18.856 130.087 18.856V19H123.559V18.856C124.543 18.856 124.615 18.04 124.615 16.504V10.936C124.615 9.304 124.423 8.296 123.079 8.296C122.647 8.296 122.023 8.44 121.495 8.656V16.504C121.495 18.04 121.567 18.856 122.551 18.856V19H116.023V18.856C117.007 18.856 117.079 18.04 117.079 16.504V3.496C117.079 1.96 116.671 1.528 115.855 1.24V1.096L121.399 0.231998H121.495V8.368C122.623 7.216 124.135 6.136 125.815 6.136C128.095 6.136 129.031 7.48 129.031 9.88ZM142.984 0.231998V15.832C142.984 17.368 143.393 18.04 144.209 18.328V18.472L139.145 19.288H139.049L138.641 17.464C137.921 18.496 136.769 19.288 135.329 19.288C132.833 19.288 130.793 17.032 130.793 13.192C130.793 8.824 133.337 6.136 137.273 6.136C137.729 6.136 138.161 6.184 138.569 6.28V3.496C138.569 1.96 138.161 1.528 137.345 1.24V1.096L142.889 0.231998H142.984ZM137.321 17.512C137.681 17.512 138.137 17.392 138.569 17.128V10.168C138.569 7.936 138.305 6.472 137.177 6.472C135.665 6.472 135.401 9.136 135.401 11.92C135.401 15.232 135.713 17.512 137.321 17.512ZM156.64 17.008L156.784 17.104C156.4 17.872 155.296 19.288 153.28 19.288C151.456 19.288 151.024 18.232 150.928 17.344C150.16 18.448 148.768 19.288 147.352 19.288C145.648 19.288 144.52 18.28 144.52 16.648C144.52 14.824 145.816 13.6 148.6 12.832L150.712 12.256V11.032C150.712 10.36 150.712 7.96 148.48 7.96C146.992 7.96 145.768 9.016 145.144 10.216L145 10.144C145.792 7.648 147.928 6.136 150.616 6.136C153.352 6.136 154.984 7.768 154.984 10.6V15.832C154.984 16.816 154.984 17.512 155.728 17.512C156.208 17.512 156.496 17.176 156.64 17.008ZM149.824 17.56C150.112 17.56 150.424 17.44 150.712 17.176V12.592L150.28 12.784C148.84 13.408 148.504 14.032 148.504 15.472C148.504 16.816 149.152 17.56 149.824 17.56ZM164.141 6.568V6.424H167.837V6.568C167.069 6.712 166.205 7.96 165.365 10.312L161.549 20.968C160.637 23.536 159.149 24.616 157.613 24.616C157.157 24.616 156.725 24.568 156.293 24.52L156.533 21.112H156.677C158.981 23.224 160.301 23.32 161.285 20.536L161.597 19.648L157.421 9.28C156.797 7.72 156.437 6.712 155.621 6.568V6.424H162.317V6.568C161.237 6.664 161.261 7.672 161.645 8.632L163.685 13.768L164.957 10.168C165.797 7.816 165.197 6.76 164.141 6.568Z" fill="#111111"/>
</svg>
