<svg width="320" height="320" viewBox="0 0 320 320" fill="none" xmlns="http://www.w3.org/2000/svg">
<g filter="url(#filter0_d_382_482)">
<g clip-path="url(#clip0_382_482)">
<rect x="16" y="16" width="288" height="288" rx="4" fill="white"/>
<rect x="16" y="184" width="288" height="120" fill="url(#paint0_linear_382_482)"/>
<rect x="304" y="184" width="288" height="168" transform="rotate(-180 304 184)" fill="url(#paint1_linear_382_482)"/>
<path fill-rule="evenodd" clip-rule="evenodd" d="M42.5877 60C58.8651 60 63.9797 47.0943 63.9797 47.0943C63.9797 47.0943 69.0943 60 85.3717 60C101.649 60 112 47.486 112 28.9314C112 10.3769 93.6321 -17.3519 64 -29C34.3679 -17.3519 16 10.3769 16 28.9314C16 47.486 26.3104 60 42.5877 60ZM159.98 47.0943C159.98 47.0943 154.865 60 138.588 60C122.31 60 112 47.486 112 28.9314C112 10.3769 130.368 -17.3519 160 -29C189.632 -17.3519 208 10.3769 208 28.9314C208 47.486 197.649 60 181.372 60C165.094 60 159.98 47.0943 159.98 47.0943ZM255.98 47.0943C255.98 47.0943 250.865 60 234.588 60C218.31 60 208 47.486 208 28.9314C208 10.3769 226.368 -17.3519 256 -29C285.632 -17.3519 304 10.3769 304 28.9314C304 47.486 293.649 60 277.372 60C261.094 60 255.98 47.0943 255.98 47.0943ZM64.0203 72.9057C64.0203 72.9057 69.1349 60 85.4123 60C101.69 60 112 72.514 112 91.0686C112 109.623 93.6321 137.352 64 149C34.3679 137.352 16 109.623 16 91.0686C16 72.514 26.351 60 42.6283 60C58.9057 60 64.0203 72.9057 64.0203 72.9057ZM181.412 60C165.135 60 160.02 72.9057 160.02 72.9057C160.02 72.9057 154.906 60 138.628 60C122.351 60 112 72.514 112 91.0686C112 109.623 130.368 137.352 160 149C189.632 137.352 208 109.623 208 91.0686C208 109.623 226.368 137.352 256 149C285.632 137.352 304 109.623 304 91.0686C304 72.514 293.69 60 277.412 60C261.135 60 256.02 72.9057 256.02 72.9057C256.02 72.9057 250.906 60 234.628 60C218.351 60 208 72.514 208 91.0686C208 72.514 197.69 60 181.412 60Z" fill="url(#paint2_linear_382_482)"/>
<circle cx="160" cy="192" r="72" fill="#EDEDED"/>
<path d="M120.762 245.615C101.154 239.502 88.0825 222.876 90.5963 212C85.2335 217.438 87.077 233.422 106.685 244.132C124.784 254.019 153.945 253.259 164 249.076C147.912 251.053 131.418 248.937 120.762 245.615Z" fill="white" stroke="#111111" stroke-width="0.5"/>
<path d="M220.53 132.976C215.229 119.967 191.842 122.802 180 122.969C193.51 119.466 217.059 116.464 224.032 129.974C231.522 144.483 216.026 161.495 204.518 169C208.021 166.498 226.034 146.485 220.53 132.976Z" fill="white" stroke="#111111" stroke-width="0.5"/>
<path d="M247 145C244.415 171.082 220.343 179.435 211 181C214.652 181 228.739 180.566 238.652 171.152C246.362 163.829 247 152.322 247 145Z" fill="white" stroke="#111111" stroke-width="0.5"/>
<path d="M225.371 286C226.373 285.15 227 283.981 227 282.678C227 280.097 224.537 278 221.5 278C218.463 278 216 280.097 216 282.678C216 283.981 216.62 285.15 217.629 286C216.627 286.85 216 288.019 216 289.322C216 291.903 218.463 294 221.5 294C224.537 294 227 291.903 227 289.322C227 288.019 226.38 286.85 225.371 286Z" fill="#111111"/>
<path d="M251 294C251 290.304 246.688 286 243 286C246.696 286 251 281.688 251 278C251 281.696 255.312 286 259 286C255.304 286 251 290.312 251 294Z" fill="#111111"/>
<path d="M284.405 280C282.203 280 281.507 281.743 281.507 281.743C281.507 281.743 280.817 280 278.608 280C276.399 280 275 281.69 275 284.191C275 286.693 277.487 290.429 281.5 292C285.513 290.429 288 286.693 288 284.191C288 281.69 286.601 280 284.398 280H284.405Z" fill="#111111"/>
</g>
</g>
<defs>
<filter id="filter0_d_382_482" x="0" y="0" width="320" height="320" filterUnits="userSpaceOnUse" color-interpolation-filters="sRGB">
<feFlood flood-opacity="0" result="BackgroundImageFix"/>
<feColorMatrix in="SourceAlpha" type="matrix" values="0 0 0 0 0 0 0 0 0 0 0 0 0 0 0 0 0 0 127 0" result="hardAlpha"/>
<feOffset/>
<feGaussianBlur stdDeviation="8"/>
<feComposite in2="hardAlpha" operator="out"/>
<feColorMatrix type="matrix" values="0 0 0 0 0.0666667 0 0 0 0 0.0666667 0 0 0 0 0.0666667 0 0 0 0.05 0"/>
<feBlend mode="normal" in2="BackgroundImageFix" result="effect1_dropShadow_382_482"/>
<feBlend mode="normal" in="SourceGraphic" in2="effect1_dropShadow_382_482" result="shape"/>
</filter>
<linearGradient id="paint0_linear_382_482" x1="160" y1="184" x2="160" y2="304" gradientUnits="userSpaceOnUse">
<stop stop-color="white" stop-opacity="0"/>
<stop offset="1" stop-color="#C8EF9D"/>
</linearGradient>
<linearGradient id="paint1_linear_382_482" x1="448" y1="184" x2="448" y2="352" gradientUnits="userSpaceOnUse">
<stop stop-color="white" stop-opacity="0"/>
<stop offset="1" stop-color="#B4E97D"/>
</linearGradient>
<linearGradient id="paint2_linear_382_482" x1="160" y1="16" x2="160" y2="154.5" gradientUnits="userSpaceOnUse">
<stop stop-color="#FE6CBB"/>
<stop offset="1" stop-color="white" stop-opacity="0"/>
</linearGradient>
<clipPath id="clip0_382_482">
<rect x="16" y="16" width="288" height="288" rx="4" fill="white"/>
</clipPath>
</defs>
</svg>
