<svg width="209" height="133" viewBox="0 0 209 133" fill="none" xmlns="http://www.w3.org/2000/svg">
<path d="M182.889 46.3013C187.324 25.3197 171.011 7.35808 162.3 1C182.493 13.3188 190.412 33.1878 185.661 50.6725C176.158 80.5555 146.594 90.6754 133 92C149.234 86.8341 177.346 72.5284 182.889 46.3013Z" fill="white" stroke="#111111" stroke-width="0.5"/>
<path d="M1 112.455C1 91.4768 35.3627 74.1613 51 69C29.0413 81.4871 6.09083 96.0165 6.58331 112.455C6.98734 125.941 30.5384 130.883 43.514 131.935C29.5403 132.434 0.999765 130.436 1 112.455Z" fill="white" stroke="#111111" stroke-width="0.5"/>
<path d="M208 78C189.664 100.434 163.398 103.361 152 103.361C161.912 104.824 176.314 103.879 186 99.4532C197.741 94.0884 205 83.488 208 78Z" fill="white" stroke="#111111" stroke-width="0.5"/>
</svg>
