<svg width="162" height="71" viewBox="0 0 162 71" fill="none" xmlns="http://www.w3.org/2000/svg">
<g filter="url(#filter0_d_383_482)">
<path d="M49.4807 7.032C49.4807 5.556 48.2567 5.592 47.0687 5.592V4.8H55.4567V5.592C54.3047 5.592 53.0447 5.556 53.0447 6.996V27.876C53.0447 29.316 54.3047 29.28 55.4567 29.28V30.072H47.0687V29.28C48.2567 29.28 49.4807 29.316 49.4807 27.84V17.832H38.0327V27.876C38.0327 29.316 39.2927 29.28 40.4447 29.28V30.072H32.0567V29.28C33.2087 29.28 34.4687 29.316 34.4687 27.84V7.032C34.4687 5.556 33.2087 5.592 32.0567 5.592V4.8H40.4447V5.592C39.2927 5.592 38.0327 5.556 38.0327 6.996V17.04H49.4807V7.032ZM61.3295 15.564C61.4015 16.608 60.4655 17.184 59.5655 17.04C58.6295 16.86 58.0175 15.816 58.5215 14.88C59.3855 13.296 63.2375 12.612 64.7855 12.612C68.7815 12.612 72.6695 13.332 72.3815 19.668V27.768C72.3815 29.244 73.5335 29.172 74.6135 29.172V30H68.9975V27.264C67.9175 28.956 65.9735 30 62.9135 30C59.2775 30 55.9655 27.444 55.9655 24.276C55.9655 21.108 58.7735 18.552 63.2375 18.552C65.9735 18.552 67.8095 19.308 68.9975 21.072C69.1055 11.388 61.1135 12.864 61.3295 15.564ZM68.9975 23.52C68.6375 21.072 66.6215 19.344 64.1735 19.38C61.1135 19.38 59.2775 21.396 59.2775 24.276C59.2775 27.156 61.1135 29.172 64.1735 29.172C66.6215 29.208 68.6375 27.48 68.9975 25.032V23.52ZM76.7097 15.708C76.7097 14.628 76.0257 14.376 75.1977 14.304V13.476C76.2777 13.476 79.1217 13.548 79.6977 12.612H80.2737V13.44C81.3897 12.9 82.6497 12.612 83.9817 12.612C88.8057 12.612 92.6937 16.5 92.6937 21.288C92.6937 26.112 88.8057 30 83.9817 30C82.6497 30 81.3897 29.712 80.2737 29.172V35.688C80.2737 37.128 81.5337 37.092 82.6857 37.092V37.884H74.2977V37.092C75.4497 37.092 76.7097 37.128 76.7097 35.652V15.708ZM83.9817 13.404C82.5417 13.404 81.2097 14.304 80.2737 15.816V26.796C81.2097 28.272 82.5417 29.208 83.9817 29.208C86.8617 29.208 89.1657 25.68 89.1657 21.288C89.1657 16.932 86.8617 13.404 83.9817 13.404ZM95.5534 15.708C95.5534 14.628 94.8694 14.376 94.0414 14.304V13.476C95.1214 13.476 97.9654 13.548 98.5414 12.612H99.1174V13.44C100.233 12.9 101.493 12.612 102.825 12.612C107.649 12.612 111.537 16.5 111.537 21.288C111.537 26.112 107.649 30 102.825 30C101.493 30 100.233 29.712 99.1174 29.172V35.688C99.1174 37.128 100.377 37.092 101.529 37.092V37.884H93.1414V37.092C94.2934 37.092 95.5534 37.128 95.5534 35.652V15.708ZM102.825 13.404C101.385 13.404 100.053 14.304 99.1174 15.816V26.796C100.053 28.272 101.385 29.208 102.825 29.208C105.705 29.208 108.009 25.68 108.009 21.288C108.009 16.932 105.705 13.404 102.825 13.404ZM120.629 30C119.441 32.628 118.289 35.256 117.101 37.884H114.221L114.329 37.092C114.329 37.092 116.633 37.092 117.425 35.364L120.125 29.316L113.645 14.844C112.997 13.368 111.773 13.404 110.621 13.404L110.513 12.612H118.613L118.721 13.404C117.677 13.404 116.597 13.476 117.209 14.808L121.889 25.32L126.173 15.744C126.389 15.276 126.569 14.808 126.785 14.304C127.145 13.512 125.885 13.44 125.237 13.404L125.309 12.612H130.493L130.385 13.404C129.593 13.404 128.261 13.368 127.721 14.124L120.629 30ZM4.91611 65.28C6.03211 65.28 7.22011 65.244 7.22011 63.84V42.024C6.57211 41.592 5.74411 41.592 4.95211 41.592V40.8H12.9441V41.592C11.9361 41.628 11.0001 41.736 11.6841 42.996L22.4841 63.876L22.5561 63.984V43.068C22.5561 41.628 21.4401 41.592 20.2161 41.592V40.8H25.6881V41.592C24.5001 41.592 23.3481 41.628 23.3481 43.104V64.848C24.0321 65.316 24.8601 65.28 25.6161 65.28V66.072H17.6601V65.28C18.7041 65.28 19.5681 65.136 18.9201 63.84L8.12011 43.032C8.08411 42.996 8.04811 42.96 8.04811 42.924V63.876C8.04811 65.244 9.30811 65.28 10.3521 65.28V66.072H4.91611V65.28ZM40.1579 56.496C40.2659 52.14 38.2499 49.404 35.0099 49.404C32.3099 49.404 30.1139 52.5 29.8259 56.496H40.1579ZM29.8259 57.792C29.9699 66.72 39.1499 67.008 41.9939 60.996H42.4619V64.02C42.3899 64.092 39.6899 64.848 38.8979 65.172C37.6739 65.712 36.3059 66 35.0099 66C30.9059 66 26.1899 63.156 26.3339 57.072C26.4419 52.068 30.4739 48.612 35.0099 48.612C39.7979 48.612 44.0459 52.176 43.6859 57.324H29.8259V57.792ZM67.3539 51.744C67.4979 51.276 67.6419 50.808 67.7499 50.304C68.0379 49.512 66.7779 49.44 66.0939 49.404V48.612H71.2419V49.404C70.4499 49.404 69.1179 49.368 68.6499 50.124L63.5739 66H59.9739L57.0579 56.856L54.1059 66H50.5419L45.6459 50.844C45.1779 49.368 43.9539 49.404 42.8019 49.404V48.612H50.9019V49.404C49.8579 49.404 48.7779 49.476 49.2459 50.808L53.7099 64.74C55.2939 59.844 56.8419 54.948 58.4259 50.052L58.8579 51.312L58.8939 51.492C60.3339 55.92 61.7379 60.312 63.1419 64.74L67.3179 51.744H67.3539ZM97.3678 63.876C97.3678 65.316 98.6278 65.28 99.7798 65.28V66.072H91.3918V65.28C92.5438 65.28 93.8038 65.316 93.8038 63.84V55.596L93.7678 55.488L86.6038 43.032C85.7758 41.556 84.5518 41.592 83.3998 41.592V40.8H91.3198V41.592C90.3118 41.628 89.4478 41.736 90.1678 42.996L96.9358 54.804L103.524 42.6C103.992 41.7 102.516 41.628 101.796 41.592V40.8H107.052V41.592C106.224 41.592 104.892 41.556 104.424 42.384L97.7998 54.696C97.2958 55.596 97.3678 55.272 97.3678 56.1V63.876ZM118.416 56.496C118.524 52.14 116.508 49.404 113.268 49.404C110.568 49.404 108.372 52.5 108.084 56.496H118.416ZM108.084 57.792C108.228 66.72 117.408 67.008 120.252 60.996H120.72V64.02C120.648 64.092 117.948 64.848 117.156 65.172C115.932 65.712 114.564 66 113.268 66C109.164 66 104.448 63.156 104.592 57.072C104.7 52.068 108.732 48.612 113.268 48.612C118.056 48.612 122.304 52.176 121.944 57.324H108.084V57.792ZM128.689 51.564C128.761 52.608 127.825 53.184 126.925 53.04C125.989 52.86 125.377 51.816 125.881 50.88C126.745 49.296 130.597 48.612 132.145 48.612C136.141 48.612 140.029 49.332 139.741 55.668V63.768C139.741 65.244 140.893 65.172 141.973 65.172V66H136.357V63.264C135.277 64.956 133.333 66 130.273 66C126.637 66 123.325 63.444 123.325 60.276C123.325 57.108 126.133 54.552 130.597 54.552C133.333 54.552 135.169 55.308 136.357 57.072C136.465 47.388 128.473 48.864 128.689 51.564ZM136.357 59.52C135.997 57.072 133.981 55.344 131.533 55.38C128.473 55.38 126.637 57.396 126.637 60.276C126.637 63.156 128.473 65.172 131.533 65.172C133.981 65.208 135.997 63.48 136.357 61.032V59.52ZM155.219 48.648C156.407 48.864 157.379 49.512 157.379 50.7C157.379 52.716 154.499 53.148 153.887 51.24C153.095 48.792 149.243 50.7 148.703 55.56V63.768C148.703 65.244 149.963 65.172 151.115 65.172V66H142.727V65.172C143.879 65.172 145.139 65.244 145.139 63.768V51.708C145.139 50.628 144.455 50.376 143.627 50.304V49.476C144.707 49.476 147.551 49.548 148.127 48.612H148.703L148.775 52.356C150.143 49.188 152.915 48.216 155.219 48.648Z" fill="#111111"/>
</g>
<defs>
<filter id="filter0_d_383_482" x="0.916107" y="0.799805" width="160.463" height="70.208" filterUnits="userSpaceOnUse" color-interpolation-filters="sRGB">
<feFlood flood-opacity="0" result="BackgroundImageFix"/>
<feColorMatrix in="SourceAlpha" type="matrix" values="0 0 0 0 0 0 0 0 0 0 0 0 0 0 0 0 0 0 127 0" result="hardAlpha"/>
<feOffset/>
<feGaussianBlur stdDeviation="2"/>
<feComposite in2="hardAlpha" operator="out"/>
<feColorMatrix type="matrix" values="0 0 0 0 1 0 0 0 0 1 0 0 0 0 1 0 0 0 1 0"/>
<feBlend mode="normal" in2="BackgroundImageFix" result="effect1_dropShadow_383_482"/>
<feBlend mode="normal" in="SourceGraphic" in2="effect1_dropShadow_383_482" result="shape"/>
</filter>
</defs>
</svg>
