<svg width="149" height="71" viewBox="0 0 149 71" fill="none" xmlns="http://www.w3.org/2000/svg">
<g filter="url(#filter0_d_340_421)">
<path d="M18.024 27.876C18.024 29.316 19.284 29.28 20.436 29.28V30.072H12.048V29.28C13.2 29.28 14.46 29.316 14.46 27.84V19.596L14.424 19.488L7.26002 7.032C6.43202 5.556 5.20802 5.592 4.05602 5.592V4.8H11.976V5.592C10.968 5.628 10.104 5.736 10.824 6.996L17.592 18.804L24.18 6.6C24.648 5.7 23.172 5.628 22.452 5.592V4.8H27.708V5.592C26.88 5.592 25.548 5.556 25.08 6.384L18.456 18.696C17.952 19.596 18.024 19.272 18.024 20.1V27.876ZM33.9239 12.612C39.1799 12.612 42.5999 16.032 42.5999 21.288C42.5999 26.58 39.1799 30 33.9239 30C28.6319 30 25.2119 26.58 25.2119 21.288C25.2119 16.032 28.6319 12.612 33.9239 12.612ZM39.0719 21.288C39.0719 16.5 37.0199 13.404 33.9239 13.404C30.7919 13.404 28.7399 16.5 28.7399 21.288C28.7399 26.112 30.7919 29.208 33.9239 29.208C37.0199 29.208 39.0719 26.112 39.0719 21.288ZM55.5037 15.708C55.5037 14.628 54.8197 14.376 53.9917 14.304V13.476C55.0717 13.476 57.9157 13.548 58.4917 12.612H59.0677V27.768C59.0677 29.244 60.2917 29.208 61.4797 29.208V30H55.5037V28.164C53.8117 29.28 52.1557 30.036 49.6357 30C47.2957 29.964 45.4237 28.92 45.4237 26.616V15.708C45.4237 14.628 44.7397 14.376 43.9117 14.304V13.476C44.9917 13.476 47.8357 13.548 48.4117 12.612H48.9877V15.708C48.9877 19.128 48.9877 22.548 48.9877 25.968V26.688C48.9877 30 52.7317 28.992 55.5037 26.76V16.284V15.708ZM78.7003 21.504V18.192H75.3883V16.5H78.7003V13.224H80.3923V16.5H83.6683V18.192H80.3923V21.504H78.7003ZM123.434 27.876C123.434 29.316 124.694 29.28 125.846 29.28V30.072H117.458V29.28C118.61 29.28 119.87 29.316 119.87 27.84V7.032C119.87 6.924 119.834 6.816 119.834 6.744L112.166 25.608L110.402 30.036C107.27 22.368 104.174 14.7 101.078 7.032L100.97 6.816V27.876C100.97 29.244 102.194 29.28 103.274 29.28V30.072H97.838V29.28C98.99 29.28 100.142 29.244 100.142 27.84V5.916C99.566 5.592 98.81 5.592 98.09 5.592V4.8H106.118V5.592C105.074 5.592 104.102 5.7 104.642 6.996L111.77 24.636L119.366 5.916C118.898 5.592 118.178 5.592 117.458 5.592V4.8H125.846V5.592C124.694 5.592 123.434 5.556 123.434 6.996V27.876ZM140.287 20.496C140.395 16.14 138.379 13.404 135.139 13.404C132.439 13.404 130.243 16.5 129.955 20.496H140.287ZM129.955 21.792C130.099 30.72 139.279 31.008 142.123 24.996H142.591V28.02C142.519 28.092 139.819 28.848 139.027 29.172C137.803 29.712 136.435 30 135.139 30C131.035 30 126.319 27.156 126.463 21.072C126.571 16.068 130.603 12.612 135.139 12.612C139.927 12.612 144.175 16.176 143.815 21.324H129.955V21.792ZM28.4882 50.88V49.224H36.7682V50.88H28.4882ZM36.7682 57.504H28.4882V55.812H36.7682V57.504ZM53.2812 43.032C53.2812 41.556 52.0212 41.592 50.8692 41.592V40.8H59.2572V41.592C58.1052 41.592 56.8452 41.556 56.8452 42.996V63.876C56.8452 65.064 57.6732 65.244 58.6812 65.28C63.2532 65.28 64.1172 66.036 67.6812 62.256H68.0772C67.7172 63.552 67.3572 64.812 66.9252 66.072H50.8692V65.28C52.0212 65.28 53.2812 65.316 53.2812 63.84V43.032ZM77.4825 48.612C82.7385 48.612 86.1585 52.032 86.1585 57.288C86.1585 62.58 82.7385 66 77.4825 66C72.1905 66 68.7705 62.58 68.7705 57.288C68.7705 52.032 72.1905 48.612 77.4825 48.612ZM82.6305 57.288C82.6305 52.5 80.5785 49.404 77.4825 49.404C74.3505 49.404 72.2985 52.5 72.2985 57.288C72.2985 62.112 74.3505 65.208 77.4825 65.208C80.5785 65.208 82.6305 62.112 82.6305 57.288ZM100.394 51.744L100.826 50.304C101.078 49.512 99.8177 49.44 99.1337 49.404V48.612H104.282V49.404C103.49 49.404 102.194 49.368 101.726 50.124L96.6137 66H93.0497L88.1537 50.844C87.6857 49.368 86.4617 49.404 85.3097 49.404V48.612H93.4097V49.404C92.3657 49.404 91.2857 49.476 91.7537 50.808L96.2177 64.74L100.394 51.744ZM117.295 56.496C117.403 52.14 115.387 49.404 112.147 49.404C109.447 49.404 107.251 52.5 106.963 56.496H117.295ZM106.963 57.792C107.107 66.72 116.287 67.008 119.131 60.996H119.599V64.02C119.527 64.092 116.827 64.848 116.035 65.172C114.811 65.712 113.443 66 112.147 66C108.043 66 103.327 63.156 103.471 57.072C103.579 52.068 107.611 48.612 112.147 48.612C116.935 48.612 121.183 52.176 120.823 57.324H106.963V57.792Z" fill="#111111"/>
</g>
<defs>
<filter id="filter0_d_340_421" x="0.0560303" y="0.799805" width="148.119" height="70.208" filterUnits="userSpaceOnUse" color-interpolation-filters="sRGB">
<feFlood flood-opacity="0" result="BackgroundImageFix"/>
<feColorMatrix in="SourceAlpha" type="matrix" values="0 0 0 0 0 0 0 0 0 0 0 0 0 0 0 0 0 0 127 0" result="hardAlpha"/>
<feOffset/>
<feGaussianBlur stdDeviation="2"/>
<feComposite in2="hardAlpha" operator="out"/>
<feColorMatrix type="matrix" values="0 0 0 0 0.996078 0 0 0 0 0.423529 0 0 0 0 0.733333 0 0 0 0.7 0"/>
<feBlend mode="normal" in2="BackgroundImageFix" result="effect1_dropShadow_340_421"/>
<feBlend mode="normal" in="SourceGraphic" in2="effect1_dropShadow_340_421" result="shape"/>
</filter>
</defs>
</svg>
