<svg width="320" height="320" viewBox="0 0 320 320" fill="none" xmlns="http://www.w3.org/2000/svg">
<g filter="url(#filter0_d_382_556)">
<g clip-path="url(#clip0_382_556)">
<rect x="16" y="16" width="288" height="288" rx="4" fill="white"/>
<rect x="16" y="184" width="288" height="120" fill="url(#paint0_linear_382_556)"/>
<rect x="304" y="184" width="288" height="168" transform="rotate(-180 304 184)" fill="url(#paint1_linear_382_556)"/>
<path fill-rule="evenodd" clip-rule="evenodd" d="M112 15L64 -33L16 15L64 63L16 111L64 159L112 111L160 159L208 111L256 159L304 111L256 63L304 15L256 -33L208 15L160 -33L112 15ZM160 63L208 15L256 63L208 111L160 63ZM160 63L112 15L64 63L112 111L160 63Z" fill="url(#paint2_linear_382_556)"/>
<path fill-rule="evenodd" clip-rule="evenodd" d="M64 63L16 15L-32 63L16 111L64 63ZM160 63L112 15L64 63L112 111L160 63ZM256 63L208 111L160 63L208 15L256 63ZM256 63L304 15L352 63L304 111L256 63Z" fill="url(#paint3_linear_382_556)"/>
<circle cx="160" cy="192" r="72" fill="#EDEDED"/>
<path d="M224.949 158.52C226.08 159.488 227.577 159.96 229.074 159.896L240 159.448V162.136L229.058 161.68C227.585 161.624 226.113 162.064 224.998 163.008C224.933 163.064 224.86 163.12 224.795 163.184C223.558 164.28 222.859 165.84 222.834 167.48L222.297 206.192L221.5 208L220.703 206.192L220.166 167.48C220.141 165.848 219.442 164.28 218.205 163.184C218.14 163.128 218.067 163.064 218.002 163.008C216.887 162.056 215.415 161.616 213.942 161.68L203 162.136V159.448L213.942 159.904C215.447 159.968 216.936 159.496 218.067 158.528C218.514 158.144 218.937 157.728 219.32 157.28C220.231 156.224 220.711 154.872 220.711 153.488V139.552L219.303 138.168L221.508 136L223.713 138.168L222.305 139.552V153.48C222.305 154.864 222.785 156.216 223.697 157.272C224.079 157.72 224.502 158.136 224.949 158.52Z" fill="white" stroke="#111111" stroke-width="0.5" stroke-miterlimit="10"/>
<path d="M100.831 211.013C101.595 211.659 102.606 211.973 103.618 211.931L111 211.632V213.424L103.607 213.12C102.612 213.083 101.617 213.376 100.864 214.005C100.82 214.043 100.77 214.08 100.726 214.123C99.8907 214.853 99.418 215.893 99.4015 216.987L99.0387 242.795L98.5 244L97.9613 242.795L97.5985 216.987C97.582 215.899 97.1093 214.853 96.2737 214.123C96.2298 214.085 96.1803 214.043 96.1363 214.005C95.3832 213.371 94.3883 213.077 93.3934 213.12L86 213.424V211.632L93.3934 211.936C94.4103 211.979 95.4162 211.664 96.1803 211.019C96.4826 210.763 96.7685 210.485 97.0268 210.187C97.6425 209.483 97.9668 208.581 97.9668 207.659V198.368L97.0158 197.445L98.5055 196L99.9952 197.445L99.0442 198.368V207.653C99.0442 208.576 99.3685 209.477 99.9842 210.181C100.243 210.48 100.528 210.757 100.831 211.013Z" fill="white" stroke="#111111" stroke-width="0.5" stroke-miterlimit="10"/>
<path d="M227.938 285.329L226.462 288.491L224 280L221.538 288.491L220.062 285.329L216 294H219.938H223.876H224.117H228.054H232L227.938 285.329Z" fill="#111111"/>
<path d="M256.993 285.723V280H248V285.723C248 287.128 248.726 288.429 249.927 289.176L251.198 289.965V291.924L248.37 294H256.63L253.802 291.924V289.965L255.073 289.176C256.267 288.429 257 287.128 257 285.723H256.993Z" fill="#111111"/>
<path d="M280.5 282.097L282.819 280L283.439 283.031L286.569 282.671L285.258 285.488L288 287.003L285.258 288.519L286.569 291.329L283.439 290.969L282.819 294L280.5 291.91L278.181 294L277.561 290.969L274.438 291.329L275.749 288.519L273 287.003L275.749 285.488L274.438 282.671L277.561 283.031L278.181 280L280.5 282.097Z" fill="#111111"/>
</g>
</g>
<defs>
<filter id="filter0_d_382_556" x="0" y="0" width="320" height="320" filterUnits="userSpaceOnUse" color-interpolation-filters="sRGB">
<feFlood flood-opacity="0" result="BackgroundImageFix"/>
<feColorMatrix in="SourceAlpha" type="matrix" values="0 0 0 0 0 0 0 0 0 0 0 0 0 0 0 0 0 0 127 0" result="hardAlpha"/>
<feOffset/>
<feGaussianBlur stdDeviation="8"/>
<feComposite in2="hardAlpha" operator="out"/>
<feColorMatrix type="matrix" values="0 0 0 0 0.0666667 0 0 0 0 0.0666667 0 0 0 0 0.0666667 0 0 0 0.05 0"/>
<feBlend mode="normal" in2="BackgroundImageFix" result="effect1_dropShadow_382_556"/>
<feBlend mode="normal" in="SourceGraphic" in2="effect1_dropShadow_382_556" result="shape"/>
</filter>
<linearGradient id="paint0_linear_382_556" x1="160" y1="184" x2="160" y2="304" gradientUnits="userSpaceOnUse">
<stop stop-color="white" stop-opacity="0"/>
<stop offset="1" stop-color="#B4DEF5"/>
</linearGradient>
<linearGradient id="paint1_linear_382_556" x1="448" y1="184" x2="448" y2="352" gradientUnits="userSpaceOnUse">
<stop stop-color="white" stop-opacity="0"/>
<stop offset="1" stop-color="#B4DEF5"/>
</linearGradient>
<linearGradient id="paint2_linear_382_556" x1="160" y1="16" x2="160" y2="159" gradientUnits="userSpaceOnUse">
<stop stop-color="#FF86A5"/>
<stop offset="1" stop-color="white" stop-opacity="0"/>
</linearGradient>
<linearGradient id="paint3_linear_382_556" x1="160" y1="15" x2="160" y2="111" gradientUnits="userSpaceOnUse">
<stop stop-color="#B4DEF5"/>
<stop offset="0.9999" stop-color="#FFF3F6"/>
</linearGradient>
<clipPath id="clip0_382_556">
<rect x="16" y="16" width="288" height="288" rx="4" fill="white"/>
</clipPath>
</defs>
</svg>
