<svg width="152" height="71" viewBox="0 0 152 71" fill="none" xmlns="http://www.w3.org/2000/svg">
<g filter="url(#filter0_d_383_486)">
<path d="M44.1116 7.032C44.1116 5.556 42.8876 5.592 41.6996 5.592V4.8H50.0876V5.592C48.9356 5.592 47.6756 5.556 47.6756 6.996V27.876C47.6756 29.316 48.9356 29.28 50.0876 29.28V30.072H41.6996V29.28C42.8876 29.28 44.1116 29.316 44.1116 27.84V17.832H32.6636V27.876C32.6636 29.316 33.9236 29.28 35.0756 29.28V30.072H26.6876V29.28C27.8396 29.28 29.0996 29.316 29.0996 27.84V7.032C29.0996 5.556 27.8396 5.592 26.6876 5.592V4.8H35.0756V5.592C33.9236 5.592 32.6636 5.556 32.6636 6.996V17.04H44.1116V7.032ZM64.5661 20.496C64.6741 16.14 62.6581 13.404 59.4181 13.404C56.7181 13.404 54.5221 16.5 54.2341 20.496H64.5661ZM54.2341 21.792C54.3781 30.72 63.5581 31.008 66.4021 24.996H66.8701V28.02C66.7981 28.092 64.0981 28.848 63.3061 29.172C62.0821 29.712 60.7141 30 59.4181 30C55.3141 30 50.5981 27.156 50.7421 21.072C50.8501 16.068 54.8821 12.612 59.4181 12.612C64.2061 12.612 68.4541 16.176 68.0941 21.324H54.2341V21.792ZM74.8393 15.564C74.9113 16.608 73.9753 17.184 73.0753 17.04C72.1393 16.86 71.5273 15.816 72.0313 14.88C72.8953 13.296 76.7473 12.612 78.2953 12.612C82.2913 12.612 86.1793 13.332 85.8913 19.668V27.768C85.8913 29.244 87.0433 29.172 88.1233 29.172V30H82.5073V27.264C81.4273 28.956 79.4833 30 76.4233 30C72.7873 30 69.4753 27.444 69.4753 24.276C69.4753 21.108 72.2833 18.552 76.7473 18.552C79.4833 18.552 81.3193 19.308 82.5073 21.072C82.6153 11.388 74.6233 12.864 74.8393 15.564ZM82.5073 23.52C82.1473 21.072 80.1313 19.344 77.6833 19.38C74.6233 19.38 72.7873 21.396 72.7873 24.276C72.7873 27.156 74.6233 29.172 77.6833 29.172C80.1313 29.208 82.1473 27.48 82.5073 25.032V23.52ZM91.1453 27.768V7.824C91.1453 6.744 90.4613 6.456 89.6333 6.42V5.592C90.7133 5.592 93.5573 5.664 94.1333 4.728H94.7093V27.768C94.7093 29.244 95.9693 29.172 97.1213 29.172V30H88.7333V29.172C89.8853 29.172 91.1453 29.244 91.1453 27.768ZM102.472 10.956H105.136V11.784H102.472V23.016C102.472 24.924 100.348 26.292 101.068 27.948C101.428 28.776 102.652 29.028 102.976 28.056C103.444 26.58 105.64 26.904 105.64 28.452C105.64 30.468 102.184 30.612 100.852 29.352C99.0521 27.624 98.9081 25.068 98.9081 23.016V11.784H97.3961V10.956C100.168 10.632 101.896 8.544 101.896 6.924V6.816H102.472V10.956ZM108.864 27.768V7.824C108.864 6.744 108.18 6.456 107.352 6.42V5.592C108.432 5.592 111.276 5.664 111.852 4.728H112.428V15.852C113.796 13.836 115.956 12.612 118.296 12.612C121.284 12.612 123.12 14.484 123.12 17.256V27.768C123.084 29.244 124.344 29.172 125.496 29.172V30H117.108V29.172C118.296 29.172 119.52 29.244 119.52 27.768V16.032C119.52 12.468 113.688 13.332 112.428 18.48V27.768C112.428 29.244 113.688 29.208 114.84 29.208V30H106.452V29.208C107.604 29.208 108.864 29.244 108.864 27.768ZM8.99472 40.728C10.1827 40.728 11.1187 41.664 11.1187 42.816C11.1187 43.968 10.1827 44.904 8.99472 44.904C7.84272 44.904 6.90672 43.968 6.90672 42.816C6.90672 41.664 7.84272 40.728 8.99472 40.728ZM7.23072 63.768V51.708C7.23072 50.628 6.54672 50.376 5.71872 50.304V49.476C6.79872 49.476 9.64272 49.548 10.2187 48.612H10.7947V63.768C10.7947 65.244 12.0547 65.172 13.2067 65.172V66H4.81872V65.172C5.97072 65.172 7.23072 65.244 7.23072 63.768ZM27.1002 53.976C25.8402 50.664 24.2562 49.512 21.6282 49.512C19.8282 49.512 17.4522 50.412 17.4522 52.176C17.4522 55.596 28.0002 54.912 28.3602 60.672C28.6122 64.704 24.5442 66.108 20.9082 66C19.3242 66.036 17.3442 65.64 15.9042 65.172C15.7242 65.244 15.6522 65.388 15.6882 65.676L15.0042 65.64L14.1042 60.564L14.7882 60.6C15.7242 63.948 18.7842 65.1 21.2682 65.028C24.5442 64.92 25.7682 63.588 25.5882 62.076C25.0842 57.972 15.1842 58.944 14.5722 53.94C14.1042 49.908 18.4242 48.504 21.7002 48.612C23.2482 48.54 24.8682 48.936 26.3442 49.44C26.4882 49.332 26.5962 49.188 26.5242 48.9L27.2082 48.936L27.7482 54.012L27.1002 53.976ZM53.21 66.072H50.366L49.754 63.84L49.682 63.516L49.358 62.4L49.322 62.184L49.07 61.32L49.034 61.212L48.89 60.6L48.602 59.664L48.422 58.944L44.066 43.032C43.67 41.556 42.446 41.592 41.294 41.592V40.8H49.43V41.592C48.35 41.592 47.27 41.664 47.666 42.996L53.174 63.228L57.53 47.208L59.294 40.8H59.366L59.978 42.996L60.014 43.212L60.05 43.32L60.158 43.752L60.194 43.86L60.302 44.22L60.77 45.984L60.878 46.308L65.486 63.228L71.138 42.492C71.354 41.7 69.95 41.628 69.302 41.592V40.8H74.558V41.592C73.802 41.592 72.182 41.592 71.93 42.456L65.918 64.488L65.522 66.072H62.678L62.066 63.84L62.03 63.732L61.958 63.444L61.922 63.264L61.886 63.12L61.814 62.94L61.778 62.796L61.706 62.436L61.634 62.256L61.598 62.076L61.526 61.896L61.49 61.68L61.418 61.5L61.382 61.32L61.31 61.104L61.274 60.888L61.202 60.708L61.166 60.492L61.094 60.276L61.058 60.06L57.926 48.684L53.21 66.072ZM86.3629 56.496C86.4709 52.14 84.4549 49.404 81.2149 49.404C78.5149 49.404 76.3189 52.5 76.0309 56.496H86.3629ZM76.0309 57.792C76.1749 66.72 85.3549 67.008 88.1989 60.996H88.6669V64.02C88.5949 64.092 85.8949 64.848 85.1029 65.172C83.8789 65.712 82.5109 66 81.2149 66C77.1109 66 72.3949 63.156 72.5389 57.072C72.6469 52.068 76.6789 48.612 81.2149 48.612C86.0029 48.612 90.2509 52.176 89.8909 57.324H76.0309V57.792ZM96.6362 51.564C96.7082 52.608 95.7722 53.184 94.8722 53.04C93.9362 52.86 93.3242 51.816 93.8282 50.88C94.6922 49.296 98.5442 48.612 100.092 48.612C104.088 48.612 107.976 49.332 107.688 55.668V63.768C107.688 65.244 108.84 65.172 109.92 65.172V66H104.304V63.264C103.224 64.956 101.28 66 98.2202 66C94.5842 66 91.2722 63.444 91.2722 60.276C91.2722 57.108 94.0802 54.552 98.5442 54.552C101.28 54.552 103.116 55.308 104.304 57.072C104.412 47.388 96.4202 48.864 96.6362 51.564ZM104.304 59.52C103.944 57.072 101.928 55.344 99.4802 55.38C96.4202 55.38 94.5842 57.396 94.5842 60.276C94.5842 63.156 96.4202 65.172 99.4802 65.172C101.928 65.208 103.944 63.48 104.304 61.032V59.52ZM112.942 63.768V43.824C112.942 42.744 112.258 42.456 111.43 42.42V41.592C112.51 41.592 115.354 41.664 115.93 40.728H116.506V63.768C116.506 65.244 117.766 65.172 118.918 65.172V66H110.53V65.172C111.682 65.172 112.942 65.244 112.942 63.768ZM124.269 46.956H126.933V47.784H124.269V59.016C124.269 60.924 122.145 62.292 122.865 63.948C123.225 64.776 124.449 65.028 124.773 64.056C125.241 62.58 127.437 62.904 127.437 64.452C127.437 66.468 123.981 66.612 122.649 65.352C120.849 63.624 120.705 61.068 120.705 59.016V47.784H119.193V46.956C121.965 46.632 123.693 44.544 123.693 42.924V42.816H124.269V46.956ZM130.661 63.768V43.824C130.661 42.744 129.977 42.456 129.149 42.42V41.592C130.229 41.592 133.073 41.664 133.649 40.728H134.225V51.852C135.593 49.836 137.753 48.612 140.093 48.612C143.081 48.612 144.917 50.484 144.917 53.256V63.768C144.881 65.244 146.141 65.172 147.293 65.172V66H138.905V65.172C140.093 65.172 141.317 65.244 141.317 63.768V52.032C141.317 48.468 135.485 49.332 134.225 54.48V63.768C134.225 65.244 135.485 65.208 136.637 65.208V66H128.249V65.208C129.401 65.208 130.661 65.244 130.661 63.768Z" fill="#111111"/>
</g>
<defs>
<filter id="filter0_d_383_486" x="0.818726" y="0.727539" width="150.474" height="70.2803" filterUnits="userSpaceOnUse" color-interpolation-filters="sRGB">
<feFlood flood-opacity="0" result="BackgroundImageFix"/>
<feColorMatrix in="SourceAlpha" type="matrix" values="0 0 0 0 0 0 0 0 0 0 0 0 0 0 0 0 0 0 127 0" result="hardAlpha"/>
<feOffset/>
<feGaussianBlur stdDeviation="2"/>
<feComposite in2="hardAlpha" operator="out"/>
<feColorMatrix type="matrix" values="0 0 0 0 1 0 0 0 0 1 0 0 0 0 1 0 0 0 1 0"/>
<feBlend mode="normal" in2="BackgroundImageFix" result="effect1_dropShadow_383_486"/>
<feBlend mode="normal" in="SourceGraphic" in2="effect1_dropShadow_383_486" result="shape"/>
</filter>
</defs>
</svg>
