<svg width="3" height="11" viewBox="0 0 3 11" fill="none" xmlns="http://www.w3.org/2000/svg">
<path d="M-8.88651e-08 0.00474142C-8.88651e-08 0.00474142 2.13409 0.260778 2.13409 2.29959V3.99227C2.13409 3.99227 2.09318 5.17763 3 5.50004C3 5.50004 1.09773 5.36254 1.09773 3.71253V1.92501C1.09773 1.92501 1.22045 0.573711 -8.88651e-08 0V0.00474142Z" fill="#111111"/>
<path d="M0 10.9953C0 10.9953 2.13409 10.7393 2.13409 8.70046V7.00777C2.13409 7.00777 2.09318 5.82242 3 5.5C3 5.5 1.09773 5.6375 1.09773 7.28751V9.07503C1.09773 9.07503 1.22045 10.4263 0 11V10.9953Z" fill="#111111"/>
</svg>
