<svg width="7" height="12" viewBox="0 0 7 12" fill="none" xmlns="http://www.w3.org/2000/svg">
<path d="M2.80005 5.9998L6.70005 9.89981C6.88338 10.0831 6.97505 10.3165 6.97505 10.5998C6.97505 10.8831 6.88338 11.1165 6.70005 11.2998C6.51672 11.4831 6.28338 11.5748 6.00005 11.5748C5.71672 11.5748 5.48338 11.4831 5.30005 11.2998L0.700049 6.6998C0.600049 6.5998 0.529215 6.49147 0.487549 6.3748C0.445882 6.25814 0.425049 6.13314 0.425049 5.9998C0.425049 5.86647 0.445882 5.74147 0.487549 5.6248C0.529215 5.50814 0.600049 5.3998 0.700049 5.2998L5.30005 0.699805C5.48338 0.516471 5.71672 0.424805 6.00005 0.424805C6.28338 0.424805 6.51672 0.516471 6.70005 0.699805C6.88338 0.883138 6.97505 1.11647 6.97505 1.3998C6.97505 1.68314 6.88338 1.91647 6.70005 2.0998L2.80005 5.9998Z" fill="black"/>
</svg>
