<svg width="58" height="54" viewBox="0 0 58 54" fill="none" xmlns="http://www.w3.org/2000/svg">
<path d="M55.8706 18.6923V16.6154V14.5385H53.8571V12.4615H51.7857V10.3846H47.6429V12.4615H45.5714V14.5385H43.5V16.6154H41.4286V18.6923H35.2143V16.6154V14.5385V12.4615H37.2857V10.3846H39.3571V8.30769H41.4286V4.15385H39.3571V2.07692H33.1429V0H31.0714V2.07692H29V4.15385H26.9286V8.30769V10.3846H29V12.4615V14.5385H26.9286V16.6154H22.7857V18.6923H20.7143V16.6154H18.6429V14.5385V12.4615V10.3846V8.29938H16.5714V6.21415H12.4286V8.29938H8.28571V10.3846H6.21429V12.4615H4.14286V14.5385H2.07143V16.6154V18.6923H0V20.7692V22.8462V24.9231V27H2.07143V24.9231H4.14286V22.8462H6.21429V20.7692H8.28571V22.8462V24.9231V27V29.0769H10.3571V27H12.4286V24.9231H14.5V22.8462H16.5714V29.0769H18.6429V24.9231H20.7143V27V29.0769V31.1538V35.3077H22.7857V37.3846H16.5714V39.4615H14.5V41.5385H12.4286V43.6154H10.3571V45.6923V49.8462H12.4286V51.9231H14.5V54H20.7143V51.9231H18.6429V49.8462H16.5714V45.6923H18.6429V43.6154H26.9286V41.5385H29V39.4615H31.0714V37.3846H33.1429V39.4615H37.2857V37.3846H39.3571V35.3077H37.2857V31.1538H39.3571V29.0769H41.4286V27H43.5V29.0769V31.1538H45.5714V29.0769H47.6429V27V24.9231V22.8462H49.6811V31.1538H51.7857V33.2308H53.8571V31.1538H55.9286V22.8462H58V20.7692V18.6923H55.8706Z" fill="#111111"/>
</svg>
