<svg width="259" height="108" viewBox="0 0 259 108" fill="none" xmlns="http://www.w3.org/2000/svg">
<g clip-path="url(#clip0_198_319)">
<path d="M78.4812 47.498C77.2994 47.5571 76.2059 47.6334 75.7299 47.7078C75.7238 47.7018 75.7141 47.6908 75.7024 47.6718C75.6579 47.5994 75.6104 47.4528 75.6104 47.2278C75.6104 47.0002 75.6615 46.4078 75.7322 45.5877C75.77 45.1501 75.8133 44.6476 75.8575 44.1011C75.9819 42.5607 76.1078 40.7174 76.1078 39.172V26.4329C76.1078 23.4672 75.7389 20.9442 74.9451 19.407C74.9977 19.2242 75.2002 18.9478 75.7316 18.6104C76.3302 18.2305 77.208 17.8638 78.2797 17.5445C80.4175 16.9076 83.222 16.4897 85.8411 16.4897C90.195 16.4897 94.9739 17.2316 98.6468 19.3789C102.177 21.4425 104.709 24.8138 104.857 30.1894H104.853V30.6894V30.7097C104.853 37.2337 102.626 41.4586 99.4788 44.063C96.3151 46.6811 92.1589 47.7132 88.2268 47.7132C87.7005 47.7132 86.8218 47.6495 85.8218 47.5769C85.7088 47.5687 85.5943 47.5603 85.4786 47.552C84.3553 47.471 83.1314 47.3882 82.1863 47.3882C81.185 47.3882 79.7546 47.4343 78.4812 47.498ZM88.4502 21.5037H87.9502V22.0037V43.3472V43.8472H88.4502C89.1828 43.8472 89.8263 43.4218 90.3528 42.8164C90.884 42.2056 91.3514 41.3518 91.7391 40.3431C92.5161 38.3218 93.011 35.58 93.011 32.6297C93.011 29.6859 92.5662 26.9668 91.8127 24.9653C91.4366 23.9663 90.9737 23.1196 90.4285 22.5138C89.8824 21.9071 89.2157 21.5037 88.4502 21.5037Z" stroke="#111111"/>
<path d="M131.273 35.1618H131.762C131.732 35.194 131.699 35.2266 131.663 35.2596C131.414 35.4859 131.024 35.7046 130.492 35.8936C129.432 36.2706 127.928 36.4882 126.226 36.4882C123.542 36.4882 120.387 36.1652 118.972 35.888L118.355 35.7671L118.376 36.3954C118.464 39.0044 118.85 41.2129 119.414 42.7863C119.696 43.5706 120.031 44.2235 120.416 44.69C120.798 45.1515 121.284 45.4932 121.861 45.4932C122.573 45.4932 123.065 45.1007 123.349 44.5528C123.617 44.036 123.711 43.3718 123.711 42.7075C123.711 41.9797 123.599 41.3289 123.457 40.7106C124.014 40.3404 124.816 40.1701 125.546 40.1701C127.753 40.1701 129.989 41.9346 130.804 44.1155C129.079 46.9299 125.661 48.6786 120.135 48.6786C116.33 48.6786 113.155 47.5818 110.933 45.4502C108.715 43.3223 107.386 40.1047 107.386 35.7386C107.386 31.3716 108.729 27.8385 111.042 25.4009C113.353 22.9658 116.675 21.5796 120.724 21.5796C124.17 21.5796 126.956 22.3958 128.887 24.376C130.794 26.331 131.956 29.5106 131.989 34.4453L131.273 35.1618ZM118.244 33.5748V34.0748H118.744C120.312 34.0748 121.65 33.8351 122.631 33.427L122.939 33.2988V32.9653C122.939 30.5766 122.735 28.6548 122.382 27.3142C122.207 26.6473 121.986 26.092 121.713 25.6919C121.444 25.2976 121.059 24.9682 120.551 24.9682C119.975 24.9682 119.585 25.3992 119.336 25.8449C119.075 26.311 118.873 26.9512 118.717 27.697C118.402 29.1974 118.244 31.2625 118.244 33.5748Z" stroke="#111111"/>
<path d="M143.768 31.488C143.884 32.0149 144.032 32.496 144.198 32.8782C143.726 33.2508 142.986 33.6156 142.076 33.903C140.996 34.2443 139.739 34.4563 138.551 34.4563C137.423 34.4563 136.47 34.0768 135.796 33.3513C135.12 32.6229 134.675 31.4916 134.675 29.8972C134.675 27.4111 136.15 25.4088 138.541 24.0032C140.938 22.5944 144.206 21.8232 147.616 21.8232C151.037 21.8232 153.957 22.5296 156.011 24.0676C158.04 25.5876 159.289 27.9684 159.289 31.482V41.4071C159.289 42.4421 159.468 43.3866 159.704 44.0989C159.821 44.454 159.957 44.764 160.1 45.0037C160.172 45.1232 160.252 45.2359 160.34 45.3301C160.405 45.3997 160.495 45.4817 160.611 45.5397C160.653 45.5825 160.73 45.7083 160.73 45.8972C160.73 46.8015 159.978 47.5552 158.807 48.1139C157.665 48.6585 156.33 48.9121 155.596 48.9121C153.841 48.9121 152.682 48.6393 151.846 48.1812C151.018 47.7274 150.454 47.0634 149.937 46.1742L149.515 45.4483L149.078 46.165C148.577 46.9863 147.543 47.6808 146.114 48.1695C144.699 48.6537 142.964 48.9121 141.16 48.9121C138.958 48.9121 137.035 48.4886 135.679 47.6387C134.349 46.805 133.548 45.5548 133.548 43.7944C133.548 41.9789 134.173 40.6625 135.115 39.6793C136.069 38.6833 137.372 38.0059 138.753 37.5321L138.757 37.5308C141.377 36.6103 144.244 35.9236 147.921 35.9236H148.421V35.4236C148.421 32.0832 148.161 29.6126 147.735 27.9614C147.523 27.139 147.261 26.4867 146.945 26.0284C146.631 25.5734 146.206 25.2321 145.667 25.2321C145.299 25.2321 144.955 25.3249 144.654 25.5254C144.357 25.7239 144.131 26.0081 143.964 26.3458C143.637 27.0065 143.502 27.933 143.502 29.0642C143.502 29.9213 143.608 30.7651 143.768 31.488ZM148.417 42.8355L148.431 42.7774V42.7175V38.1258V37.6258H147.931C146.872 37.6258 145.89 38.1985 145.188 38.9653C144.485 39.7327 144 40.7626 144 41.7829C144 42.8555 144.176 43.739 144.499 44.3742C144.822 45.007 145.341 45.4728 146.022 45.4728H146.033H146.043C146.357 45.4728 146.645 45.3491 146.885 45.1899C147.129 45.0285 147.353 44.8102 147.55 44.5681C147.942 44.0861 148.266 43.4556 148.417 42.8355Z" stroke="#111111"/>
<path d="M165.121 31.8194H165.131V31.3194C165.131 28.879 163.786 27.1194 162.614 26.4666C162.614 26.4585 162.613 26.4507 162.613 26.4432C162.613 25.2853 163.283 24.2991 164.389 23.5798C165.497 22.8586 166.999 22.4429 168.509 22.4429C169.698 22.4429 170.651 22.7047 171.421 23.2317C172.192 23.7594 172.824 24.5841 173.315 25.7888L173.795 26.9664L174.246 25.7771C175.134 23.4329 177.61 21.5591 180.143 21.5591C181.434 21.5591 182.416 21.919 183.07 22.5166C183.719 23.1091 184.1 23.9846 184.1 25.1327C184.1 27.6109 183.001 29.2544 181.947 29.8742C181.692 29.5454 181.346 29.2665 180.956 29.0543C180.4 28.7511 179.721 28.5642 179.006 28.5642C178.14 28.5642 177.376 29.0409 176.846 29.7042C176.313 30.3703 175.979 31.2648 175.979 32.2032V42.3619C175.979 43.2505 176.133 44.3059 176.279 45.2103C176.308 45.3841 176.335 45.5513 176.362 45.7115C176.406 45.9765 176.447 46.2221 176.481 46.446C176.537 46.8113 176.567 47.0732 176.567 47.228C176.567 47.3679 176.51 47.5436 176.409 47.6989C176.36 47.7736 176.308 47.8318 176.264 47.8709C176.227 47.9031 176.205 47.913 176.202 47.9145C175.808 48.0144 174.998 48.0845 173.939 48.1265C172.89 48.168 171.649 48.1807 170.438 48.1807C169.075 48.1807 167.807 48.1227 166.806 48.0255C166.305 47.9769 165.877 47.919 165.54 47.8551C165.219 47.7942 165.016 47.734 164.913 47.6882C164.849 47.6373 164.715 47.4791 164.715 47.0959C164.715 46.8251 164.768 46.2834 164.838 45.5698C164.862 45.3219 164.889 45.0534 164.916 44.7682C165.017 43.6901 165.121 42.4178 165.121 41.2953V31.8194Z" stroke="#111111"/>
<path d="M31.0886 85.3211H31.0785V85.8211C31.0785 88.0207 31.2142 89.9114 31.3496 91.3671C31.3993 91.9009 31.4491 92.3784 31.4919 92.7884C31.5073 92.9362 31.5218 93.0751 31.535 93.2048C31.5863 93.7065 31.6165 94.05 31.6165 94.2529C31.6165 94.29 31.6097 94.3199 31.5508 94.3695C31.4767 94.4319 31.3433 94.5001 31.1349 94.562C30.4005 94.7372 28.8129 95.0126 26.9796 95.0126C25.1298 95.0126 23.2701 94.7326 22.5366 94.5587L22.5338 94.5581C22.4502 94.5388 22.407 94.5042 22.3757 94.4566C22.3376 94.3988 22.2919 94.2805 22.2919 94.0599C22.2919 93.8322 22.343 93.2399 22.4137 92.4197C22.4515 91.9821 22.4948 91.4797 22.539 90.9332C22.6635 89.3927 22.7893 87.5495 22.7893 86.004V73.6815C22.7893 72.1298 22.6525 70.6145 22.4173 69.3036C22.1957 68.0691 21.8815 66.9848 21.4932 66.2199C21.5727 64.8211 23.0751 63.3218 25.8629 63.3218C28.7617 63.3218 30.6491 64.1235 32.068 65.5829L41.1613 76.6603L42.0478 77.7402V76.343V73.6815C42.0478 72.1397 41.9554 70.6282 41.7579 69.3174C41.5726 68.088 41.2888 66.9915 40.8734 66.213C40.9098 65.5156 41.257 64.8309 41.9711 64.2981C42.7347 63.7283 43.9373 63.3218 45.639 63.3218C46.4571 63.3218 47.5183 63.5691 48.576 63.9932C49.5164 64.3702 50.4175 64.8724 51.1073 65.4225C50.6066 67.2132 50.3267 69.793 50.3267 73.1227V93.491C50.3267 93.853 50.1261 94.2118 49.6317 94.5045C49.1292 94.802 48.3574 95.0024 47.3547 95.0024C45.8017 95.0024 44.2569 94.7791 43.1142 94.1661L31.9496 82.519L31.0886 81.6208V82.865V85.3211Z" stroke="#111111"/>
<path d="M70.2299 89.5391C70.2299 88.8113 70.1181 88.1605 69.9762 87.5421C70.5331 87.1722 71.3356 87.0016 72.075 87.0016C74.2824 87.0016 76.518 88.7662 77.333 90.9471C75.6079 93.7614 72.1906 95.5102 66.6639 95.5102C62.8595 95.5102 59.6839 94.4133 57.4621 92.2818C55.244 90.1538 53.9155 86.9362 53.9155 82.5702C53.9155 78.2031 55.258 74.67 57.5713 72.2325C59.8822 69.7974 63.2039 68.4111 67.2528 68.4111C70.6993 68.4111 73.4876 69.2274 75.4215 71.2078C77.2105 73.0398 78.3459 75.947 78.5088 80.3659V81.4832C78.5088 81.6682 78.425 81.8704 78.1821 82.0911C77.9331 82.3174 77.5429 82.5361 77.0114 82.7251C75.9512 83.1021 74.4468 83.3197 72.745 83.3197C70.071 83.3197 66.9059 82.9967 65.4911 82.7195L64.8742 82.5986L64.8952 83.2269C64.9826 85.8359 65.3685 88.0445 65.9332 89.6178C66.2147 90.4021 66.5499 91.055 66.9354 91.5215C67.3168 91.9831 67.8028 92.3248 68.3796 92.3248C69.0922 92.3248 69.5841 91.9322 69.868 91.3843C70.1357 90.8675 70.2299 90.2033 70.2299 89.5391ZM64.763 80.4064V80.9064H65.263C66.8306 80.9064 68.1692 80.6667 69.1504 80.2585L69.4583 80.1304V79.7968C69.4583 77.4082 69.2541 75.4863 68.9012 74.1458C68.7257 73.4789 68.5053 72.9235 68.2319 72.5234C67.9626 72.1291 67.5781 71.7997 67.07 71.7997C66.494 71.7997 66.104 72.2308 65.8546 72.6764C65.5936 73.1426 65.3919 73.7828 65.2355 74.5285C64.921 76.029 64.763 78.0941 64.763 80.4064Z" stroke="#111111"/>
<path d="M106.747 71.9396C107.821 74.0717 108.351 76.8193 108.706 79.2496C108.916 80.6845 109.119 82.194 109.31 83.6179C109.387 84.1921 109.462 84.7523 109.535 85.2881C109.788 87.1392 110.017 88.7201 110.206 89.5399L110.556 91.0589L111.155 89.6195C111.865 87.913 112.635 84.5647 112.635 80.6199C112.635 77.1186 111.538 73.684 109.403 71.7655L109.395 71.7578L109.386 71.7505C109.23 71.6227 109.204 71.5176 109.204 71.4872C109.204 71.3468 109.304 71.0485 109.61 70.6333C109.901 70.2386 110.333 69.8009 110.875 69.3926C111.962 68.5735 113.438 67.9136 115.018 67.9136C117.232 67.9136 119.272 68.5119 120.76 69.995C122.247 71.4768 123.259 73.9183 123.259 77.7653C123.259 82.349 121.543 86.7981 119.032 90.0975C116.511 93.4118 113.261 95.4799 110.236 95.4799C106.62 95.4799 104.108 94.2208 102.402 92.3607L102.062 91.9893L101.693 92.3328C99.5482 94.3304 97.1363 95.4799 94.8663 95.4799C90.1463 95.4799 87.326 93.3025 85.5996 90.4297L85.598 90.4269C83.9291 87.6897 82.4504 82.9969 81.2026 77.3227L81.2023 77.3209C80.5977 74.6182 80.0996 72.964 79.283 71.7214C79.3527 71.0704 79.8997 70.2764 81.0549 69.603C82.2718 68.8937 84.0746 68.3809 86.3487 68.3809C88.7537 68.3809 90.3392 69.8086 91.4213 71.9221C92.5113 74.0509 93.0415 76.797 93.324 79.2151L93.324 79.2151L93.3244 79.2183C93.82 83.2368 94.453 87.955 94.8266 89.5231L95.1767 90.9925L95.7724 89.6044C96.4852 87.9437 97.2545 84.5415 97.2545 80.5996C97.2545 78.9144 96.8234 76.8699 96.3089 75.1838C96.0506 74.3371 95.7671 73.5672 95.498 72.9644C95.3636 72.6634 95.2298 72.3971 95.1012 72.1809C94.9938 72.0005 94.8711 71.8219 94.7341 71.691C94.6943 71.6328 94.6701 71.5853 94.6556 71.5393V71.4161C94.6556 71.2325 94.7554 70.9502 95.0567 70.6035C95.3517 70.2642 95.8065 69.9037 96.4205 69.5732C97.6461 68.9135 99.4563 68.4012 101.729 68.4012C104.131 68.4012 105.681 69.8252 106.747 71.9396Z" stroke="#111111"/>
<path d="M135.98 63.8571V63.8599H136.48C138.204 63.8599 139.981 64.1667 141.398 64.7823C142.823 65.4014 143.804 66.2936 144.108 67.4206C144.795 69.9999 145.31 73.3073 145.809 76.5058C146.019 77.858 146.227 79.1907 146.443 80.4407L146.719 82.0317L147.391 80.5636C148.641 77.8326 149.192 75.2722 149.192 71.9745C149.192 69.7063 148.272 67.61 146.923 66.0526C148.522 64.1752 151.243 62.8745 154.784 62.8745C158.353 62.8745 160.994 65.6757 160.994 69.3434C160.994 70.8857 160.466 72.5356 159.638 74.2071C158.811 75.8751 157.703 77.5298 156.582 79.0766C156.069 79.7837 155.542 80.4833 155.04 81.149C154.466 81.9106 153.926 82.6278 153.479 83.2608C153.053 83.8653 152.685 84.4278 152.424 84.9282C152.169 85.4144 151.979 85.9051 151.979 86.3491V88.2183C151.979 89.9329 152.116 91.2314 152.253 92.2184C152.295 92.5207 152.338 92.8028 152.376 93.0524C152.399 93.2013 152.42 93.3386 152.438 93.4619C152.489 93.8079 152.517 94.059 152.517 94.2526C152.517 94.2986 152.502 94.3431 152.442 94.3961C152.375 94.4558 152.254 94.5186 152.078 94.5525C150.962 94.7335 149.237 95.0123 146.479 95.0123C145.094 95.0123 143.619 94.9419 142.402 94.8487C141.167 94.7541 140.244 94.6393 139.932 94.5603L139.921 94.5575L139.91 94.5551C139.799 94.5324 139.77 94.4968 139.752 94.4679C139.721 94.4172 139.68 94.3013 139.68 94.0596C139.68 93.9084 139.703 93.6809 139.746 93.3469C139.759 93.2426 139.774 93.1286 139.79 93.0061C139.824 92.752 139.862 92.4608 139.9 92.1412C140.013 91.1847 140.127 89.935 140.127 88.391V86.339C140.127 85.3947 139.687 84.0245 139.072 82.5403C138.446 81.0313 137.603 79.3248 136.73 77.6746C134.983 74.3731 133.096 71.264 132.529 70.3499L132.529 70.3499L132.528 70.348C131.845 69.256 130.863 67.7303 129.906 66.7588C129.991 66.0986 130.503 65.4155 131.545 64.8587C132.592 64.2993 134.102 63.9143 135.98 63.8571Z" stroke="#111111"/>
<path d="M177.111 89.5391C177.111 88.8113 176.999 88.1605 176.857 87.5421C177.414 87.1722 178.216 87.0016 178.956 87.0016C181.163 87.0016 183.399 88.7662 184.214 90.9471C182.489 93.7614 179.071 95.5102 173.545 95.5102C169.74 95.5102 166.565 94.4133 164.343 92.2818C162.125 90.1538 160.796 86.9362 160.796 82.5702C160.796 78.2029 162.136 74.6698 164.448 72.2324C166.758 69.7974 170.079 68.4111 174.133 68.4111C177.58 68.4111 180.368 69.2274 182.302 71.2078C184.091 73.0398 185.227 75.947 185.39 80.3658V81.4832C185.39 81.6682 185.306 81.8704 185.063 82.0911C184.814 82.3174 184.424 82.5361 183.892 82.7251C182.832 83.1021 181.328 83.3197 179.626 83.3197C176.952 83.3197 173.787 82.9967 172.372 82.7195L171.755 82.5986L171.776 83.2269C171.863 85.8359 172.249 88.0445 172.814 89.6178C173.095 90.4021 173.431 91.055 173.816 91.5215C174.198 91.9831 174.684 92.3248 175.26 92.3248C175.973 92.3248 176.465 91.9322 176.749 91.3843C177.016 90.8675 177.111 90.2033 177.111 89.5391ZM171.644 80.4064V80.9064H172.144C173.711 80.9064 175.05 80.6667 176.031 80.2585L176.339 80.1304V79.7968C176.339 77.4082 176.135 75.4863 175.782 74.1458C175.606 73.4789 175.386 72.9235 175.113 72.5234C174.843 72.1291 174.459 71.7997 173.951 71.7997C173.375 71.7997 172.985 72.2308 172.735 72.6764C172.474 73.1426 172.273 73.7828 172.116 74.5285C171.802 76.029 171.644 78.0941 171.644 80.4064Z" stroke="#111111"/>
<path d="M212.71 77.5596H212.709V78.0596V87.9847C212.709 89.0198 212.888 89.9642 213.124 90.6765C213.241 91.0316 213.377 91.3417 213.521 91.5814C213.592 91.7008 213.672 91.8135 213.76 91.9077C213.825 91.9773 213.915 92.0593 214.032 92.1173C214.074 92.1602 214.15 92.286 214.15 92.4748C214.15 93.3791 213.398 94.1328 212.227 94.6915C211.086 95.2361 209.75 95.4898 209.016 95.4898C207.261 95.4898 206.103 95.2169 205.266 94.7589C204.438 94.305 203.874 93.6411 203.357 92.7519L202.936 92.0279L202.498 92.7417C201.997 93.5587 200.963 94.2535 199.535 94.7435C198.121 95.229 196.388 95.4898 194.59 95.4898C192.389 95.4898 190.465 95.0663 189.109 94.2163C187.78 93.3826 186.978 92.1324 186.978 90.372C186.978 88.5566 187.603 87.2402 188.545 86.2569C189.499 85.261 190.803 84.5835 192.184 84.1097L192.184 84.1097L192.188 84.1083C194.797 83.1881 197.674 82.5012 201.351 82.5012H201.851V82.0012C201.851 78.6609 201.592 76.1902 201.165 74.5391C200.953 73.7166 200.691 73.0643 200.375 72.6061C200.062 72.151 199.636 71.8098 199.097 71.8098C198.729 71.8098 198.385 71.9025 198.084 72.103C197.787 72.3015 197.561 72.5857 197.394 72.9235C197.067 73.5842 196.932 74.5107 196.932 75.6418C196.932 76.4979 197.036 77.3414 197.194 78.0648C197.309 78.5912 197.457 79.0736 197.626 79.4576C197.154 79.8296 196.415 80.1937 195.507 80.4806C194.426 80.822 193.17 81.0339 191.981 81.0339C190.853 81.0339 189.9 80.6545 189.227 79.9289C188.55 79.2006 188.105 78.0692 188.105 76.4748C188.105 73.9888 189.58 71.9864 191.971 70.5808C194.368 69.1721 197.636 68.4009 201.047 68.4009C204.467 68.4009 207.387 69.1072 209.441 70.6452C211.373 72.092 212.597 74.3187 212.71 77.5596ZM201.837 89.4132L201.851 89.355V89.2952V84.7034V84.2034H201.351C200.292 84.2034 199.309 84.7795 198.608 85.5471C197.906 86.3152 197.42 87.3449 197.42 88.3606C197.42 89.4331 197.596 90.317 197.921 90.9527C198.246 91.5874 198.768 92.0504 199.453 92.0504H199.463C199.776 92.0504 200.063 91.9258 200.302 91.7672C200.544 91.6061 200.769 91.3882 200.966 91.1464C201.358 90.6651 201.686 90.0345 201.837 89.4132Z" stroke="#111111"/>
<path d="M218.521 78.6509H218.531V78.1509C218.531 75.7105 217.186 73.9509 216.014 73.2981C216.014 73.29 216.013 73.2822 216.013 73.2748C216.013 72.1168 216.683 71.1307 217.788 70.4113C218.897 69.6901 220.398 69.2744 221.909 69.2744C223.098 69.2744 224.051 69.5363 224.821 70.0632C225.592 70.591 226.224 71.4157 226.715 72.6204L227.195 73.7979L227.645 72.6087C228.533 70.2645 231.009 68.3906 233.543 68.3906C234.833 68.3906 235.816 68.7505 236.47 69.3481C237.119 69.9406 237.5 70.8161 237.5 71.9643C237.5 74.4425 236.4 76.086 235.346 76.7057C235.092 76.3769 234.746 76.0981 234.356 75.8859C233.799 75.5826 233.121 75.3957 232.406 75.3957C231.54 75.3957 230.776 75.8724 230.245 76.5358C229.713 77.2018 229.378 78.0963 229.378 79.0347V89.1935C229.378 90.0821 229.532 91.1374 229.679 92.0419C229.707 92.2157 229.735 92.3829 229.762 92.543C229.806 92.808 229.847 93.0536 229.881 93.2775C229.937 93.6429 229.967 93.9048 229.967 94.0595C229.967 94.1995 229.91 94.3751 229.809 94.5304C229.76 94.6052 229.708 94.6634 229.663 94.7024C229.626 94.7346 229.605 94.7446 229.602 94.746C229.207 94.8459 228.398 94.916 227.338 94.958C226.29 94.9995 225.049 95.0122 223.838 95.0122C222.475 95.0122 221.207 94.9543 220.206 94.8571C219.705 94.8085 219.277 94.7506 218.94 94.6867C218.618 94.6257 218.416 94.5656 218.313 94.5198C218.249 94.4689 218.115 94.3106 218.115 93.9274C218.115 93.6566 218.168 93.115 218.238 92.4013C218.262 92.1535 218.289 91.8849 218.315 91.5998C218.417 90.5216 218.521 89.2493 218.521 88.1268V78.6509Z" stroke="#111111"/>
</g>
<path d="M203.981 2.54291C207.7 3.61095 208.534 9.22683 208.534 9.22683L209.102 9.14367C208.761 2.03126 204.103 1.14974 204.103 1.14974L202.673 1.0247L201.675 12.4338C200.549 11.816 198.886 11.8516 197.355 12.5448C195.133 13.552 193.924 15.6139 194.655 17.139C195.068 18.0024 196.015 18.5109 197.161 18.6112C198.044 18.6884 199.046 18.5225 200.014 18.0818C201.604 17.3605 202.718 16.0904 202.898 14.808L203.981 2.54291Z" fill="#111111"/>
<path d="M7.82754 59.2168L6.82971 47.8115L8.20039 47.6856L9.38962 61.3466C9.43729 62.6402 8.59851 64.0807 7.21629 65.0618C6.37533 65.6605 5.45464 65.9945 4.6065 66.0687C3.50422 66.1652 2.52161 65.8256 1.9829 65.0458C1.03158 63.6683 1.82456 61.432 3.75638 60.0619C5.0883 59.1184 6.65655 58.8001 7.82754 59.2168Z" fill="#111111"/>
<path d="M246.437 100.266L244.449 88.9915L255.727 86.9998L258.101 100.501C258.262 101.785 257.562 103.291 256.286 104.386C255.527 105.036 254.658 105.464 253.799 105.615C253.684 105.636 253.57 105.65 253.459 105.66C252.473 105.748 251.642 105.449 251.122 104.815C250.602 104.18 250.455 103.296 250.712 102.32C250.964 101.366 251.575 100.434 252.432 99.7004C253.662 98.6473 255.179 98.1965 256.371 98.5115L254.932 90.3537L246.345 91.8679L248.17 102.256C248.331 103.54 247.631 105.046 246.355 106.14C245.498 106.875 244.493 107.326 243.53 107.414C242.545 107.502 241.714 107.203 241.194 106.568C240.135 105.278 240.72 102.983 242.503 101.454C243.733 100.401 245.248 99.9507 246.437 100.266Z" fill="#111111"/>
<defs>
<clipPath id="clip0_198_319">
<rect width="217" height="80" fill="white" transform="translate(21 16)"/>
</clipPath>
</defs>
</svg>
