<svg width="126" height="71" viewBox="0 0 126 71" fill="none" xmlns="http://www.w3.org/2000/svg">
<g clip-path="url(#clip0_156_525)">
<path d="M42 5.25902H44.625H47.25H49.875H52.5V2.62939H49.875H47.25H44.625H42H39.375H36.75V5.25902H39.375H42Z" fill="#111111"/>
<path d="M34.125 7.88891H36.75V5.25928H34.125H31.5H28.875V7.88891H31.5H34.125Z" fill="#111111"/>
<path d="M26.25 10.5183H28.875V7.88867H26.25H23.625H21V10.5183H23.625H26.25Z" fill="#111111"/>
<path d="M21 13.1482V10.5186H18.375H15.75V13.1482H18.375H21Z" fill="#111111"/>
<path d="M15.75 13.1479H13.125V15.7776H15.75V13.1479Z" fill="#111111"/>
<path d="M13.125 15.7778H10.5V18.4075H13.125V15.7778Z" fill="#111111"/>
<path d="M10.5 18.4072H7.875V21.0369H10.5V18.4072Z" fill="#111111"/>
<path d="M7.875 21.0371H5.25V23.6667H7.875V21.0371Z" fill="#111111"/>
<path d="M5.25 26.2961V23.6665H2.625V26.2961V28.9258H5.25V26.2961Z" fill="#111111"/>
<path d="M57.75 2.62963H60.375H63H65.625H68.25H70.875H73.5V0H70.875H68.25H65.625H63H60.375H57.75H55.125H52.5V2.62963H55.125H57.75Z" fill="#111111"/>
<path d="M76.125 5.25902H78.75H81.375H84H86.625H89.25V2.62939H86.625H84H81.375H78.75H76.125H73.5V5.25902H76.125Z" fill="#111111"/>
<path d="M91.875 7.88891H94.5H97.125V5.25928H94.5H91.875H89.25V7.88891H91.875Z" fill="#111111"/>
<path d="M99.75 10.5183H102.375H105V7.88867H102.375H99.75H97.125V10.5183H99.75Z" fill="#111111"/>
<path d="M107.625 13.1482H110.25V10.5186H107.625H105V13.1482H107.625Z" fill="#111111"/>
<path d="M112.875 13.1479H110.25V15.7776H112.875V13.1479Z" fill="#111111"/>
<path d="M115.5 15.7778H112.875V18.4075H115.5V15.7778Z" fill="#111111"/>
<path d="M118.125 18.4072H115.5V21.0369H118.125V18.4072Z" fill="#111111"/>
<path d="M120.75 21.0371H118.125V23.6667H120.75V21.0371Z" fill="#111111"/>
<path d="M120.75 28.9258H123.375V26.2961V23.6665H120.75V26.2961V28.9258Z" fill="#111111"/>
<path d="M123.375 28.9258V31.1205V33.3051V35.4999V37.6946V39.8792V42.0739H126V39.8792V37.6946V35.4999V33.3051V31.1205V28.9258H123.375Z" fill="#111111"/>
<path d="M2.625 37.6946V35.4999V33.3051V31.1205V28.9258H0V31.1205V33.3051V35.4999V37.6946V39.8792V42.0739H2.625V39.8792V37.6946Z" fill="#111111"/>
<path d="M49.875 65.7407H47.25H44.625H42H39.375H36.75V68.3704H39.375H42H44.625H47.25H49.875H52.5V65.7407H49.875Z" fill="#111111"/>
<path d="M34.125 63.1113H31.5H28.875V65.741H31.5H34.125H36.75V63.1113H34.125Z" fill="#111111"/>
<path d="M26.25 60.4814H23.625H21V63.1111H23.625H26.25H28.875V60.4814H26.25Z" fill="#111111"/>
<path d="M18.375 57.8521H15.75V60.4817H18.375H21V57.8521H18.375Z" fill="#111111"/>
<path d="M15.75 55.2222H13.125V57.8518H15.75V55.2222Z" fill="#111111"/>
<path d="M13.125 52.5928H10.5V55.2224H13.125V52.5928Z" fill="#111111"/>
<path d="M10.5 49.9629H7.875V52.5925H10.5V49.9629Z" fill="#111111"/>
<path d="M7.875 47.3335H5.25V49.9631H7.875V47.3335Z" fill="#111111"/>
<path d="M5.25 42.0742H2.625V44.7039V47.3335H5.25V44.7039V42.0742Z" fill="#111111"/>
<path d="M68.25 68.3706H65.625H63H60.375H57.75H55.125H52.5V71.0002H55.125H57.75H60.375H63H65.625H68.25H70.875H73.5V68.3706H70.875H68.25Z" fill="#111111"/>
<path d="M84 65.7407H81.375H78.75H76.125H73.5V68.3704H76.125H78.75H81.375H84H86.625H89.25V65.7407H86.625H84Z" fill="#111111"/>
<path d="M91.875 63.1113H89.25V65.741H91.875H94.5H97.125V63.1113H94.5H91.875Z" fill="#111111"/>
<path d="M99.75 60.4814H97.125V63.1111H99.75H102.375H105V60.4814H102.375H99.75Z" fill="#111111"/>
<path d="M105 57.8521V60.4817H107.625H110.25V57.8521H107.625H105Z" fill="#111111"/>
<path d="M112.875 55.2222H110.25V57.8518H112.875V55.2222Z" fill="#111111"/>
<path d="M115.5 52.5928H112.875V55.2224H115.5V52.5928Z" fill="#111111"/>
<path d="M118.125 49.9629H115.5V52.5925H118.125V49.9629Z" fill="#111111"/>
<path d="M120.75 47.3335H118.125V49.9631H120.75V47.3335Z" fill="#111111"/>
<path d="M120.75 44.7039V47.3335H123.375V44.7039V42.0742H120.75V44.7039Z" fill="#111111"/>
<path d="M123.375 28.9257H120.75V23.6664H118.125V21.0368H115.5V18.4072H112.875V15.7775H110.25V13.1479H105V10.5183H97.125V7.88865H89.25V5.25902H73.5V2.62939H52.5V5.25902H36.75V7.88865H28.875V10.5183H21V13.1479H15.75V15.7775H13.125V18.4072H10.5V21.0368H7.875V23.6664H5.25V28.9257H2.625V42.0738H5.25V47.3331H7.875V49.9627H10.5V52.5924H13.125V55.222H15.75V57.8516H21V60.4813H28.875V63.1109H36.75V65.7405H52.5V68.3701H73.5V65.7405H89.25V63.1109H97.125V60.4813H105V57.8516H110.25V55.222H112.875V52.5924H115.5V49.9627H118.125V47.3331H120.75V42.0738H123.375V28.9257Z" fill="#F1F1F1"/>
</g>
<path d="M39.3906 19.3906V17.6875H48.4062V19.3906H44.9219V29H42.8906V19.3906H39.3906ZM48.3594 26.6094C48.3594 24.7031 49.9453 24.1484 51.5156 24.0469C52.1094 24 53.3203 23.9453 53.6953 23.9297L53.6875 23.25C53.6875 22.4062 53.1484 21.9219 52.1562 21.9219C51.2656 21.9219 50.7188 22.3281 50.5625 22.9375H48.6406C48.7812 21.4922 50.0781 20.4062 52.2031 20.4062C53.8125 20.4062 55.6719 21.0703 55.6719 23.3281V29H53.7656V27.8281H53.7031C53.3281 28.5469 52.5391 29.1719 51.2031 29.1719C49.5859 29.1719 48.3594 28.2891 48.3594 26.6094ZM50.2812 26.5938C50.2812 27.3281 50.8828 27.7031 51.7188 27.7031C52.9297 27.7031 53.7031 26.9062 53.7031 25.9531L53.6953 25.2578C53.3359 25.2734 52.2266 25.3438 51.8281 25.375C50.8828 25.4531 50.2812 25.8516 50.2812 26.5938ZM57.5469 32.1875V20.5156H59.5V21.9062H59.625C59.9297 21.3047 60.5547 20.4062 62.0625 20.4062C64.0156 20.4062 65.5547 21.9375 65.5625 24.7656C65.5547 27.5547 64.0625 29.1484 62.0625 29.1562C60.6016 29.1484 59.9375 28.2812 59.625 27.6562H59.5469V32.1875H57.5469ZM59.5 24.75C59.5078 26.4062 60.2266 27.5156 61.5156 27.5156C62.8359 27.5156 63.5312 26.3516 63.5312 24.75C63.5312 23.1719 62.8516 22.0391 61.5156 22.0312C60.2109 22.0391 59.5078 23.1016 59.5 24.75ZM70.5156 19.3906V17.6875H79.5312V19.3906H76.0469V29H74.0156V19.3906H70.5156ZM83.5 29.1719C81.0234 29.1719 79.4375 27.4141 79.4375 24.7969C79.4375 22.1562 81.0234 20.4062 83.5 20.4062C85.9844 20.4062 87.5703 22.1562 87.5625 24.7969C87.5703 27.4141 85.9844 29.1719 83.5 29.1719ZM81.4531 24.7812C81.4531 26.3359 82.1328 27.5781 83.5156 27.5781C84.875 27.5781 85.5547 26.3359 85.5469 24.7812C85.5547 23.2266 84.875 21.9766 83.5156 21.9844C82.1328 21.9766 81.4531 23.2266 81.4531 24.7812ZM23.6719 37.6875L26.6094 46.6094H26.7344L29.6875 37.6875H31.9219L27.9219 49H25.4219L21.4375 37.6875H23.6719ZM33.1719 49V40.5156H35.1719V49H33.1719ZM33.0312 38.2188C33.0312 37.625 33.5547 37.1406 34.1875 37.1406C34.8203 37.1406 35.3438 37.625 35.3438 38.2188C35.3438 38.8203 34.8203 39.3047 34.1875 39.3125C33.5547 39.3047 33.0312 38.8203 33.0312 38.2188ZM40.8438 49.1719C38.2891 49.1719 36.7188 47.4688 36.7188 44.8125C36.7188 42.1875 38.3125 40.4062 40.7344 40.4062C42.8125 40.4062 44.6094 41.7109 44.6094 44.6875V45.3125H38.6875C38.7188 46.7578 39.5703 47.6172 40.8594 47.6094C41.7344 47.6172 42.3203 47.2422 42.5781 46.7344H44.5312C44.1719 48.2031 42.8125 49.1719 40.8438 49.1719ZM38.6953 43.9531H42.7031C42.6953 42.7969 41.9141 41.9531 40.7656 41.9531C39.5703 41.9531 38.7656 42.875 38.6953 43.9531ZM47.875 49L45.4688 40.5156H47.5L49 46.4844H49.0781L50.5938 40.5156H52.6094L54.1406 46.4531H54.2188L55.7031 40.5156H57.7344L55.3281 49H53.25L51.6562 43.25H51.5469L49.9531 49H47.875ZM70.5156 41.5C70.2734 40.1406 69.1875 39.3594 67.8125 39.3594C65.9609 39.3594 64.6484 40.7812 64.6562 43.3438C64.6484 45.9453 65.9688 47.3281 67.8125 47.3281C69.1562 47.3281 70.2422 46.5781 70.5156 45.25H72.5625C72.25 47.4219 70.4609 49.1562 67.7812 49.1562C64.7969 49.1562 62.6016 46.9922 62.6094 43.3438C62.6016 39.6875 64.8203 37.5312 67.7812 37.5312C70.2812 37.5312 72.2109 38.9844 72.5625 41.5H70.5156ZM73.8281 46.6094C73.8281 44.7031 75.4141 44.1484 76.9844 44.0469C77.5781 44 78.7891 43.9453 79.1641 43.9297L79.1562 43.25C79.1562 42.4062 78.6172 41.9219 77.625 41.9219C76.7344 41.9219 76.1875 42.3281 76.0312 42.9375H74.1094C74.25 41.4922 75.5469 40.4062 77.6719 40.4062C79.2812 40.4062 81.1406 41.0703 81.1406 43.3281V49H79.2344V47.8281H79.1719C78.7969 48.5469 78.0078 49.1719 76.6719 49.1719C75.0547 49.1719 73.8281 48.2891 73.8281 46.6094ZM75.75 46.5938C75.75 47.3281 76.3516 47.7031 77.1875 47.7031C78.3984 47.7031 79.1719 46.9062 79.1719 45.9531L79.1641 45.2578C78.8047 45.2734 77.6953 45.3438 77.2969 45.375C76.3516 45.4531 75.75 45.8516 75.75 46.5938ZM83.0156 49V40.5156H84.9531V41.9219H85.0469C85.3516 40.9453 86.1641 40.3906 87.1406 40.3906C87.3594 40.3906 87.6719 40.4141 87.8594 40.4375V42.2812C87.6797 42.2188 87.2656 42.1641 86.9375 42.1562C85.8281 42.1641 85.0156 42.9297 85.0156 44V49H83.0156ZM91.9219 49.1562C89.9297 49.1484 88.4219 47.5547 88.4219 44.7656C88.4219 41.9375 89.9688 40.4062 91.9375 40.4062C93.4297 40.4062 94.0547 41.3047 94.3594 41.9062H94.4375V37.6875H96.4219V49H94.4688V47.6562H94.3594C94.0391 48.2812 93.3906 49.1484 91.9219 49.1562ZM90.4531 44.75C90.4531 46.3516 91.1562 47.5156 92.4688 47.5156C93.7578 47.5156 94.4844 46.4062 94.4844 44.75C94.4844 43.1016 93.7656 42.0391 92.4688 42.0312C91.1406 42.0391 90.4531 43.1719 90.4531 44.75ZM103.25 42.9375C103.125 42.2969 102.594 41.8828 101.75 41.8906C100.898 41.8828 100.273 42.3125 100.281 42.8906C100.273 43.3281 100.625 43.6562 101.484 43.8594L102.922 44.1562C104.523 44.5078 105.305 45.25 105.312 46.4688C105.305 48.0625 103.906 49.1719 101.688 49.1719C99.5312 49.1719 98.2578 48.2031 98.0469 46.5781H100.078C100.195 47.3047 100.758 47.6641 101.688 47.6562C102.648 47.6641 103.273 47.2734 103.281 46.6406C103.273 46.1484 102.891 45.8359 102.047 45.6562L100.688 45.3594C99.1094 45.0391 98.2891 44.2109 98.2969 43C98.2891 41.4297 99.6484 40.4062 101.719 40.4062C103.742 40.4062 104.992 41.3984 105.141 42.9375H103.25Z" fill="#111111"/>
<defs>
<clipPath id="clip0_156_525">
<rect width="126" height="71" fill="white"/>
</clipPath>
</defs>
</svg>
